<svg version="1.1" id="Capa_1" xmlns="http://www.w3.org/2000/svg" xmlns:xlink="http://www.w3.org/1999/xlink" x="0px" y="0px" style="enable-background:new 0 0 1080 1080;" xml:space="preserve" viewBox="114.3 428.07 832.3 125.55">
<style type="text/css">
	.st0{fill:#FFFFFF;}
</style>
<g>
	<path class="st0" d="M338.37,543.08c-0.84,2-2.04,3.74-3.59,5.21c-1.55,1.47-3.39,2.63-5.54,3.47s-4.5,1.27-7.06,1.27h-12.81   v-32.85h12.81c2.56,0,4.92,0.42,7.06,1.24c2.14,0.83,3.99,1.98,5.54,3.45c1.55,1.47,2.75,3.2,3.59,5.18   c0.84,1.99,1.27,4.14,1.27,6.45v0.09C339.64,538.92,339.21,541.08,338.37,543.08z M332.08,536.6c0-1.44-0.24-2.77-0.73-3.99   c-0.49-1.22-1.16-2.27-2.02-3.14c-0.86-0.88-1.9-1.56-3.12-2.04c-1.22-0.48-2.57-0.73-4.04-0.73h-5.58v19.8h5.58   c1.47,0,2.82-0.23,4.04-0.7c1.22-0.47,2.26-1.14,3.12-2.02c0.86-0.88,1.53-1.91,2.02-3.1c0.48-1.19,0.73-2.52,0.73-3.99V536.6z"/>
	<path class="st0" d="M387.45,553.03v-32.85h7.23v32.85H387.45z"/>
	<path class="st0" d="M451.17,526.7v7.09h15.67v6.52h-15.67v12.72h-7.23v-32.85h25.01v6.52H451.17z"/>
	<path class="st0" d="M547.92,543.2c-0.88,2.05-2.09,3.85-3.64,5.4c-1.55,1.55-3.39,2.77-5.54,3.66c-2.14,0.89-4.48,1.34-7.02,1.34   c-2.53,0-4.86-0.45-6.99-1.34c-2.13-0.89-3.96-2.09-5.51-3.61c-1.55-1.52-2.75-3.3-3.61-5.35c-0.86-2.05-1.29-4.25-1.29-6.59v-0.09   c0-2.35,0.44-4.54,1.31-6.59c0.88-2.05,2.09-3.85,3.64-5.4c1.55-1.55,3.39-2.77,5.54-3.66c2.14-0.89,4.48-1.34,7.02-1.34   c2.53,0,4.86,0.45,6.99,1.34c2.13,0.89,3.96,2.1,5.51,3.61c1.55,1.52,2.75,3.3,3.61,5.35c0.86,2.05,1.29,4.25,1.29,6.59v0.09   C549.24,538.95,548.8,541.15,547.92,543.2z M541.68,536.6c0-1.41-0.24-2.74-0.73-3.99c-0.49-1.25-1.17-2.35-2.06-3.28   s-1.95-1.68-3.17-2.23c-1.22-0.55-2.55-0.82-3.99-0.82c-1.47,0-2.81,0.27-4.01,0.8c-1.2,0.53-2.24,1.27-3.1,2.21   c-0.86,0.94-1.53,2.03-2.02,3.26c-0.49,1.24-0.73,2.56-0.73,3.97v0.09c0,1.41,0.24,2.74,0.73,3.99c0.48,1.25,1.17,2.35,2.06,3.28   c0.89,0.94,1.94,1.68,3.14,2.23c1.2,0.55,2.54,0.82,4.01,0.82c1.44,0,2.77-0.27,3.99-0.8c1.22-0.53,2.26-1.27,3.12-2.21   s1.53-2.03,2.02-3.26c0.48-1.24,0.73-2.56,0.73-3.96V536.6z"/>
	<path class="st0" d="M616.67,553.03l-7.04-10.51h-5.68v10.51h-7.23v-32.85h15.02c3.91,0,6.95,0.95,9.13,2.86   c2.17,1.91,3.26,4.57,3.26,7.98v0.09c0,2.66-0.65,4.83-1.95,6.5c-1.3,1.67-3,2.9-5.09,3.68l8.02,11.73H616.67z M616.81,531.4   c0-1.56-0.5-2.74-1.5-3.52c-1-0.78-2.39-1.17-4.18-1.17h-7.18v9.43h7.32c1.78,0,3.15-0.42,4.11-1.27c0.95-0.84,1.43-1.97,1.43-3.38   V531.4z"/>
	<path class="st0" d="M686.58,526.84v26.18h-7.23v-26.18h-9.99v-6.66h27.21v6.66H686.58z"/>
	<path class="st0" d="M743.17,553.03v-32.85h24.73v6.43h-17.6v6.66h15.48v6.43H750.3v6.9h17.83v6.43H743.17z"/>
</g>
<g>
	<path class="st0" d="M114.3,428.07h82.33v0.09c4.69,0,9.13,0.86,13.31,2.58c4.19,1.72,7.84,4.06,10.97,7.03   c3.12,2.97,5.61,6.44,7.45,10.41c1.84,3.97,2.77,8.2,2.77,12.71c0,4.63-0.94,8.92-2.81,12.89c-1.88,3.97-4.39,7.44-7.55,10.41   c-3.16,2.97-6.83,5.3-11.02,6.99c-4.19,1.69-8.56,2.53-13.13,2.53H114.3v-10.22h82.23c3.19,0,6.22-0.56,9.1-1.69   c2.87-1.13,5.39-2.71,7.55-4.75c2.16-2.04,3.88-4.43,5.16-7.19c1.28-2.76,1.92-5.76,1.92-9.02c0-3.07-0.61-5.97-1.83-8.69   c-1.22-2.73-2.89-5.12-5.02-7.19c-2.13-2.07-4.64-3.7-7.55-4.89c-2.91-1.19-6.02-1.79-9.33-1.79H114.3V428.07z"/>
	<path class="st0" d="M247.08,493.71v-65.64h10.78v65.64H247.08z"/>
	<path class="st0" d="M273.8,483.3h96.96c1.25,0,2.44-0.23,3.56-0.7c1.12-0.47,2.09-1.09,2.91-1.88c0.81-0.78,1.45-1.7,1.92-2.77   c0.47-1.06,0.7-2.19,0.7-3.38c0-2.44-0.88-4.48-2.63-6.14c-1.75-1.66-3.84-2.48-6.28-2.48h-77.45c-2.44,0-4.83-0.47-7.17-1.41   c-2.34-0.94-4.44-2.25-6.28-3.94c-1.84-1.69-3.33-3.67-4.45-5.95c-1.13-2.28-1.69-4.77-1.69-7.45v-0.38c0-2.63,0.55-5.08,1.64-7.36   c1.09-2.28,2.54-4.27,4.36-5.95c1.81-1.69,3.9-3.02,6.28-3.99c2.37-0.97,4.87-1.45,7.5-1.45h96.88v10.22h-96.79   c-1.31-0.06-2.51,0.11-3.6,0.52c-1.09,0.41-2.06,1.01-2.9,1.79c-0.84,0.79-1.5,1.71-1.96,2.78c-0.47,1.07-0.7,2.2-0.7,3.39   c0,1.2,0.23,2.33,0.7,3.39c0.47,1.07,1.11,2,1.92,2.78c0.81,0.79,1.78,1.41,2.9,1.89c1.12,0.47,2.31,0.71,3.56,0.71h77.13   c2.5,0,4.93,0.5,7.3,1.5c2.37,1,4.48,2.34,6.32,4.03c1.84,1.69,3.32,3.69,4.45,6c1.12,2.31,1.69,4.78,1.69,7.41   s-0.52,5.08-1.55,7.36c-1.03,2.28-2.45,4.3-4.26,6.05c-1.81,1.75-3.92,3.13-6.32,4.13c-2.41,1-4.98,1.5-7.73,1.5H273.8V483.3z"/>
	<path class="st0" d="M405.64,438.39v-10.31h116.84v10.31h-53.17v55.32h-10.69v-55.32H405.64z"/>
	<path class="st0" d="M537.48,438.48v-10.22h96.96c3.06,0,5.84,0.55,8.34,1.64c2.5,1.09,4.61,2.56,6.33,4.4   c1.72,1.84,3.03,3.91,3.94,6.22c0.91,2.31,1.36,4.66,1.36,7.06c0,2.4-0.52,4.77-1.55,7.11c-1.03,2.34-2.61,4.41-4.74,6.22   c-1.88,1.68-3.92,2.95-6.14,3.79c-2.22,0.84-4.74,1.3-7.55,1.36h-0.38l23.91,27.76h-12.66l-24.94-27.66h-72.11v27.66h-10.69v-37.88   h98.08c2.25-0.31,4.19-1.28,5.81-2.91c1.62-1.62,2.44-3.56,2.44-5.81s-0.81-4.2-2.44-5.86c-1.63-1.66-3.56-2.61-5.81-2.86H537.48z"/>
	<path class="st0" d="M672.04,493.71v-65.64h10.78v65.64H672.04z"/>
	<path class="st0" d="M697.82,438.39v-10.31h116.84v10.31h-53.17v55.32H750.8v-55.32H697.82z"/>
	<path class="st0" d="M848.13,428.07h79.98c2.5,0,4.88,0.45,7.13,1.36c2.25,0.91,4.22,2.16,5.91,3.75c1.69,1.59,3.01,3.45,3.98,5.58   c0.97,2.13,1.45,4.41,1.45,6.85v30.76c0,2.44-0.49,4.72-1.45,6.85c-0.97,2.13-2.3,3.98-3.98,5.58c-1.69,1.59-3.66,2.85-5.91,3.75   c-2.25,0.91-4.63,1.36-7.13,1.36h-79.98c-2.56,0-4.96-0.45-7.17-1.36c-2.22-0.91-4.17-2.16-5.86-3.75   c-1.69-1.59-3.02-3.45-3.99-5.58c-0.97-2.12-1.45-4.41-1.45-6.85v-30.76c0-2.44,0.48-4.72,1.45-6.85c0.97-2.12,2.3-3.99,3.99-5.58   c1.69-1.59,3.64-2.84,5.86-3.75C843.17,428.53,845.57,428.07,848.13,428.07z M848.04,483.49h79.98c1.12,0,2.16-0.2,3.09-0.61   c0.94-0.41,1.76-0.94,2.48-1.6c0.72-0.66,1.28-1.43,1.69-2.3c0.41-0.88,0.61-1.78,0.61-2.73v-30.82c0-0.94-0.2-1.85-0.61-2.73   c-0.41-0.88-0.97-1.64-1.69-2.3c-0.72-0.66-1.55-1.17-2.48-1.55c-0.94-0.38-1.97-0.56-3.09-0.56h-79.98   c-1.12,0-2.16,0.19-3.09,0.56c-0.94,0.38-1.77,0.89-2.48,1.55c-0.72,0.66-1.28,1.43-1.69,2.3c-0.41,0.88-0.61,1.79-0.61,2.73v30.82   c0,0.94,0.2,1.85,0.61,2.73c0.41,0.88,0.97,1.64,1.69,2.3c0.72,0.66,1.55,1.19,2.48,1.6C845.88,483.29,846.91,483.49,848.04,483.49   z"/>
</g>
</svg>