<svg version="1.1" id="Capa_1" xmlns="http://www.w3.org/2000/svg" xmlns:xlink="http://www.w3.org/1999/xlink" x="0px" y="0px" style="enable-background:new 0 0 1080 1080;" xml:space="preserve" viewBox="89.8 399.53 919.2 281.77">
<style type="text/css">
	.st0{fill:#FFFFFF;}
</style>
<g>
	<g>
		<path class="st0" d="M89.81,662.11v-0.11c0-10.6,7.94-19.29,19.23-19.29c5.75,0,9.54,1.7,12.79,4.21    c0.69,0.53,1.28,1.44,1.28,2.61c0,1.81-1.44,3.2-3.25,3.2c-0.91,0-1.55-0.32-1.97-0.64c-2.56-2.08-5.33-3.36-8.9-3.36    c-7.09,0-12.31,5.86-12.31,13.16v0.11c0,7.3,5.17,13.21,12.31,13.21c3.94,0,6.61-1.28,9.32-3.57c0.48-0.43,1.17-0.75,1.97-0.75    c1.65,0,3.09,1.38,3.09,3.04c0,1.01-0.48,1.81-1.07,2.35c-3.52,3.09-7.51,5.01-13.53,5.01C97.91,681.29,89.81,672.82,89.81,662.11    z"/>
		<path class="st0" d="M134.45,662.11v-0.11c0-10.5,8.1-19.29,19.55-19.29c11.45,0,19.45,8.68,19.45,19.18v0.11    c0,10.5-8.1,19.29-19.55,19.29C142.44,681.29,134.45,672.61,134.45,662.11z M166.57,662.11v-0.11c0-7.24-5.27-13.27-12.68-13.27    c-7.41,0-12.57,5.91-12.57,13.16v0.11c0,7.25,5.27,13.21,12.68,13.21C161.41,675.22,166.57,669.36,166.57,662.11z"/>
		<path class="st0" d="M186.71,646.66c0-1.86,1.44-3.3,3.3-3.3h13.32c4.69,0,8.36,1.39,10.76,3.73c1.97,2.02,3.09,4.8,3.09,8.04    v0.11c0,5.97-3.46,9.59-8.47,11.13l7.14,9c0.64,0.8,1.07,1.49,1.07,2.5c0,1.81-1.54,3.04-3.14,3.04c-1.49,0-2.45-0.69-3.2-1.7    l-9.06-11.56h-8.26v10.02c0,1.81-1.44,3.25-3.25,3.25c-1.86,0-3.3-1.44-3.3-3.25V646.66z M202.85,661.85    c4.69,0,7.67-2.45,7.67-6.23v-0.11c0-4-2.88-6.18-7.72-6.18h-9.54v12.52H202.85z"/>
		<path class="st0" d="M239.71,649.43h-9.06c-1.7,0-3.04-1.39-3.04-3.04c0-1.65,1.33-3.04,3.04-3.04h24.77    c1.65,0,2.98,1.39,2.98,3.04c0,1.65-1.33,3.04-2.98,3.04h-9.11v28.24c0,1.81-1.49,3.25-3.3,3.25c-1.81,0-3.3-1.44-3.3-3.25V649.43    z"/>
		<path class="st0" d="M270.77,646.34c0-1.81,1.44-3.25,3.3-3.25c1.81,0,3.25,1.44,3.25,3.25v31.33c0,1.81-1.44,3.25-3.25,3.25    c-1.86,0-3.3-1.44-3.3-3.25V646.34z"/>
		<path class="st0" d="M292.61,646.45c0-1.81,1.44-3.3,3.3-3.3h0.69c1.6,0,2.5,0.8,3.41,1.92l18.65,24.13v-22.91    c0-1.76,1.44-3.2,3.2-3.2c1.81,0,3.25,1.44,3.25,3.2v31.33c0,1.81-1.39,3.25-3.2,3.25h-0.27c-1.54,0-2.5-0.8-3.41-1.97    l-19.18-24.83v23.65c0,1.76-1.44,3.2-3.2,3.2c-1.81,0-3.25-1.44-3.25-3.2V646.45z"/>
		<path class="st0" d="M337.89,676.39l13.85-30.9c0.75-1.65,2.08-2.66,3.94-2.66H356c1.86,0,3.14,1.01,3.89,2.66l13.85,30.9    c0.27,0.48,0.37,0.96,0.37,1.39c0,1.76-1.33,3.14-3.09,3.14c-1.54,0-2.61-0.91-3.2-2.29l-3.04-6.98h-18.11l-3.14,7.19    c-0.53,1.33-1.65,2.08-3.04,2.08c-1.7,0-3.04-1.33-3.04-3.04C337.46,677.4,337.62,676.92,337.89,676.39z M362.29,665.84    l-6.55-15.08l-6.55,15.08H362.29z"/>
		<path class="st0" d="M385.57,676.5c-0.75-0.53-1.28-1.44-1.28-2.5c0-1.7,1.39-3.04,3.09-3.04c0.91,0,1.49,0.27,1.92,0.59    c3.09,2.45,6.39,3.84,10.44,3.84c4.05,0,6.61-1.92,6.61-4.69v-0.11c0-2.66-1.49-4.1-8.42-5.7c-7.94-1.92-12.41-4.26-12.41-11.13    v-0.11c0-6.39,5.33-10.82,12.73-10.82c4.69,0,8.47,1.23,11.83,3.46c0.75,0.43,1.44,1.33,1.44,2.61c0,1.7-1.39,3.04-3.09,3.04    c-0.64,0-1.17-0.16-1.7-0.48c-2.88-1.86-5.65-2.82-8.58-2.82c-3.84,0-6.07,1.97-6.07,4.42v0.11c0,2.88,1.7,4.16,8.9,5.86    c7.88,1.92,11.93,4.74,11.93,10.92v0.11c0,6.98-5.49,11.13-13.32,11.13C394.52,681.19,389.72,679.59,385.57,676.5z"/>
		<path class="st0" d="M449.65,673.04c2.13,0,3.73,1.6,3.73,3.68v0.53c0,2.08-1.6,3.68-3.73,3.68c-2.18,0-3.78-1.6-3.78-3.68v-0.53    C445.87,674.63,447.47,673.04,449.65,673.04z"/>
		<path class="st0" d="M497.38,649.43h-9.06c-1.7,0-3.04-1.39-3.04-3.04c0-1.65,1.33-3.04,3.04-3.04h24.77    c1.65,0,2.98,1.39,2.98,3.04c0,1.65-1.33,3.04-2.98,3.04h-9.11v28.24c0,1.81-1.49,3.25-3.3,3.25c-1.81,0-3.3-1.44-3.3-3.25V649.43    z"/>
		<path class="st0" d="M526.41,662.11v-0.11c0-10.5,8.1-19.29,19.55-19.29s19.45,8.68,19.45,19.18v0.11    c0,10.5-8.1,19.29-19.55,19.29C534.41,681.29,526.41,672.61,526.41,662.11z M558.54,662.11v-0.11c0-7.24-5.27-13.27-12.68-13.27    c-7.41,0-12.57,5.91-12.57,13.16v0.11c0,7.25,5.27,13.21,12.68,13.21C553.37,675.22,558.54,669.36,558.54,662.11z"/>
		<path class="st0" d="M578.67,646.34c0-1.81,1.44-3.25,3.3-3.25c1.81,0,3.25,1.44,3.25,3.25v28.34h16.89    c1.65,0,2.98,1.33,2.98,2.98c0,1.65-1.33,2.98-2.98,2.98h-20.14c-1.86,0-3.3-1.44-3.3-3.3V646.34z"/>
		<path class="st0" d="M616.97,646.66c0-1.86,1.44-3.3,3.3-3.3h10.6c11.72,0,19.82,8.04,19.82,18.54v0.11    c0,10.5-8.1,18.65-19.82,18.65h-10.6c-1.86,0-3.3-1.44-3.3-3.3V646.66z M630.88,674.69c7.83,0,12.95-5.28,12.95-12.57v-0.11    c0-7.3-5.11-12.68-12.95-12.68h-7.35v25.36H630.88z"/>
		<path class="st0" d="M662.31,662.11v-0.11c0-10.5,8.1-19.29,19.55-19.29s19.45,8.68,19.45,19.18v0.11    c0,10.5-8.1,19.29-19.55,19.29C670.3,681.29,662.31,672.61,662.31,662.11z M694.43,662.11v-0.11c0-7.24-5.27-13.27-12.68-13.27    c-7.41,0-12.57,5.91-12.57,13.16v0.11c0,7.25,5.27,13.21,12.68,13.21C689.27,675.22,694.43,669.36,694.43,662.11z"/>
		<path class="st0" d="M713.61,676.5c-0.75-0.53-1.28-1.44-1.28-2.5c0-1.7,1.39-3.04,3.09-3.04c0.91,0,1.49,0.27,1.92,0.59    c3.09,2.45,6.39,3.84,10.44,3.84c4.05,0,6.61-1.92,6.61-4.69v-0.11c0-2.66-1.49-4.1-8.42-5.7c-7.94-1.92-12.41-4.26-12.41-11.13    v-0.11c0-6.39,5.33-10.82,12.73-10.82c4.69,0,8.47,1.23,11.83,3.46c0.75,0.43,1.44,1.33,1.44,2.61c0,1.7-1.39,3.04-3.09,3.04    c-0.64,0-1.17-0.16-1.7-0.48c-2.88-1.86-5.65-2.82-8.58-2.82c-3.84,0-6.07,1.97-6.07,4.42v0.11c0,2.88,1.7,4.16,8.9,5.86    c7.88,1.92,11.93,4.74,11.93,10.92v0.11c0,6.98-5.49,11.13-13.32,11.13C722.56,681.19,717.76,679.59,713.61,676.5z"/>
		<path class="st0" d="M800.18,680.17l-3.89-3.94c-3.14,3.04-6.93,4.96-11.51,4.96c-6.98,0-12.2-4.21-12.2-10.66v-0.11    c0-4.8,2.82-8.26,7.94-10.44c-2.13-2.72-3.09-5.06-3.09-7.78v-0.11c0-5.01,4.05-9.38,10.71-9.38c5.91,0,9.91,4,9.91,9v0.11    c0,4.9-3.25,7.83-8.15,9.7l6.34,6.45c1.12-1.6,2.13-3.41,3.09-5.33c0.27-0.59,1.12-1.55,2.45-1.55c1.54,0,2.82,1.28,2.82,2.77    c0,0.48-0.16,1.01-0.37,1.44c-1.23,2.29-2.61,4.53-4.05,6.55l4.16,4.16c0.64,0.64,1.01,1.28,1.01,2.24c0,1.65-1.22,2.93-2.88,2.93    C801.51,681.19,800.87,680.87,800.18,680.17z M792.5,672.45l-8.31-8.47c-3.52,1.55-5.01,3.84-5.01,6.23v0.11    c0,3.14,2.61,5.43,6.23,5.43C788.03,675.75,790.37,674.47,792.5,672.45z M792.24,652.2v-0.11c0-2.5-1.76-4.21-4.21-4.21    c-2.66,0-4.48,1.86-4.48,4.47v0.11c0,1.86,0.75,3.25,2.82,5.54C790.21,656.63,792.24,654.92,792.24,652.2z"/>
		<path class="st0" d="M839.01,646.66c0-1.86,1.44-3.3,3.3-3.3h10.6c11.72,0,19.82,8.04,19.82,18.54v0.11    c0,10.5-8.1,18.65-19.82,18.65h-10.6c-1.86,0-3.3-1.44-3.3-3.3V646.66z M852.91,674.69c7.83,0,12.95-5.28,12.95-12.57v-0.11    c0-7.3-5.11-12.68-12.95-12.68h-7.35v25.36H852.91z"/>
		<path class="st0" d="M885.99,677.35v-30.69c0-1.86,1.44-3.3,3.3-3.3h21.68c1.6,0,2.93,1.33,2.93,2.93c0,1.65-1.33,2.93-2.93,2.93    h-18.43v9.7h16.04c1.6,0,2.93,1.33,2.93,2.98c0,1.6-1.33,2.88-2.93,2.88h-16.04v10.02h18.7c1.6,0,2.93,1.33,2.93,2.93    c0,1.65-1.33,2.93-2.93,2.93H889.3C887.43,680.65,885.99,679.22,885.99,677.35z"/>
		<path class="st0" d="M925.36,662.11v-0.11c0-10.6,7.94-19.29,19.23-19.29c5.75,0,9.54,1.7,12.79,4.21    c0.69,0.53,1.28,1.44,1.28,2.61c0,1.81-1.44,3.2-3.25,3.2c-0.91,0-1.54-0.32-1.97-0.64c-2.56-2.08-5.33-3.36-8.9-3.36    c-7.09,0-12.31,5.86-12.31,13.16v0.11c0,7.3,5.17,13.21,12.31,13.21c3.94,0,6.61-1.28,9.32-3.57c0.48-0.43,1.17-0.75,1.97-0.75    c1.65,0,3.09,1.38,3.09,3.04c0,1.01-0.48,1.81-1.07,2.35c-3.52,3.09-7.51,5.01-13.53,5.01    C933.46,681.29,925.36,672.82,925.36,662.11z"/>
		<path class="st0" d="M970,662.11v-0.11c0-10.5,8.1-19.29,19.55-19.29s19.45,8.68,19.45,19.18v0.11c0,10.5-8.1,19.29-19.55,19.29    C977.99,681.29,970,672.61,970,662.11z M1002.13,662.11v-0.11c0-7.24-5.27-13.27-12.68-13.27c-7.41,0-12.57,5.91-12.57,13.16v0.11    c0,7.25,5.27,13.21,12.68,13.21C996.96,675.22,1002.13,669.36,1002.13,662.11z"/>
	</g>
	<g>
		<g id="XMLID_299_">
			<path id="XMLID_310_" class="st0" d="M192.41,458.13c-0.57,1.11-1.99,1.4-2.98,0.64c-7.66-5.83-17.08-9.56-26.88-9.56     c-7.97,0-18.59,4.61-18.59,13.9c0,9.74,11.73,13.55,19.25,15.94l11.06,3.36c23.24,6.86,41.17,18.6,41.17,45.59     c0,16.6-3.99,33.63-17.27,44.93c-13.06,11.07-30.53,15.71-47.35,15.71c-20.43,0-40.44-6.68-57.19-18.02     c-0.84-0.57-1.1-1.68-0.63-2.58l16.61-31.22c0.59-1.11,2.05-1.38,3.02-0.57c10.43,8.77,22.65,15.65,36.63,15.65     c10.19,0,21.02-5.09,21.02-16.82c0-12.17-17.03-16.37-26.33-19.03c-27.22-7.79-45.15-14.82-45.15-47.18     c0-33.82,24.13-55.99,57.54-55.99c16.2,0,35.87,4.92,50.54,12.79c0.94,0.51,1.29,1.69,0.8,2.64L192.41,458.13z"/>
			<path id="XMLID_308_" class="st0" d="M378.88,417.3c1.09,0,1.97,0.88,1.97,1.97v91.91c0,21.46-0.94,42.72-17.49,58.87     c-13.98,13.72-35.86,18.59-55.32,18.59c-19.52,0-41.43-4.87-55.37-18.59c-16.6-16.15-17.49-37.41-17.49-58.87v-91.91     c0-1.09,0.88-1.97,1.97-1.97h39.43c1.09,0,1.97,0.88,1.97,1.97v85.93c0,21.69,1.55,45.37,29.48,45.37     c27.88,0,29.38-23.68,29.38-45.37v-85.93c0-1.09,0.88-1.97,1.97-1.97H378.88z"/>
			<path id="XMLID_306_" class="st0" d="M747.52,417.3c1.09,0,1.97,0.88,1.97,1.97v91.91c0,21.46-0.88,42.72-17.52,58.87     c-13.99,13.72-35.86,18.59-55.34,18.59c-19.48,0-41.38-4.87-55.32-18.59c-16.61-16.15-17.49-37.41-17.49-58.87v-91.91     c0-1.09,0.88-1.97,1.97-1.97h39.43c1.09,0,1.97,0.88,1.97,1.97v85.93c0,21.69,1.55,45.37,29.43,45.37s29.38-23.68,29.38-45.37     v-85.93c0-1.09,0.88-1.97,1.97-1.97H747.52z"/>
			<path id="XMLID_304_" class="st0" d="M818.32,584.2h-39.41c-1.09,0-1.97-0.88-1.97-1.97V419.27c0-1.09,0.88-1.97,1.97-1.97h39.41     c1.09,0,1.97,0.88,1.97,1.97v162.96C820.3,583.32,819.41,584.2,818.32,584.2z"/>
			<path id="XMLID_301_" class="st0" d="M891.21,555.22l-11.01,27.74c-0.3,0.75-1.03,1.24-1.83,1.24h-41.9     c-1.39,0-2.34-1.39-1.84-2.68l62.74-162.96c0.29-0.76,1.03-1.26,1.84-1.26h44.66c0.82,0,1.56,0.51,1.85,1.28l61.36,162.96     c0.49,1.29-0.47,2.67-1.85,2.67h-42.07c-0.82,0-1.56-0.51-1.85-1.28l-10.33-27.7H891.21z M921.49,468.86h-0.43l-17.87,53.16     h36.02L921.49,468.86z"/>
			<path id="XMLID_300_" class="st0" d="M581.87,489.1c0-56.65-52.53-101.01-111.58-86.9c-32.13,7.68-57.5,33.2-64.99,65.37     c-11.38,48.86,17.26,93.21,59.67,106.8c0.39,0.12,0.82,0,1.08-0.32l32.19-39.15c0.56-0.68,0.02-1.71-0.85-1.61     c-5.58,0.63-11.48,0.23-17.49-1.4c-14.32-3.88-25.83-15.02-30.05-29.25c-9.02-30.36,13.57-58.05,42.54-58.05     c24.41,0,44.43,20.08,44.43,44.49c0,15.82-10.02,33.62-23.5,50.07c-10.52,12.84-32.34,39.35-32.34,39.35l-31.83,38.85     c-0.53,0.64-0.07,1.61,0.76,1.61h86.44c0.3,0,0.58-0.13,0.76-0.36l31.53-38.49c0.53-0.64,0.07-1.61-0.76-1.61h-28.87     C560.45,555.34,581.87,523.58,581.87,489.1z"/>
		</g>
	</g>
</g>
</svg>