<svg version="1.1" id="Capa_1" xmlns="http://www.w3.org/2000/svg" xmlns:xlink="http://www.w3.org/1999/xlink" x="0px" y="0px" style="enable-background:new 0 0 119.7 112.15;" xml:space="preserve" viewBox="4.43 -0.17 112.27 107.92">
<style type="text/css">
	.st0{fill-rule:evenodd;clip-rule:evenodd;fill:#FFFFFF;}
	.st1{fill:none;stroke:#FFFFFF;stroke-width:1.4999;}
	.st2{fill-rule:evenodd;clip-rule:evenodd;}
	.st3{fill-rule:evenodd;clip-rule:evenodd;fill:#D9DADB;}
	.st4{fill:#FFFFFF;}
	.st5{fill:none;stroke:#FFFFFF;stroke-width:3;}
</style>
<path class="st0" d="M28.09,94.53h-9.09v-1.51h9.09V94.53z M13.04,87.85v6.68h-2.01l-0.01-49.3l2.02,0V87.85z"/>
<path class="st1" d="M28.09,94.53h-9.09v-1.51h9.09V94.53z M13.04,87.85v6.68h-2.01l-0.01-49.3l2.02,0V87.85z"/>
<path class="st0" d="M35.04,65.89c0.95,0.14,1.82,0.4,2.61,0.75c1.58,0.7,2.91,1.64,3.98,2.82c1.08,1.29,1.93,2.83,2.57,4.63  c0.57,1.84,0.86,3.82,0.89,5.94c0.03,2.18-0.22,4.2-0.74,6.05c-0.6,1.82-1.41,3.38-2.46,4.7c-0.94,1.07-1.88,1.86-2.79,2.39  c-1.08,0.59-2.07,1-2.96,1.21l-0.43-1.33c1.02-0.32,1.82-0.69,2.4-1.11c0.95-0.62,1.78-1.37,2.48-2.23c0.91-1.21,1.61-2.65,2.1-4.33  c0.43-1.58,0.63-3.38,0.6-5.39c-0.02-2.01-0.27-3.75-0.73-5.22c-0.57-1.74-1.31-3.16-2.2-4.28c-1.01-1.25-2.15-2.14-3.41-2.67  c-0.7-0.34-1.45-0.58-2.27-0.72L35.04,65.89z M30.66,67.17c-0.77,0.16-1.51,0.42-2.23,0.77c-1.16,0.49-2.27,1.41-3.35,2.75  c-0.87,1.14-1.57,2.58-2.1,4.33c-0.42,1.68-0.62,3.43-0.6,5.24c0.05,3.96,1.02,7.18,2.93,9.65c0.69,0.81,1.52,1.54,2.49,2.17  c0.58,0.41,1.39,0.75,2.42,1.05l-0.44,1.34c-0.93-0.23-1.89-0.61-2.88-1.14c-1.07-0.57-2-1.34-2.8-2.32  c-1.11-1.29-1.97-2.83-2.57-4.63c-0.56-1.53-0.86-3.54-0.89-6.04c-0.05-4.44,1.01-7.99,3.2-10.65c1.01-1.2,2.27-2.18,3.76-2.91  c0.79-0.37,1.66-0.64,2.59-0.81L30.66,67.17z"/>
<path class="st1" d="M35.04,65.89c0.95,0.14,1.82,0.4,2.61,0.75c1.58,0.7,2.91,1.64,3.98,2.82c1.08,1.29,1.93,2.83,2.57,4.63  c0.57,1.84,0.86,3.82,0.89,5.94c0.03,2.18-0.22,4.2-0.74,6.05c-0.6,1.82-1.41,3.38-2.46,4.7c-0.94,1.07-1.88,1.86-2.79,2.39  c-1.08,0.59-2.07,1-2.96,1.21l-0.43-1.33c1.02-0.32,1.82-0.69,2.4-1.11c0.95-0.62,1.78-1.37,2.48-2.23c0.91-1.21,1.61-2.65,2.1-4.33  c0.43-1.58,0.63-3.38,0.6-5.39c-0.02-2.01-0.27-3.75-0.73-5.22c-0.57-1.74-1.31-3.16-2.2-4.28c-1.01-1.25-2.15-2.14-3.41-2.67  c-0.7-0.34-1.45-0.58-2.27-0.72L35.04,65.89z M30.66,67.17c-0.77,0.16-1.51,0.42-2.23,0.77c-1.16,0.49-2.27,1.41-3.35,2.75  c-0.87,1.14-1.57,2.58-2.1,4.33c-0.42,1.68-0.62,3.43-0.6,5.24c0.05,3.96,1.02,7.18,2.93,9.65c0.69,0.81,1.52,1.54,2.49,2.17  c0.58,0.41,1.39,0.75,2.42,1.05l-0.44,1.34c-0.93-0.23-1.89-0.61-2.88-1.14c-1.07-0.57-2-1.34-2.8-2.32  c-1.11-1.29-1.97-2.83-2.57-4.63c-0.56-1.53-0.86-3.54-0.89-6.04c-0.05-4.44,1.01-7.99,3.2-10.65c1.01-1.2,2.27-2.18,3.76-2.91  c0.79-0.37,1.66-0.64,2.59-0.81L30.66,67.17z"/>
<path class="st0" d="M57.4,79.78h-2.05V78.6h2.05V79.78z M61.6,66.87H50.73v26.96H49.2V65.74h12.4V66.87z"/>
<path class="st1" d="M57.4,79.78h-2.05V78.6h2.05V79.78z M61.6,66.87H50.73v26.96H49.2V65.74h12.4V66.87z"/>
<path class="st2" d="M74.8,93.93V72.46h1.53v21.47H74.8z M84.95,67.23H66.24v-1.33h18.71V67.23z"/>
<path class="st1" d="M74.8,93.93V72.46h1.53v21.47H74.8z M84.95,67.23H66.24v-1.33h18.71V67.23z"/>
<path class="st3" d="M109.18,106.72c0,0.16-0.08,0.3-0.24,0.41c-0.16,0.11-0.35,0.17-0.58,0.17c-0.23,0-0.42-0.06-0.58-0.17  c-0.16-0.11-0.24-0.25-0.24-0.41v-6.87c0-0.16,0.08-0.3,0.24-0.41c0.16-0.11,0.35-0.17,0.58-0.17c0.23,0,0.42,0.06,0.58,0.17  c0.16,0.11,0.24,0.25,0.24,0.41V106.72z M109.79,99.85c0-0.28-0.14-0.52-0.41-0.72c-0.28-0.2-0.62-0.3-1.01-0.3  c-0.4,0-0.73,0.1-1.01,0.3c-0.28,0.2-0.42,0.44-0.42,0.72v6.87c0,0.28,0.14,0.52,0.42,0.72c0.28,0.2,0.61,0.3,1.01,0.3  c0.39,0,0.73-0.1,1.01-0.3c0.28-0.2,0.41-0.44,0.41-0.72V99.85z M101.45,98.9v8.77h0.61V98.9H101.45z M94.33,99.34h0.82  c0.23,0,0.42,0.06,0.58,0.17c0.16,0.11,0.24,0.25,0.24,0.41v6.72c0,0.16-0.08,0.31-0.24,0.42c-0.16,0.11-0.35,0.17-0.58,0.17h-0.82  V99.34z M96.57,99.92c0-0.28-0.14-0.52-0.42-0.72c-0.28-0.2-0.61-0.3-1.01-0.3h-1.43v8.77h1.43c0.4,0,0.73-0.1,1.01-0.3  c0.28-0.2,0.42-0.44,0.42-0.73V99.92z M85.98,98.9v7.82c0,0.28,0.14,0.52,0.42,0.72c0.28,0.2,0.61,0.3,1.01,0.3  c0.4,0,0.74-0.1,1.01-0.3c0.28-0.2,0.42-0.44,0.42-0.72V98.9h-0.61v7.82c0,0.16-0.08,0.3-0.24,0.41c-0.16,0.11-0.35,0.17-0.58,0.17  c-0.23,0-0.42-0.06-0.58-0.17c-0.16-0.11-0.24-0.25-0.24-0.41V98.9H85.98z M81.31,98.9h-2.86v0.44h1.12v8.33h0.61v-8.33h1.13V98.9z   M72.36,104.16c0.23,0,0.42,0.06,0.58,0.17c0.16,0.11,0.24,0.25,0.24,0.42v1.97c0,0.16-0.08,0.3-0.24,0.41  c-0.16,0.11-0.35,0.17-0.58,0.17c-0.23,0-0.42-0.06-0.58-0.17c-0.16-0.11-0.24-0.25-0.24-0.41v-1.02h-0.61v1.02  c0,0.28,0.14,0.52,0.42,0.72c0.28,0.2,0.61,0.3,1.01,0.3c0.39,0,0.73-0.1,1.01-0.3c0.28-0.2,0.42-0.44,0.42-0.72v-1.97  c0-0.29-0.14-0.53-0.42-0.73c-0.28-0.2-0.61-0.3-1.01-0.3c-0.23,0-0.42-0.05-0.58-0.17c-0.16-0.11-0.24-0.25-0.24-0.42v-3.28  c0-0.16,0.08-0.3,0.24-0.41c0.16-0.11,0.35-0.17,0.58-0.17c0.23,0,0.42,0.06,0.58,0.17c0.16,0.11,0.24,0.25,0.24,0.41v1.02h0.61  v-1.02c0-0.28-0.14-0.52-0.42-0.72c-0.28-0.2-0.61-0.3-1.01-0.3c-0.4,0-0.74,0.1-1.01,0.3c-0.28,0.2-0.42,0.44-0.42,0.72v3.28  c0,0.29,0.14,0.53,0.42,0.73C71.63,104.06,71.96,104.16,72.36,104.16z M66.27,107.67v-0.44h-2.25v-3.07h1.63v-0.44h-1.63v-4.38h2.25  V98.9h-2.86v8.77H66.27z M58.74,98.9h-0.62l-3.45,8.77h0.62L58.74,98.9z M49.38,103.72h-1.63v-3.87c0-0.16,0.08-0.3,0.24-0.41  c0.16-0.11,0.35-0.17,0.58-0.17c0.23,0,0.42,0.06,0.58,0.17c0.16,0.11,0.23,0.25,0.23,0.41V103.72z M50,107.67v-7.82  c0-0.28-0.14-0.52-0.42-0.72c-0.28-0.2-0.61-0.3-1.01-0.3c-0.4,0-0.74,0.1-1.01,0.3c-0.28,0.2-0.41,0.44-0.41,0.72v7.82h0.61v-3.51  h1.63v3.51H50z M40.02,99.34h0.82c0.23,0,0.42,0.06,0.58,0.17c0.16,0.11,0.24,0.25,0.24,0.41v6.72c0,0.16-0.08,0.31-0.24,0.42  c-0.16,0.11-0.35,0.17-0.58,0.17h-0.82V99.34z M42.26,99.92c0-0.28-0.14-0.52-0.42-0.72c-0.28-0.2-0.61-0.3-1.01-0.3h-1.43v8.77  h1.43c0.4,0,0.74-0.1,1.01-0.3c0.28-0.2,0.42-0.44,0.42-0.73V99.92z M33.92,107.67h0.61v-7.82c0-0.28-0.14-0.52-0.42-0.72  c-0.28-0.2-0.61-0.3-1.01-0.3c-0.17,0-0.32,0.02-0.45,0.05c-0.13,0.04-0.25,0.08-0.37,0.14v-0.19h-0.61v8.84h0.61v-7.82  c0-0.16,0.08-0.3,0.24-0.41s0.35-0.17,0.58-0.17c0.23,0,0.42,0.06,0.58,0.17s0.24,0.25,0.24,0.41V107.67z M27,107.67v-0.44h-2.25  v-3.07h1.63v-0.44h-1.63v-4.38H27V98.9h-2.85v8.77H27z M18.66,98.9v8.77h0.61V98.9H18.66z M13.99,98.9h-2.86v0.44h1.12v8.33h0.61  v-8.33h1.13V98.9z"/>
<path class="st4" d="M109.18,106.72c0,0.16-0.08,0.3-0.24,0.41c-0.16,0.11-0.35,0.17-0.58,0.17c-0.23,0-0.42-0.06-0.58-0.17  c-0.16-0.11-0.24-0.25-0.24-0.41v-6.87c0-0.16,0.08-0.3,0.24-0.41c0.16-0.11,0.35-0.17,0.58-0.17c0.23,0,0.42,0.06,0.58,0.17  c0.16,0.11,0.24,0.25,0.24,0.41V106.72z M109.79,99.85c0-0.28-0.14-0.52-0.41-0.72c-0.28-0.2-0.62-0.3-1.01-0.3  c-0.4,0-0.73,0.1-1.01,0.3c-0.28,0.2-0.42,0.44-0.42,0.72v6.87c0,0.28,0.14,0.52,0.42,0.72c0.28,0.2,0.61,0.3,1.01,0.3  c0.39,0,0.73-0.1,1.01-0.3c0.28-0.2,0.41-0.44,0.41-0.72V99.85z M101.45,98.9v8.77h0.61V98.9H101.45z M94.33,99.34h0.82  c0.23,0,0.42,0.06,0.58,0.17c0.16,0.11,0.24,0.25,0.24,0.41v6.72c0,0.16-0.08,0.31-0.24,0.42c-0.16,0.11-0.35,0.17-0.58,0.17h-0.82  V99.34z M96.57,99.92c0-0.28-0.14-0.52-0.42-0.72c-0.28-0.2-0.61-0.3-1.01-0.3h-1.43v8.77h1.43c0.4,0,0.73-0.1,1.01-0.3  c0.28-0.2,0.42-0.44,0.42-0.73V99.92z M85.98,98.9v7.82c0,0.28,0.14,0.52,0.42,0.72c0.28,0.2,0.61,0.3,1.01,0.3  c0.4,0,0.74-0.1,1.01-0.3c0.28-0.2,0.42-0.44,0.42-0.72V98.9h-0.61v7.82c0,0.16-0.08,0.3-0.24,0.41c-0.16,0.11-0.35,0.17-0.58,0.17  c-0.23,0-0.42-0.06-0.58-0.17c-0.16-0.11-0.24-0.25-0.24-0.41V98.9H85.98z M81.31,98.9h-2.86v0.44h1.12v8.33h0.61v-8.33h1.13V98.9z   M72.36,104.16c0.23,0,0.42,0.06,0.58,0.17c0.16,0.11,0.24,0.25,0.24,0.42v1.97c0,0.16-0.08,0.3-0.24,0.41  c-0.16,0.11-0.35,0.17-0.58,0.17c-0.23,0-0.42-0.06-0.58-0.17c-0.16-0.11-0.24-0.25-0.24-0.41v-1.02h-0.61v1.02  c0,0.28,0.14,0.52,0.42,0.72c0.28,0.2,0.61,0.3,1.01,0.3c0.39,0,0.73-0.1,1.01-0.3c0.28-0.2,0.42-0.44,0.42-0.72v-1.97  c0-0.29-0.14-0.53-0.42-0.73c-0.28-0.2-0.61-0.3-1.01-0.3c-0.23,0-0.42-0.05-0.58-0.17c-0.16-0.11-0.24-0.25-0.24-0.42v-3.28  c0-0.16,0.08-0.3,0.24-0.41c0.16-0.11,0.35-0.17,0.58-0.17c0.23,0,0.42,0.06,0.58,0.17c0.16,0.11,0.24,0.25,0.24,0.41v1.02h0.61  v-1.02c0-0.28-0.14-0.52-0.42-0.72c-0.28-0.2-0.61-0.3-1.01-0.3c-0.4,0-0.74,0.1-1.01,0.3c-0.28,0.2-0.42,0.44-0.42,0.72v3.28  c0,0.29,0.14,0.53,0.42,0.73C71.63,104.06,71.96,104.16,72.36,104.16z M66.27,107.67v-0.44h-2.25v-3.07h1.63v-0.44h-1.63v-4.38h2.25  V98.9h-2.86v8.77H66.27z M58.74,98.9h-0.62l-3.45,8.77h0.62L58.74,98.9z M49.38,103.72h-1.63v-3.87c0-0.16,0.08-0.3,0.24-0.41  c0.16-0.11,0.35-0.17,0.58-0.17c0.23,0,0.42,0.06,0.58,0.17c0.16,0.11,0.23,0.25,0.23,0.41V103.72z M50,107.67v-7.82  c0-0.28-0.14-0.52-0.42-0.72c-0.28-0.2-0.61-0.3-1.01-0.3c-0.4,0-0.74,0.1-1.01,0.3c-0.28,0.2-0.41,0.44-0.41,0.72v7.82h0.61v-3.51  h1.63v3.51H50z M40.02,99.34h0.82c0.23,0,0.42,0.06,0.58,0.17c0.16,0.11,0.24,0.25,0.24,0.41v6.72c0,0.16-0.08,0.31-0.24,0.42  c-0.16,0.11-0.35,0.17-0.58,0.17h-0.82V99.34z M42.26,99.92c0-0.28-0.14-0.52-0.42-0.72c-0.28-0.2-0.61-0.3-1.01-0.3h-1.43v8.77  h1.43c0.4,0,0.74-0.1,1.01-0.3c0.28-0.2,0.42-0.44,0.42-0.73V99.92z M33.92,107.67h0.61v-7.82c0-0.28-0.14-0.52-0.42-0.72  c-0.28-0.2-0.61-0.3-1.01-0.3c-0.17,0-0.32,0.02-0.45,0.05c-0.13,0.04-0.25,0.08-0.37,0.14v-0.19h-0.61v8.84h0.61v-7.82  c0-0.16,0.08-0.3,0.24-0.41s0.35-0.17,0.58-0.17c0.23,0,0.42,0.06,0.58,0.17s0.24,0.25,0.24,0.41V107.67z M27,107.67v-0.44h-2.25  v-3.07h1.63v-0.44h-1.63v-4.38H27V98.9h-2.85v8.77H27z M18.66,98.9v8.77h0.61V98.9H18.66z M13.99,98.9h-2.86v0.44h1.12v8.33h0.61  v-8.33h1.13V98.9z"/>
<polyline class="st5" points="11.95,40.21 11.96,7.35 109.18,7.35 109.18,93.48 86.45,93.48 "/>
</svg>