<svg version="1.1" id="Capa_1" xmlns="http://www.w3.org/2000/svg" xmlns:xlink="http://www.w3.org/1999/xlink" x="0px" y="0px" style="enable-background:new 0 0 1080 1080;" xml:space="preserve" viewBox="120 290.78 839.13 456.05">
<style type="text/css">
	.st0{fill:#FFFFFF;}
</style>
<g transform="translate(0.000000,2482.000000) scale(0.100000,-0.100000)">
	<path class="st0" d="M1200,20034.61v-1877.52h1880.09h1880.09v48.67v48.67H3128.75H1297.33v1780.19v1780.19h4098.28h4098.28v-2231   v-2231h48.67h48.67v2279.67v2279.67H5395.61H1200V20034.61z"/>
	<path class="st0" d="M3746.57,21268.71c-12.29-17.93-15.88-27.15-13.32-37.4c2.05-10.25,0-16.39-7.68-23.57   c-5.64-5.12-10.25-14.86-10.25-21c0-11.27-69.67-146-162.39-312.49c-47.13-85.55-534.31-836.56-542.51-837.07   c-3.07,0-9.73,4.61-15.37,10.76c-11.78,13.32-34.32,25.1-47.13,25.1c-5.64,0-15.88,4.61-23.05,10.25   c-7.17,5.63-37.91,18.96-68.65,28.69c-51.23,16.91-57.89,18.44-91.19,14.86c-19.47-2.56-64.55-4.61-99.9-4.61   c-39.45-0.51-68.13-3.07-74.79-6.66c-5.64-3.59-23.05-22.03-37.91-42.01c-14.86-19.98-30.22-36.88-33.81-38.42   c-11.27-4.1-143.44-193.13-178.28-255.12c-7.68-13.83-25.1-37.91-38.93-54.81c-37.91-45.59-53.79-74.79-71.72-130.63   c-8.71-27.66-21-60.96-26.64-74.28c-5.64-12.81-15.37-46.62-22.03-74.79c-6.66-28.18-21.52-87.6-32.79-132.17   c-22.03-85.04-25.61-121.92-15.88-173.15c3.07-14.86,9.73-31.76,14.86-37.4c5.12-6.15,15.37-23.56,23.05-39.45   c7.17-15.37,21-37.4,30.22-48.16c14.86-17.42,19.98-19.98,37.4-19.47c10.76,0.51,26.13-2.56,33.81-6.66   c7.68-4.1,22.03-7.17,31.76-7.17c10.25,0,33.3-6.15,51.74-13.32c40.47-16.39,59.94-14.34,97.85,10.76   c14.34,9.22,39.96,24.08,56.86,32.27c35.35,17.93,63.01,39.96,63.01,49.69c0,4.1,10.25,15.88,23.05,26.64   c12.81,10.24,23.05,22.03,23.05,25.1c0,3.59,2.05,7.17,4.61,8.2c3.07,1.02,18.44,20.49,34.84,43.54s120.39,170.59,231.55,327.86   c111.17,157.27,220.28,311.98,242.82,343.74c41.5,58.91,58.91,72.23,52.77,40.98c-3.59-17.93-17.42-115.78-44.57-314.03   c-17.42-129.61-17.42-161.88,1.02-227.97c18.95-68.65,58.91-132.17,116.8-185.96c27.15-25.1,33.3-28.17,59.94-31.76   c19.47-2.56,35.35-8.2,49.18-18.44c17.93-12.81,21.52-13.83,28.18-7.17c4.1,4.1,12.29,7.68,17.93,7.68c7.68,0,9.73-2.56,7.68-10.24   c-3.07-12.81-4.1-12.81,38.42,1.02l34.84,11.27l10.25-11.27c5.64-5.63,10.25-13.32,10.25-16.39c0-9.73,38.93-5.63,53.28,5.63   c7.68,5.63,16.91,9.22,21,7.68c4.1-1.54,8.71-0.51,10.25,2.05c5.12,8.71,49.69,36.37,55.33,34.32c3.07-1.03,9.73,2.56,14.86,7.68   c12.29,12.29,24.59,11.78,24.59-1.02c0-5.63,1.54-10.25,3.07-10.25c9.22,0,60.96,34.32,96.82,64.55   c22.54,18.96,54.81,40.98,71.72,48.67s40.47,21,52.25,29.71c12.29,8.71,25.61,15.88,29.71,15.88c4.1,0,13.32,9.22,19.98,19.98   c13.83,21.52,31.25,36.37,43.03,36.37c4.1,0,23.57,17.42,43.54,38.42c26.64,28.69,39.45,38.42,47.64,37.4   c6.15-0.51,14.86,1.54,18.95,5.63c13.32,10.76,21.52,4.1,28.18-23.57c10.25-38.42,29.2-76.33,56.86-111.16   c29.71-37.4,78.38-84.02,102.97-98.87c45.59-28.18,151.12-61.47,204.91-65.57c15.37-1.02,51.23-4.61,79.4-7.68   c78.38-8.2,269.97-0.51,277.15,10.76c1.54,2.56,8.2,4.61,14.34,4.61c6.66,0,21,3.59,31.76,8.2c11.78,5.12,26.64,7.17,36.88,5.12   c28.69-4.61,136.78,28.18,216.18,65.06c43.54,19.98,274.07,167.52,348.87,223.36c27.15,19.98,51.74,36.37,54.81,36.37   c4.1,0,6.15-13.32,6.15-39.45c0-79.4,31.25-169.05,79.92-229.5c19.98-25.62,123.46-82.48,183.91-101.43   c84.01-26.13,117.31-31.25,212.6-30.74c98.36,0,158.3,8.2,227.97,30.74c206.96,66.6,503.58,247.95,760.23,464.64   c40.47,33.81,76.33,64.04,80.43,67.11c13.32,9.73,13.83-3.59,0.51-46.62c-7.68-24.08-17.42-66.08-22.03-93.24   c-4.1-27.15-11.27-58.4-15.37-69.16c-9.73-26.64-8.71-67.11,3.07-100.92c5.64-15.37,9.73-34.32,10.25-41.49   c0-7.69,3.07-16.39,7.17-19.47c3.59-3.07,10.76-16.91,15.88-30.23c20.49-53.79,54.81-92.21,102.46-113.73   c16.91-7.68,33.81-17.93,37.91-22.54c5.64-6.66,11.78-8.2,27.66-5.63c14.34,2.56,21.52,1.54,24.59-3.07   c3.07-5.63,22.03-7.17,85.04-6.66c89.65,1.02,169.05,13.32,204.4,32.27c10.76,6.15,22.03,10.76,24.08,10.76   c2.56,0,11.27,4.61,19.47,10.76c8.2,5.63,23.57,12.81,33.81,15.88c10.76,2.56,27.15,13.32,37.4,23.56   c9.73,10.25,26.64,25.62,36.88,34.32c10.76,8.71,33.3,32.79,50.2,53.79c27.15,34.32,38.42,52.77,66.08,111.17   c4.61,9.22,16.39,26.13,27.15,37.91c10.25,11.27,20.49,25.1,22.03,29.71c5.64,18.44,46.62,30.74,156.25,47.13   c66.08,9.73,77.35,12.81,103.99,29.2c22.54,13.83,37.4,18.95,64.04,21.52c44.57,4.61,76.84,18.96,351.43,154.2   c22.03,11.27,42.01,19.98,44.57,19.98c9.22,0,54.3,36.37,75.31,60.96c12.81,14.86,26.13,26.13,32.27,26.13s11.78,5.12,14.86,12.81   c2.56,7.17,9.22,14.86,13.83,16.39c5.12,2.05,30.74,24.08,56.35,49.18c26.13,25.62,57.38,51.74,69.16,58.91   c32.79,18.96,58.91,45.08,86.58,87.6c26.13,39.45,30.22,51.74,17.42,51.74c-4.1,0-9.22,6.15-10.76,13.32   c-2.05,7.17-6.15,11.78-9.22,10.76c-13.83-5.63-139.34-80.43-163.42-97.33c-72.74-51.23-173.15-116.29-196.72-128.07   c-47.13-24.08-335.03-137.29-421.1-165.47c-81.97-27.15-171.62-47.64-178.28-40.98c-2.05,1.54,5.12,27.66,15.37,58.4   c23.05,67.62,32.27,120.39,39.96,223.36c4.1,58.4,4.1,95.8,0,139.85c-7.68,82.99-7.68,82.48-34.32,86.58   c-16.91,2.56-28.69,9.22-51.74,30.22c-33.81,30.22-60.96,46.11-65.57,38.42c-1.54-3.07-7.68-5.12-13.83-5.12   c-7.68,0-9.73,2.56-8.2,9.22c2.05,7.17-2.05,12.29-14.34,18.96c-15.88,8.71-24.08,8.71-51.74,0c-7.68-2.56-14.34,0-22.03,7.68   c-8.2,8.2-18.95,12.29-35.35,13.32c-14.34,1.02-25.61,4.61-29.71,10.25c-5.64,7.68-7.68,7.68-28.18,0   c-13.32-5.64-27.66-7.69-38.42-5.64c-13.32,2.56-22.03-0.51-45.08-14.86c-15.37-10.25-42.52-25.61-59.94-34.32   c-80.94-40.47-196.72-160.86-275.1-284.83c-9.22-14.86-21-28.17-26.13-29.71c-5.64-1.54-15.37-9.22-21.52-17.42   c-6.66-7.69-15.88-15.37-21-17.42c-5.12-2.05-12.29-11.27-16.39-21c-4.1-9.73-12.29-18.96-17.93-21   c-5.64-1.54-10.25-5.63-10.25-8.2c0-2.56-2.05-4.61-5.12-4.61c-6.66,0-23.05-16.39-30.74-30.22c-3.07-5.63-17.93-16.39-33.81-24.08   c-15.88-7.68-46.11-29.71-68.65-50.72c-22.03-21-52.25-44.05-67.62-51.74c-14.86-7.17-47.64-29.2-73.26-47.64   c-65.57-48.67-191.08-133.71-197.23-133.71c-3.07,0-28.69-13.83-57.38-31.25c-63.01-37.91-139.85-75.82-288.42-140.37   c-127.05-55.84-141.9-61.47-220.28-86.06c-30.74-9.73-73.77-24.08-94.77-31.76c-34.32-12.29-43.03-13.83-89.65-11.78   c-65.57,3.07-111.68,16.39-133.71,38.42c-35.35,34.84-49.69,119.36-37.91,222.84c6.66,62.5,16.91,89.65,90.16,243.85   c55.84,117.83,71.21,136.78,317.62,392.41c39.45,40.98,140.37,86.58,140.37,63.52c0-19.98-17.93-70.7-40.98-116.8   c-33.3-66.6-47.64-105.53-44.06-119.88c7.17-29.71,71.72-90.16,96.31-90.16c5.12,0,9.22-2.05,9.22-4.61   c0-7.17,45.59-13.32,51.74-7.17c3.07,3.07,14.34,31.25,25.61,63.52c11.27,32.28,24.08,63.52,28.18,69.67   c4.1,6.15,7.17,23.56,7.17,38.93c0,15.37,3.59,37.91,8.2,50.2c8.71,24.59,6.15,55.84-6.15,86.58   c-14.34,34.32-69.67,112.7-79.4,112.7c-5.12,0-14.34,5.63-21,12.29c-8.71,8.71-19.47,12.81-40.98,14.86   c-21.52,2.05-37.4,7.69-58.91,21c-42.01,26.13-64.04,25.1-96.82-2.56c-13.83-11.27-51.23-33.3-82.48-48.16   c-31.76-15.37-66.6-35.86-76.84-45.08c-10.76-9.22-36.88-30.22-57.89-47.13c-53.79-42.52-105.53-97.33-160.35-168.54   c-26.13-33.81-50.72-65.06-54.81-69.67c-4.1-4.61-13.32-19.47-19.98-32.79c-7.17-13.32-17.42-28.18-23.56-32.79   c-6.15-4.61-28.69-43.03-50.72-85.04l-39.45-76.84l-50.72-35.86c-27.66-19.98-67.11-49.18-88.11-65.06   c-79.4-60.45-141.9-100.41-197.74-126.02c-32.27-14.86-61.99-27.15-66.6-27.15s-42.01-15.88-82.99-35.35   c-108.09-51.23-159.83-68.65-270.49-92.21c-154.2-32.79-207.48-32.79-334.52-1.03c-69.16,17.42-87.09,25.62-138.32,64.55   c-39.45,29.2-66.08,61.99-66.08,79.92c0,5.63-2.05,14.86-5.12,19.98c-4.61,8.71-1.54,9.22,39.96,11.27   c37.4,1.02,49.18,4.1,72.74,16.39c74.79,39.45,94.26,48.15,119.36,53.79c18.95,4.1,32.27,10.76,42.52,21.52   c8.2,8.71,37.4,30.74,64.55,48.67c27.15,18.44,56.35,41.5,64.04,51.23c39.45,48.67,51.74,60.45,77.87,73.77   c37.4,18.96,143.95,131.14,159.83,167.52c6.15,14.34,25.1,39.96,45.59,60.96c19.47,19.98,36.88,43.03,38.93,51.23   c2.05,8.2,10.76,28.69,19.47,45.59c19.98,39.45,22.03,81.96,4.61,100.92c-5.64,6.66-14.34,20.49-18.44,30.74   c-4.61,10.25-14.34,22.03-22.54,26.13c-7.68,4.1-19.47,14.86-25.61,23.57c-6.66,8.2-27.15,27.15-46.11,41.49   c-19.47,13.83-39.45,32.27-45.08,40.98c-12.29,18.44-12.81,18.44-38.42,5.12c-11.27-5.63-26.64-10.25-34.84-10.25   c-32.79,0-130.63-46.62-171.62-81.45c-36.88-31.25-88.11-69.16-115.78-85.04c-16.39-9.73-42.52-30.74-57.38-46.11   c-15.37-15.88-44.06-41.49-63.52-56.35c-22.54-17.42-48.15-44.06-67.62-70.18c-17.42-23.56-55.33-69.67-85.04-103.48   c-64.55-73.26-82.48-101.95-103.48-165.47c-14.34-42.01-19.47-51.74-38.93-68.65c-12.29-10.76-25.61-19.47-29.71-19.98   c-3.59,0-18.44-10.25-32.27-23.05c-14.34-12.81-30.74-24.59-36.88-26.13c-6.15-1.54-30.74-21.52-54.81-44.57   c-73.77-71.72-305.32-219.77-442.1-282.78c-42.01-19.47-124.49-43.54-149.59-43.54c-30.22,0-46.11,31.76-58.91,117.83   c-9.22,64.04-9.22,66.6,0.51,132.17c5.12,36.37,11.27,92.72,13.32,125c2.05,36.37,8.2,72.74,15.37,98.36   c6.66,22.54,12.29,48.15,12.29,56.86c0,18.96,12.29,71.21,41.5,173.67c11.27,39.45,21.52,87.6,23.05,107.58   c2.56,28.17,6.66,41.49,18.44,59.42c8.2,12.29,15.88,28.69,17.42,35.86c8.71,44.06,21,80.94,43.03,128.07   c13.83,29.71,29.2,68.65,33.81,86.58c7.68,26.13,10.76,31.76,18.44,29.71c7.17-2.05,9.22,0.51,9.22,9.73   c0,7.17,8.2,28.18,17.93,46.62c9.73,18.44,17.93,39.45,17.93,46.11c0,7.17,3.07,11.78,7.68,11.78s7.68,4.61,7.68,11.78   c0,6.66,5.64,19.47,12.81,29.2c7.17,9.73,18.44,35.86,25.61,58.91c6.66,23.05,17.42,46.11,23.05,51.23   c5.64,5.12,11.78,18.44,13.32,29.2c2.05,10.76,6.15,19.47,9.22,19.47s11.78,13.32,18.95,29.71c7.17,15.88,39.96,72.23,72.74,125   c33.3,52.77,61.99,101.43,64.55,108.09c8.71,22.03,61.99,105.02,69.67,108.09c4.1,1.54,7.68,6.66,7.68,11.27   c0,4.61,3.59,11.27,7.68,14.34c4.61,3.07,11.27,20.49,15.88,38.93c4.1,18.96,12.81,38.42,19.47,46.11   c6.66,7.17,13.32,19.47,15.37,27.15c2.56,11.78,0.51,16.91-12.29,28.18c-8.71,7.69-23.05,21-32.79,30.22   c-19.47,18.44-35.86,23.57-110.14,34.84c-30.22,4.1-57.38,11.27-61.99,15.37C3773.21,21296.88,3764.5,21293.81,3746.57,21268.71z    M8057.45,20157.56c5.12-4.1,7.17-7.68,4.1-7.68c-2.56,0-9.73,3.59-15.37,7.68c-5.12,4.1-7.17,7.68-4.1,7.68   C8044.64,20165.24,8051.81,20161.66,8057.45,20157.56z M4898.7,20134.51c0-35.35-84.02-140.88-158.81-199.28   c-15.37-11.78-46.62-39.45-69.16-61.47c-48.15-46.62-252.04-200.81-297.13-224.38c-30.74-15.88-58.91-28.18-58.91-25.61   c0,1.02,12.81,17.93,28.18,37.4c15.88,19.47,37.4,50.2,48.67,68.65c18.44,30.22,90.67,110.14,122.95,136.27   c7.17,5.63,36.37,34.84,64.55,65.06c29.2,30.74,64.04,61.47,79.4,70.18c15.37,9.22,33.3,21.52,40.47,28.18   c17.93,16.9,80.94,58.91,87.6,58.91c3.07,0,20.49,10.25,38.42,23.05C4873.08,20145.78,4898.7,20153.97,4898.7,20134.51z    M7883.27,20116.07c9.73-23.05,9.22-116.8-1.02-185.96c-9.73-68.65-27.15-149.59-48.15-229.5l-16.91-63.01h-18.44   c-36.88,0-91.7,50.2-123.46,112.7c-16.39,32.79-36.88,94.77-36.88,112.7c0,9.73-2.05,20.49-4.1,23.05   c-6.66,8.2,1.54,17.93,18.44,22.54c10.25,2.56,14.86,7.17,15.37,14.86c1.54,28.69,186.98,222.84,203.38,212.6   C7874.05,20134.51,7879.17,20125.8,7883.27,20116.07z M2845.46,19972.11c13.32-13.83,32.79-41.49,44.06-62.5l20.49-37.4   l-10.76-18.96c-5.64-10.25-19.47-29.2-30.22-42.52c-10.76-12.81-22.54-31.25-26.13-40.98c-3.07-9.22-19.47-33.3-36.37-53.28   c-45.08-54.81-87.6-116.8-157.78-226.94c-34.84-54.81-79.4-121.92-99.38-149.07c-45.08-60.96-170.59-200.82-176.74-196.72   c-2.56,1.54-4.61,8.71-4.61,16.39c0,7.68-2.05,16.9-4.61,20.49c-2.05,3.59,0,29.2,5.64,58.91c14.34,75.82,19.47,94.77,32.27,113.22   c6.15,9.22,12.81,27.15,14.86,39.96s6.66,27.66,10.76,32.79c4.1,5.63,7.68,13.32,7.68,17.42c0,4.1,15.37,37.91,33.81,74.28   c18.44,36.88,38.42,82.99,44.06,102.46c12.29,45.08,39.45,94.77,94.77,176.22c24.08,34.84,50.2,77.36,57.89,94.26   c10.76,22.03,19.98,33.81,34.32,42.52c10.76,6.15,27.15,21,36.88,32.79c19.98,24.59,30.22,30.22,61.99,30.22   C2819.85,19996.19,2823.94,19994.14,2845.46,19972.11z M7509.81,19647.32c37.4-72.23,66.6-110.14,100.92-130.12   c30.74-17.93,78.38-32.79,105.53-33.3c34.32-0.51,37.91-4.1,30.22-31.25c-4.1-14.34-13.32-28.69-25.61-39.45   c-10.76-9.22-30.74-32.28-44.57-51.23c-32.79-45.08-52.77-64.04-94.77-91.7c-71.72-47.13-125-65.57-200.3-69.16   c-21.52-1.03-26.64,1.02-36.88,12.81c-6.66,7.68-14.86,23.56-18.44,35.86c-8.2,29.2-8.2,161.37,0.51,203.38   c10.76,52.25,35.35,124.49,51.23,149.08c7.68,12.81,15.88,28.69,17.42,35.86c3.59,13.32,65.06,76.33,74.28,76.33   C7472.42,19714.43,7490.35,19684.21,7509.81,19647.32z"/>
	<path class="st0" d="M7599.98,18579.72c-105.53-28.69-160.86-94.26-160.86-192.11c0-98.87,45.08-137.8,220.79-186.98   c126.53-35.35,152.15-50.72,163.93-95.29c7.68-27.15,1.54-53.79-16.39-74.28c-50.2-56.87-210.04-44.06-320.18,26.64   c-14.86,9.73-28.69,17.42-29.71,17.42c-1.54,0-11.78-17.93-22.54-40.47c-24.08-47.13-25.61-44.06,35.35-76.33   c124.49-66.6,288.42-72.74,384.21-15.37c98.36,59.42,111.17,215.16,23.05,281.76c-33.3,25.1-70.18,39.45-174.69,68.13   c-123.46,34.32-146.51,47.13-156.25,88.11c-10.25,45.08,8.71,83.5,51.23,102.97c60.45,27.66,173.66,12.81,239.75-32.27l26.13-17.42   l22.03,38.93l21.52,39.45l-12.29,9.73c-18.95,15.88-90.67,47.64-128.07,56.86C7725.49,18589.46,7636.86,18589.46,7599.98,18579.72z   "/>
	<path class="st0" d="M6399.69,18243.66v-338.62l150.1,2.56c165.98,2.56,181.86,4.61,249.48,37.91   c52.77,25.62,103.99,76.84,129.61,129.61c29.2,58.91,36.37,94.77,36.37,171.62c0,75.3-10.76,123.97-39.45,179.3   c-22.54,43.03-84.01,103.48-127.05,124.49c-58.91,28.69-82.99,31.76-248.97,31.76h-150.1V18243.66z M6687.6,18484.44   c92.72-19.47,154.2-92.21,167.52-197.74c14.86-120.39-39.96-232.58-131.66-268.44c-25.61-10.24-40.98-11.78-122.44-13.83   l-93.75-2.05v243.85v243.85h76.84C6626.12,18490.07,6672.74,18487.51,6687.6,18484.44z"/>
	<path class="st0" d="M7142.51,18244.18v-338.11h51.23h51.23v338.11v338.11h-51.23h-51.23V18244.18z"/>
	<path class="st0" d="M8105.6,18244.18v-338.11h51.23h51.23v338.11v338.11h-51.23h-51.23V18244.18z"/>
	<path class="st0" d="M8428.34,18244.18v-338.11h51.23h51.23v235.65c0,188.52,1.54,235.65,6.66,235.65   c3.59,0,90.16-106.04,192.62-235.65l186.47-235.65h43.03h42.52v338.11v338.11h-51.23h-51.23v-238.21   c0-204.4-1.02-238.21-7.17-238.21c-4.1,0-91.19,107.07-193.64,238.21l-185.96,237.7l-42.01,0.51h-42.52V18244.18z"/>
	<path class="st0" d="M5682.49,18379.93v-120.39h-122.95H5436.6v-51.23v-51.23h122.95h122.95v-122.95v-122.95h51.23h51.23v122.95   v122.95h122.95h122.95v51.23v51.23H5907.9h-122.95v120.39v120.39h-51.23h-51.23V18379.93z"/>
	<path class="st0" d="M6427.36,17714.47c-21-21-22.54-33.81-5.12-33.81c8.2,0,13.83,3.59,15.88,10.25   c4.1,12.29,30.74,13.83,45.59,2.56c11.78-8.71,35.35-9.73,49.69-2.56c8.2,4.61,25.1,29.71,25.1,38.42c0,7.17-24.08,1.02-29.71-7.69   c-3.59-5.63-11.27-10.24-17.93-10.24s-20.49,4.61-31.76,10.24C6451.95,17735.48,6447.85,17734.96,6427.36,17714.47z"/>
	<path class="st0" d="M5912.51,17643.27c-47.13-13.32-71.21-42.52-71.21-87.09c0-39.45,23.05-58.4,96.82-80.43   c51.74-15.37,61.99-22.54,61.99-44.06c0-12.81-3.59-19.47-12.81-25.61c-18.44-12.29-69.16-7.68-106.04,9.22l-29.2,13.32   l-10.76-18.44l-11.27-18.44l11.27-9.22c21.52-17.42,79.4-31.25,120.39-28.69c43.03,3.07,65.57,13.83,83.5,40.47   c10.25,14.34,11.78,22.03,10.25,47.64c-2.05,26.64-4.61,32.27-20.49,46.62c-17.42,15.88-34.32,23.05-97.33,40.98   c-35.35,9.73-49.69,26.13-42.01,47.64c2.56,7.68,10.76,16.9,17.42,20.49c16.91,8.71,59.42,4.61,87.6-8.71   c11.78-6.15,22.54-10.76,23.56-10.76c0.51,0,6.15,8.71,11.27,19.98l10.25,19.98l-29.2,12.81   C5979.62,17647.36,5942.73,17651.46,5912.51,17643.27z"/>
	<path class="st0" d="M6776.22,17645.31c-47.64-13.32-81.45-42.01-102.46-88.62c-52.77-117.83,69.67-245.38,184.42-191.59   c29.2,13.32,60.45,45.59,74.79,76.84c14.34,31.25,13.32,85.04-2.56,118.85C6902.24,17621.75,6832.06,17660.17,6776.22,17645.31z    M6841.79,17585.38c22.54-11.78,40.98-44.57,43.54-77.87c1.54-24.59-0.51-33.81-12.81-56.86c-37.4-71.21-125.51-59.94-148.05,18.96   c-9.22,31.76-6.66,55.33,9.73,84.53C6756.76,17594.6,6799.27,17606.89,6841.79,17585.38z"/>
	<path class="st0" d="M8130.19,17642.75c-67.11-17.93-111.17-82.48-105.53-153.69c6.15-75.31,66.08-136.27,134.73-136.27   c25.1,0,64.55,13.83,71.21,25.1c7.17,11.78,18.44,5.63,18.44-9.73c0-14.34,1.03-15.37,20.49-15.37h20.49v74.28v74.28h-51.23h-51.23   v-17.93v-17.93h30.74c29.71,0,30.74-0.51,30.74-12.81c0-26.64-43.03-53.79-84.53-53.79c-28.69,0-49.18,9.73-66.08,31.76   c-39.45,52.25-24.08,136.78,29.2,162.39c12.29,6.15,26.64,10.76,32.27,10.76c22.03,0,51.23-12.29,66.6-27.66l16.39-16.39   l16.91,13.83c16.39,13.32,16.91,13.83,8.2,27.15c-13.32,19.98-44.06,37.91-74.79,44.06   C8160.42,17650.95,8160.42,17650.95,8130.19,17642.75z"/>
	<path class="st0" d="M5431.47,17498.8v-147.03l73.26,2.05c66.6,2.05,74.79,3.07,98.87,15.88c52.77,27.15,76.84,73.77,72.74,141.39   c-2.56,43.54-13.83,70.7-40.47,96.82c-30.22,29.71-45.59,33.81-128.58,35.86l-75.82,2.05V17498.8z M5580.55,17581.79   c26.13-17.42,41.5-50.71,39.45-86.06c-4.1-60.45-37.91-91.7-99.9-91.7h-32.27v94.77v94.77h37.91   C5555.96,17593.57,5566.21,17591.53,5580.55,17581.79z"/>
	<path class="st0" d="M5728.6,17498.8v-146h28.18h28.18v146v146h-28.18h-28.18V17498.8z"/>
	<path class="st0" d="M6107.69,17498.8v-146h99.9h99.9v23.05v23.05h-74.28h-74.28v40.98v40.98h61.47h61.47v20.49v20.49h-61.47   h-61.47v38.42v38.42h71.72h71.72v23.05v23.05h-97.33h-97.33V17498.8z"/>
	<path class="st0" d="M6358.71,17499.31v-146.51h25.61h25.61v92.72c0,76.33,1.02,92.21,7.17,90.68c3.59-1.03,39.45-42.52,79.4-92.21   c71.72-91.19,72.23-91.19,92.72-91.19h20.49v146v146h-25.61h-25.61v-92.72c0-79.92-1.02-92.21-7.68-90.67   c-4.61,1.03-39.45,42.01-78.38,91.19c-69.67,88.62-70.7,89.65-92.21,91.19l-21.52,1.54V17499.31z"/>
	<path class="st0" d="M7096.4,17498.8v-146h25.61h25.61v146v146h-25.61h-25.61V17498.8z"/>
	<path class="st0" d="M7214.23,17498.8v-146h25.61h25.61v92.21c0,73.77,1.54,92.21,6.66,92.21c4.1,0,39.96-41.49,79.92-92.21   c72.23-91.7,73.26-92.21,93.24-92.21h19.98v146v146h-25.61h-25.61v-92.21c0-70.18-1.54-92.21-6.15-92.21   c-3.59,0-38.93,41.49-78.38,92.21l-71.72,92.21h-21.52h-22.03V17498.8z"/>
	<path class="st0" d="M7511.35,17621.75v-23.05h46.11h46.11v-122.95v-122.95h25.61h25.61v122.95v122.95h48.67h48.67v23.05v23.05   h-120.39h-120.39V17621.75z"/>
	<path class="st0" d="M7793.11,17498.8v-146h102.46h102.46v23.05v23.05h-74.28h-74.28v40.98v40.98h61.47h61.47v20.49v20.49h-61.47   h-61.47v38.42v38.42h71.72h71.72v23.05v23.05H7893h-99.9V17498.8z"/>
	<path class="st0" d="M8346.38,17498.8v-146h25.61h25.61v51.23v51.74l31.76-1.54l31.76-1.54l30.23-49.69l29.71-50.2h28.69   c28.18,0,28.18,0,21,11.78c-34.32,53.79-55.33,90.16-55.33,95.29c0,3.59,7.17,12.29,15.88,19.98   c16.91,13.83,34.83,47.64,35.35,65.06c0,35.35-28.18,79.92-59.94,92.72c-11.27,5.12-39.45,7.17-88.62,7.17h-71.72V17498.8z    M8494.43,17580.25c14.34-17.93,14.34-47.64,0.51-62.5c-9.22-9.73-15.88-11.27-51.23-11.27h-40.98v43.54v43.54h40.47   C8481.11,17593.57,8484.69,17592.55,8494.43,17580.25z"/>
	<path class="st0" d="M8702.93,17640.71c-3.07-5.12-105.53-282.78-105.53-285.86c0-1.03,11.27-2.05,25.1-2.05h25.1l12.81,37.4   l12.29,36.88h57.89h57.89l12.81-36.88l12.29-37.4h25.61c18.44,0,25.1,2.05,23.57,6.66c-1.54,3.07-25.1,69.16-53.28,145.49   l-50.72,139.85h-26.64C8717.78,17644.8,8704.46,17642.75,8702.93,17640.71z M8763.89,17480.36c3.07-9.22,0.51-9.73-32.79-9.73   c-19.98,0-36.37,0.51-36.37,1.54c0,1.54,27.15,78.38,33.81,95.8C8731.1,17574.11,8745.45,17539.27,8763.89,17480.36z"/>
	<path class="st0" d="M8904.77,17498.8v-146h102.46h102.46v23.05v23.05h-76.84H8956v122.95v122.95h-25.61h-25.61V17498.8z"/>
</g>
</svg>