<svg version="1.1" id="Capa_1" xmlns="http://www.w3.org/2000/svg" xmlns:xlink="http://www.w3.org/1999/xlink" x="0px" y="0px" style="enable-background:new 0 0 1080 1080;" xml:space="preserve" viewBox="93.87 342.88 911.13 340.15">
<style type="text/css">
	.st0{fill-rule:evenodd;clip-rule:evenodd;fill:#FFFFFF;}
	.st1{fill:#FFFFFF;}
</style>
<path class="st0" d="M1004.06,488.71c1.16,0.59,1.24,2.03,0.25,4.32c-1.43,1.67-2.95,3.24-4.57,4.69c-1.61,1.45-3.39,2.76-5.32,3.9  c-0.15,0-0.2,0.04-0.17,0.13c-1.29,0.79-2.65,1.48-4.08,2.05c-11.64,3.8-17.55,1.59-17.74-6.64c-4.76,3.7-7.93,5.97-9.5,6.81  c-3.9,2.07-8.08,3-12.55,2.79c-3.28-0.17-5.51-1.08-6.7-2.73c-1.19-1.65-1.07-3.88,0.34-6.7c2.18-4.45,5.26-8.41,9.24-11.89  c4.65-3.88,9.79-6.99,15.43-9.33c3.01-1.37,6.18-1.9,9.52-1.6c3.28,0.17,5.26,1.86,5.95,5.07c0.29,0.97,0.02,1.83-0.81,2.57  c-1.11,0.88-2.37,1.08-3.78,0.6c-0.1,0-0.23-0.02-0.39-0.07c-0.16-0.04-0.29-0.11-0.37-0.2c-1.43-1.76-2.85-2.49-4.27-2.2  c-1.42,0.29-2.95,0.87-4.6,1.76c-7.48,3.97-13.08,9.5-16.79,16.59c-0.22,0.31-0.35,0.65-0.4,1.02c-0.05,0.37,0.07,0.67,0.35,0.89  c0.88,0.26,1.86,0.21,2.93-0.17c1.07-0.38,2.14-0.93,3.21-1.65c1.07-0.73,1.98-1.33,2.71-1.82l0.21-0.2  c3.56-2.69,7.04-5.44,10.45-8.26c1.52-1.45,3.41-2.27,5.67-2.45c3.21-0.01,4.53,1.29,3.95,3.89c-0.3,0.97-0.62,1.94-0.97,2.91  c-1.31,4.18-1.39,6.63-0.23,7.36c1.16,0.72,2.95,0.72,5.36-0.01c2.41-0.73,4.83-2.12,7.26-4.17c2.43-2.05,4.47-3.92,6.13-5.62  C1001.49,488.67,1002.9,488.12,1004.06,488.71 M621.23,507.63c9.67-2.26,22.82-6.47,39.46-12.63c16.64-6.16,32.63-12.68,47.97-19.54  c15.34-6.86,25.8-12.52,31.39-16.97l-2.41,0c-33.66,6.08-66.99,13.3-99.99,21.67c-2.91,0.75-4.92,2.34-6,4.76  c-2.02,3.87-4.03,7.7-6.04,11.49c-1.51,2.82-3.03,5.68-4.56,8.59c-0.18,0.4-0.3,0.84-0.35,1.32  C620.66,506.79,620.83,507.23,621.23,507.63z M607.59,510.22c0.43-0.88,1.17-2.14,2.23-3.76c1.5-2.6,3.1-5.47,4.8-8.62  c1.7-3.15,2.93-5.91,3.69-8.29c0.76-2.38,0.39-3.67-1.1-3.89c-0.92,0.13-1.84,0.33-2.76,0.6c-0.19,0-0.44,0.05-0.75,0.13  c-3.41,0.97-6.86,1.9-10.36,2.79c-8.19,2.17-16.46,4.47-24.79,6.9c-0.35,0.09-0.77,0.22-1.23,0.4  c-14.82,4.11-29.43,8.84-43.81,14.19c-7.26,2.69-14.16,5.98-20.7,9.86c-2.46,1.28-4.51,2.98-6.16,5.09  c-0.62,0.88-0.81,1.68-0.54,2.41c0.26,0.73,0.93,1.29,2.01,1.68c2.21,0.66,4.48,0.98,6.81,0.98c2.04,0,4.1-0.09,6.17-0.27l0.15,0  c10.61-0.98,21.04-2.56,31.27-4.73c16.32-3.28,32.45-7.11,48.38-11.49c0.29-0.13,0.48-0.2,0.58-0.2c1.26-0.27,2.41-0.66,3.47-1.19  C606.01,512.27,606.89,511.41,607.59,510.22z M890.63,439.37c1.16,0.22,2.07,0.66,2.75,1.32c0.67,0.66,0.82,1.3,0.43,1.91  c-0.45,0.57-0.95,0.92-1.48,1.06c-0.53,0.13-1.11,0.15-1.73,0.07c-0.78,0-1.6-0.04-2.46-0.13c-11.55-0.29-26.88,0.34-45.98,1.89  c-19.1,1.55-34.49,3.06-46.18,4.53c-9.02,1.07-18.03,2.23-27.03,3.47c-0.19,0-0.46,0.07-0.8,0.2c-3.75,0.49-7.19,1.75-10.33,3.78  c-11.47,7.06-23.33,13.45-35.59,19.19c-12.26,5.74-24.76,11.08-37.5,16.03c-20.63,8.26-41.7,15.46-63.21,21.61  c-4.4,1.06-7.62,3.49-9.68,7.27c-9.68,17.22-19.76,34.06-30.22,50.52c-9.28,14.66-18.2,29.5-26.76,44.51  c-0.01,0.09-0.08,0.18-0.19,0.26c-0.32,0.79-0.75,1.43-1.28,1.92c-0.91,0.66-1.93,0.9-3.07,0.73c-0.66,0.18-1.29,0.18-1.9,0  c-1.31-0.48-1.97-1.36-1.99-2.64c0.19-2.11,0.96-4.09,2.32-5.94c0.11-0.09,0.16-0.2,0.16-0.33c8.65-13.91,17.17-27.83,25.56-41.74  c8.39-13.91,16.49-28.02,24.3-42.33c0.65-1.19,1.29-2.4,1.92-3.63c0.24-0.62,0.53-1.25,0.85-1.91c-0.75-0.17-1.44-0.33-2.08-0.46  c-1.18,0.22-2.37,0.53-3.57,0.93c-0.4,0.09-0.81,0.22-1.23,0.4c-15.01,3.89-30.17,7.22-45.48,9.97  c-10.66,1.73-21.32,2.96-31.98,3.68c-0.55,0.09-1.04,0.13-1.48,0.13c-1.08,0.09-2.16,0.14-3.23,0.14c-4.13,0.01-8.13-0.56-11.99-1.7  c-2.96-0.96-4.73-2.49-5.32-4.58c-0.58-2.09,0.13-4.34,2.14-6.77c2.68-2.82,5.85-5.13,9.52-6.94c8.32-4.68,17.05-8.52,26.17-11.52  c24.34-8.35,49.01-15.69,74-22.02c1.35-0.4,2.77-0.75,4.25-1.06c3.23-0.58,6.24-1.43,9.03-2.55c2.79-1.13,4.9-3.08,6.33-5.85  c5.3-10.96,10.42-21.93,15.37-32.92c4.95-10.98,9.55-22.15,13.82-33.51c-0.03-0.09,0.01-0.22,0.14-0.4c0.64-2.07,1.5-4.01,2.59-5.81  c0.44-0.62,1.01-1.05,1.72-1.29c0.71-0.24,1.43-0.3,2.16-0.17c0.53-0.13,1.12-0.13,1.75,0c1.6,0.35,2.52,1.32,2.75,2.9  c-0.03,2.99-0.66,5.9-1.88,8.71c-0.01,0.09-0.06,0.22-0.13,0.4c-5.35,14.53-11.32,28.81-17.93,42.85c-1.73,3.87-3.52,7.7-5.38,11.49  c-0.68,1.37-1.33,2.77-1.98,4.23c-0.83,1.72-1.18,2.89-1.05,3.53c0.13,0.64,0.63,0.93,1.48,0.89c0.86-0.05,1.89-0.27,3.1-0.66  c0.4-0.09,0.83-0.18,1.28-0.27c4.72-1.11,9.43-2.19,14.12-3.26c8.57-1.95,17.2-3.9,25.87-5.85c21.26-4.56,42.67-8.47,64.21-11.71  c3.81-0.58,7.17-1.92,10.08-4.04c6.13-4.19,12.21-9.11,18.24-14.78c6.03-5.66,11.03-11.76,14.98-18.3  c3.96-6.54,5.77-13.25,5.42-20.13c-0.34-6.88-3.8-13.71-10.37-20.47c-4.28-4.04-9.12-7.42-14.53-10.14  c-11.45-5.57-25.21-9.65-41.28-12.24c-16.07-2.59-33.31-3.95-51.74-4.08c-18.42-0.13-36.88,0.75-55.36,2.63  c-18.48,1.88-35.78,4.47-51.9,7.77c-16.12,3.3-29.94,7.05-41.47,11.25c-10.02,3.58-19.54,7.99-28.56,13.24  c-3.67,2.03-7.12,4.26-10.35,6.68c-3.23,2.42-6.12,5.2-8.68,8.33c-0.97,1.37-2.26,2.09-3.88,2.18l-1.46,0  c-0.63,0-1.23-0.07-1.81-0.23c-0.57-0.15-1.03-0.47-1.36-0.95c-0.2-0.4-0.31-0.8-0.3-1.22c0-0.42,0.07-0.78,0.19-1.09  c0.81-1.76,1.92-3.31,3.34-4.66c1.41-1.34,2.87-2.66,4.36-3.93c3.92-3,8-5.71,12.22-8.14c4.22-2.43,8.54-4.7,12.96-6.82  c11.36-5.47,25.89-10.4,43.57-14.78c17.69-4.38,37.1-7.92,58.26-10.62c21.15-2.7,42.46-4.18,63.91-4.46  c21.45-0.28,41.54,0.98,60.27,3.76c18.72,2.79,34.64,7.47,47.76,14.05c5.87,2.89,11.13,6.6,15.8,11.13  c6.49,6.68,10.16,13.28,11.02,19.81c0.86,6.53-0.17,12.87-3.09,19.01c-2.92,6.14-6.94,12-12.06,17.57  c-5.12,5.57-10.37,10.78-15.75,15.63c-0.64,0.48-1.27,1.09-1.91,1.82c-0.64,0.73-0.91,1.33-0.82,1.82c0.1,0.48,0.89,0.64,2.37,0.46  c17.98-2.67,35.9-4.69,53.78-6.06c17.88-1.37,35.87-2.31,53.97-2.82l1.61,0C887.58,439.11,889.1,439.2,890.63,439.37z   M156.35,493.14c-1.22,1.04-2.26,2.38-3.11,4.01c-11.34,20.65-17.34,31.55-18.01,32.69c-0.71,1.28-1.48,2.6-2.3,3.96  c-0.2,0.35-0.35,0.73-0.43,1.12c-1.53,2.64-3.01,5.31-4.43,7.99c-8.96,16.2-17.51,32.47-25.65,48.8c-0.01,0.22-0.08,0.42-0.2,0.59  c-0.09,0.4-0.29,0.79-0.62,1.19c-1.07,1.37-2.4,1.94-3.99,1.72c-0.45,0.09-0.89,0.09-1.31,0c-0.9-0.17-1.57-0.5-2.03-0.99  c-0.46-0.48-0.52-1.17-0.19-2.05c1.16-3.21,2.55-6.4,4.17-9.57c5.68-10.74,11.32-21.55,16.95-32.42c3.38-6.47,6.74-12.97,10.1-19.48  c1.5-2.6,6.09-10.84,13.75-24.73c3.33-6.04,6.06-11,8.19-14.87c-1.71-0.36-3.41-0.72-5.12-1.07c-1.6-0.35-3.22-0.63-4.86-0.85  c-0.29,0-0.6-0.04-0.93-0.13c-1.07,0-0.9-1.28,0.52-3.86c1.41-2.58,3.14-3.38,5.18-2.42c1.53,0.74,4.27,1.67,8.24,2.82  c1.06-1.95,1.8-3.31,2.21-4.08c10.09-18.4,20.68-36.63,31.79-54.68c7.11-11.8,14.14-23.67,21.09-35.6c0.79-1.45,1.78-2.75,2.98-3.9  c0.97-0.88,2.12-1.41,3.46-1.59c0.45-0.22,0.89-0.27,1.33-0.13c1.07-0.13,1.9,0.12,2.49,0.76c0.59,0.64,0.7,1.4,0.32,2.28  c-0.27,0.66-0.59,1.34-0.94,2.05c-1.91,4.14-4.08,8.25-6.5,12.35c-8.01,13.83-16.12,27.63-24.34,41.41  c-4.22,7.05-8.38,14.11-12.48,21.2c-2.06,3.39-4.09,6.82-6.07,10.3c-0.71,1.28-1.44,2.58-2.18,3.9l-0.42,0.59  c-0.29,0.48-0.53,0.97-0.7,1.45c-0.17,0.48-0.16,0.92,0.05,1.32c0.35,0.4,0.79,0.64,1.31,0.72l1.65-0.27  c0.19-0.13,0.39-0.24,0.6-0.33l17.73-4.65c16.52-4.38,32.95-9,49.3-13.87c16.35-4.86,32.58-10.26,48.68-16.18  c10.02-3.71,19.94-7.63,29.77-11.76c9.83-4.13,19.49-8.71,28.98-13.74c7.88-4.19,15.33-9.11,22.34-14.75  c3.48-2.78,6.51-5.93,9.11-9.45c5.24-7.05,5.6-13.62,1.09-19.73c-2.76-3.65-6.28-6.63-10.56-8.96c-6.36-3.77-13.29-6.71-20.79-8.81  c-18.3-5.03-37.35-8.21-57.15-9.54c-11.58-0.73-23.35-1.13-35.3-1.2c-6.42,0.01-12.89,0.15-19.4,0.43  c-9.72,0.41-19.49,1.21-29.32,2.39c-9.83,1.18-19.61,3.19-29.34,6.02c-6.19,1.81-12.24,4.13-18.13,6.96  c-4.54,1.94-8.58,4.52-12.12,7.74c-0.98,0.97-2.13,1.7-3.44,2.18c-0.62,0.26-1.2,0.35-1.72,0.27c-1.08,0.09-1.98-0.2-2.67-0.85  c-0.97-0.97-0.97-2.02-0.01-3.17c1.51-1.85,3.25-3.46,5.24-4.83c1.99-1.37,4.06-2.58,6.22-3.64c9.83-5.16,20.06-8.96,30.68-11.4  c12.97-3.01,25.97-4.86,38.99-5.54c12.59-0.9,25.22-1.4,37.88-1.51l7.51-0.01c12.08,0.16,24.06,0.69,35.93,1.59  c11.87,0.91,23.59,2.51,35.17,4.83c5.94,1.22,11.79,2.68,17.57,4.36c5.78,1.68,11.34,3.8,16.68,6.34c5.89,2.59,11,5.97,15.33,10.14  c9.57,9.53,9.01,20.11-1.67,31.74c-4.97,5.16-10.53,9.67-16.68,13.55c-7.69,5.03-15.62,9.56-23.78,13.6  c-8.16,4.04-16.48,7.76-24.97,11.16c-17.51,7.28-35.22,13.82-53.12,19.61c-17.91,5.79-35.9,11.12-53.98,15.99  c-13.64,3.75-27.27,7.35-40.89,10.81c9.28,2.32,20.74,5.14,34.36,8.47c29.75,7.04,65.3,16,106.66,26.89  c57.27,14.21,88.22,23.12,92.84,26.74c4.62,3.62-23.08-2.64-83.11-18.77c-41.12-11.28-82.6-21.93-124.43-31.94  C179.73,498.19,168.06,495.62,156.35,493.14z M880.41,514.61c-0.04-0.22,0.03-0.42,0.2-0.59c0.3-0.48,0.46-1.01,0.5-1.58  c0.04-0.57-0.11-1.17-0.45-1.78l-0.8,0c-0.73,0.13-1.35,0.29-1.86,0.46c-1.06,0.4-2.12,0.84-3.2,1.32  c-8.61,3.58-17.2,7.26-25.77,11.06c-8.57,3.8-17,7.83-25.28,12.11c-5.01,2.6-9.74,5.65-14.2,9.13c-3.62,2.91-5.36,5.45-5.23,7.63  c0.13,2.18,2.22,4.14,6.28,5.9c9.26,4.34,19.26,6.11,29.99,5.3c7.28-0.67,13.21-3.17,17.81-7.48c4.59-4.32,8.35-9.48,11.28-15.49  c2.93-6.01,5.49-12.01,7.69-17.99C878.3,519.78,879.32,517.12,880.41,514.61z M829.55,486.65c-0.27,0.31-0.46,0.65-0.58,1.02  c-0.12,0.37,0.03,0.72,0.44,1.02c1.71,0.88,3.56,1.19,5.56,0.95c2-0.25,3.68-0.93,5.06-2.05c1.38-1.12,1.99-2.5,1.83-4.13  c-0.13-0.57-0.47-0.93-1.01-1.09c-0.55-0.15-1.1-0.18-1.64-0.1C835.64,482.85,832.42,484.31,829.55,486.65z M908.2,498.05  c-2.03,1.12-4.36,2.32-7,3.59c-2.58,0.97-4.46,1.74-5.62,2.32c-1.16,0.57-2.01,1.3-2.57,2.18c-0.55,0.88-1.14,2.25-1.77,4.09  c-0.58,1.36-1.32,3.19-2.21,5.48c-1.17,2.82-2.36,5.72-3.56,8.72c-2.15,6.12-4.72,12.16-7.72,18.12  c-2.99,5.97-6.83,11.17-11.52,15.62c-4.69,4.45-10.71,7.41-18.06,8.87c-7.42,1.29-14.58,1.5-21.47,0.63  c-6.89-0.87-13.65-2.6-20.27-5.18c-2.67-1.1-5.07-2.54-7.2-4.34c-3.54-3.29-3.79-6.99-0.74-11.08c1.63-2.03,3.53-3.85,5.71-5.49  c4.26-3.13,8.75-6,13.46-8.6c8.72-4.76,17.65-9.13,26.79-13.11c9.14-3.97,18.35-7.81,27.63-11.52c0.62-0.27,1.34-0.55,2.14-0.86  c2.55-1.06,5.15-2.12,7.79-3.18c1.9-0.62,3.16-1.74,3.78-3.37c0.21-0.57,0.27-1.1,0.18-1.58c-0.12-0.31-0.31-0.48-0.57-0.53  c-0.26-0.04-0.55,0.02-0.87,0.2c-0.93,0.49-1.9,1.04-2.92,1.65c-0.53,0.26-1.1,0.6-1.72,0.99c-3.39,1.76-6.88,2.54-10.47,2.33  c-5.69,0.01-8.58-2.3-8.65-6.92c0,0,0-0.01,0-0.02c-0.05,0.05-0.11,0.1-0.17,0.15c-2.85,2.51-6.15,4.66-9.89,6.45  c-3.75,1.79-6.9,2.96-9.45,3.51c-2.55,0.55-5.15,0.88-7.79,0.97c-4.31,0.18-8.26-0.34-11.86-1.57c-5.86-2.15-7.86-6.26-5.98-12.33  c1.72-5.24,5.2-9.33,10.43-12.29c5.23-2.96,10.61-4.39,16.14-4.31l0.15,0c1.43-0.09,2.75,0,3.97,0.26c2.18,0.7,3.54,1.84,4.09,3.42  c0.55,1.58,0.14,3.34-1.23,5.28c-3.13,4.27-7.37,6.65-12.72,7.15c-3.53,0.31-6.94,0.16-10.25-0.45c-0.67-0.09-1.24,0.07-1.71,0.46  c-0.48,0.4-0.77,0.88-0.88,1.45c-0.98,3.78,0.29,6.2,3.82,7.25c4.38,1.36,8.93,1.35,13.65-0.02c5.47-1.55,10.67-4.46,15.6-8.73  c2.1-1.83,3.83-3.24,5.17-4.23c0.33-1.07,0.73-2.13,1.2-3.17c1.55-3.39,3.76-6.58,6.61-9.58c0.27-0.31,0.67-0.56,1.2-0.76  c0.53-0.2,1.07-0.34,1.62-0.43c0.1,0,0.23-0.04,0.39-0.13c1.08-0.09,1.91,0.15,2.48,0.72c0.57,0.57,0.68,1.3,0.35,2.18  c-0.63,1.23-1.28,2.49-1.94,3.76l-1.62,2.9c-2.15,3.79-3.14,7.75-2.96,11.88c0.06,0.88,0.47,1.52,1.23,1.91  c0.76,0.39,1.63,0.39,2.59,0c2.89-1.06,5.41-2.56,7.56-4.5c5.81-4.76,10.59-10.24,14.37-16.45c0.58-0.88,1.22-1.63,1.92-2.25  c0.7-0.62,1.65-0.97,2.83-1.06c1.5-0.13,2.66,0.16,3.45,0.88c0.8,0.72,1.02,1.68,0.66,2.87c-1.4,3.96-2.87,7.88-4.4,11.75  c-0.07,0.31-0.2,0.59-0.39,0.86c-0.38,0.88-0.75,1.81-1.09,2.77c-0.35,0.97-0.52,1.82-0.53,2.54c0,0.73,0.33,1.09,1.02,1.09  c2.68-0.49,6.59-2.43,11.75-5.82c1.24-0.82,2.34-1.5,3.32-2.05c2.19-3.58,4.39-7.17,6.61-10.76c0.06-0.09,0.1-0.18,0.11-0.26  c0.67-1.14,1.44-2.2,2.32-3.17c0.98-0.97,2.1-1.37,3.36-1.19c1.26,0.17,2.1,0.85,2.52,2.04c0.51,1.54,0.97,2.41,1.36,2.61  c0.39,0.2,1.27,0.05,2.64-0.43c2.92-0.97,5.77-1.66,8.53-2.06c2.76-0.4,5.04-0.31,6.83,0.29c1.79,0.59,2.45,2.4,1.97,5.44  c-0.48,3.04-2.08,5.02-4.8,5.95c-2.72,0.93-3.6-0.28-2.64-3.63c0.96-3.34-0.7-4.19-4.98-2.53c-4.28,1.66-7.83,3.74-10.63,6.25  c-4.27,3.97-8.08,8.24-11.42,12.82c-0.38,0.4-0.66,0.73-0.85,0.99c-0.95,1.28-1.94,2.49-2.94,3.63c-0.61,0.79-1.35,1.29-2.22,1.49  c-0.87,0.2-1.72,0.23-2.55,0.1c-0.86-0.09-1.51-0.37-1.94-0.85c-0.43-0.48-0.47-1.05-0.1-1.72c0.55-1.19,1.19-2.4,1.92-3.63  C907.1,499.87,907.65,498.96,908.2,498.05z M750.6,486.77c-0.27,0.31-0.46,0.65-0.58,1.02c-0.12,0.37,0.03,0.72,0.44,1.02  c1.71,0.88,3.56,1.19,5.56,0.95c2-0.24,3.68-0.93,5.06-2.05c1.38-1.12,1.99-2.5,1.83-4.13c-0.13-0.57-0.47-0.93-1.01-1.09  c-0.55-0.15-1.1-0.19-1.64-0.1C756.69,482.98,753.47,484.43,750.6,486.77z M773.36,502.99c-0.53,0.27-1.06,0.54-1.6,0.8  c-3.75,1.79-6.9,2.96-9.45,3.51c-2.56,0.55-5.15,0.88-7.79,0.97c-4.31,0.18-8.26-0.34-11.86-1.56c-5.86-2.15-7.86-6.26-5.98-12.33  c1.72-5.24,5.2-9.33,10.43-12.29c5.23-2.96,10.61-4.39,16.14-4.31h0.15c1.42-0.09,2.75,0,3.97,0.26c2.18,0.7,3.54,1.84,4.09,3.42  c0.55,1.58,0.14,3.34-1.23,5.28c-3.13,4.27-7.37,6.65-12.72,7.15c-3.53,0.31-6.94,0.16-10.25-0.45c-0.67-0.09-1.24,0.07-1.71,0.46  c-0.48,0.4-0.77,0.88-0.88,1.45c-0.98,3.78,0.29,6.2,3.82,7.25c4.38,1.36,8.93,1.35,13.64-0.02c5.47-1.55,10.67-4.46,15.6-8.73  c0.8-0.7,1.55-1.33,2.25-1.91c2.65-4.35,5.33-8.71,8.02-13.08c0.06-0.09,0.1-0.18,0.11-0.26c0.67-1.15,1.44-2.2,2.32-3.17  c0.98-0.97,2.1-1.37,3.36-1.19c1.26,0.17,2.1,0.85,2.52,2.04c0.51,1.54,0.96,2.41,1.36,2.6c0.39,0.2,1.27,0.05,2.64-0.43  c2.93-0.97,5.77-1.66,8.53-2.06c2.76-0.4,5.04-0.3,6.83,0.29c1.79,0.59,2.45,2.4,1.97,5.44c-0.48,3.04-2.08,5.02-4.8,5.95  c-2.72,0.93-3.6-0.28-2.64-3.62c0.96-3.35-0.7-4.19-4.98-2.53c-4.29,1.66-7.83,3.74-10.63,6.25c-4.27,3.97-8.08,8.24-11.42,12.82  c-0.38,0.4-0.66,0.73-0.85,0.99c-0.95,1.28-1.93,2.49-2.94,3.63c-0.61,0.79-1.35,1.29-2.22,1.49c-0.87,0.2-1.72,0.23-2.55,0.1  c-0.86-0.09-1.51-0.37-1.94-0.85c-0.44-0.48-0.47-1.06-0.1-1.72C772.81,504.08,773.08,503.54,773.36,502.99z M394.89,487.33  c-0.27,0.31-0.46,0.65-0.58,1.02c-0.12,0.37,0.03,0.71,0.44,1.02c1.71,0.88,3.56,1.19,5.56,0.95c2-0.25,3.68-0.93,5.06-2.05  c1.38-1.12,1.99-2.5,1.83-4.13c-0.13-0.57-0.47-0.93-1.02-1.09c-0.55-0.15-1.1-0.18-1.64-0.1  C400.98,483.54,397.76,484.99,394.89,487.33z M419.49,502.54c-1.1,0.64-2.25,1.25-3.44,1.82c-3.75,1.79-6.9,2.96-9.45,3.51  c-2.56,0.55-5.15,0.88-7.79,0.97c-4.31,0.18-8.26-0.34-11.86-1.56c-5.86-2.15-7.86-6.26-5.98-12.33c1.72-5.24,5.2-9.33,10.43-12.29  c5.23-2.96,10.61-4.39,16.14-4.31l0.15,0c1.42-0.09,2.75,0,3.97,0.26c2.17,0.7,3.54,1.84,4.09,3.42c0.55,1.58,0.14,3.34-1.23,5.28  c-3.13,4.27-7.37,6.65-12.72,7.15c-3.53,0.31-6.94,0.16-10.25-0.45c-0.67-0.09-1.24,0.07-1.71,0.46c-0.48,0.4-0.77,0.88-0.89,1.45  c-0.98,3.78,0.29,6.2,3.82,7.25c4.38,1.36,8.93,1.35,13.64-0.02c5.47-1.55,10.67-4.46,15.6-8.73c2.04-1.77,3.72-3.15,5.05-4.13  c1.51-2.42,3.03-4.83,4.54-7.23c0.98-1.45,2.45-2.36,4.4-2.71c0.82-0.13,1.58,0.1,2.28,0.69c0.7,0.59,1.05,1.26,1.05,2.01  c-0.11,0.7-0.44,1.54-0.98,2.51c-0.26,0.57-0.5,1.12-0.73,1.65c-0.23,0.53-0.3,0.97-0.21,1.32c0.09,0.35,0.4,0.46,0.93,0.33  c0.74-0.35,1.46-0.73,2.18-1.12c1.85-0.97,3.63-1.9,5.32-2.78c1.53-0.79,3.13-1.5,4.78-2.12c1.65-0.62,3.39-1.04,5.2-1.26  c2.9-0.18,4.96,0.41,6.18,1.77c1.22,1.36,1.36,3.25,0.42,5.67c-1.03,2.2-2.06,4.38-3.11,6.54c-1.34,2.03-1.58,3.57-0.72,4.62  c0.86,1.05,4.92-0.16,12.21-3.65l5.49-2.91c5.19-3,7.98-4.13,8.37-3.38c0.74,0.88-0.26,2.49-2.98,4.82  c-2.73,2.34-5.62,4.3-8.69,5.89c-3.07,1.59-6.65,3.18-10.74,4.77c-2.65,1.06-5.47,1.42-8.48,1.07c-3.01-0.35-4.51-1.99-4.51-4.94  c0-2.95,0.76-5.87,2.29-8.78c1.54-2.99,1.89-4.53,1.05-4.62c-0.84-0.09-2.61,0.64-5.3,2.19c-6.97,4.15-13.47,8.88-19.48,14.22  c-1.64,1.76-3.69,2.73-6.15,2.91c-1.27,0-2.25-0.36-2.95-1.08c-0.7-0.72-0.8-1.51-0.31-2.34  C418.77,503.72,419.13,503.13,419.49,502.54z M363.1,478.41c-3.76,2.43-7.02,5.38-9.78,8.86c-2.76,3.48-3.76,7.15-3.01,11.02  c0.4,2.24,1.39,3.82,2.98,4.75c1.58,0.92,3.47,0.59,5.66-1c2.11-1.81,4.25-4.08,6.43-6.81c2.18-2.73,3.92-5.64,5.24-8.72  c1.11-2.73,1.77-5.11,1.99-7.13c0.22-2.02-0.38-3.25-1.79-3.69C369.41,475.25,366.83,476.16,363.1,478.41z M339.41,498.73  c-3.16,2.2-6.02,4.05-8.56,5.52c-4.44,2.56-8.36,3.84-11.77,3.85l-1.02,0c-5.01-0.96-7.48-4.5-7.42-10.61  c-5.36,4.28-9.83,7.73-13.39,10.35c-3.56,2.62-7.43,3.94-11.62,3.94c-4.62,0.01-6.92-2.17-6.89-6.52  c0.03-5.32,3.93-14.72,11.69-28.19c0.31-0.57,0.85-0.86,1.63-0.86c3.06,0,4.57,1.09,4.52,3.29c0.02,0.79-0.25,1.76-0.82,2.9  c-0.17,0.31-2.76,6.12-7.77,17.43c-0.78,1.85-1.16,3.21-1.15,4.09c-0.01,0.97,0.48,1.45,1.45,1.45c3.55-0.01,12.92-8,28.1-24  c1.97-2.16,3.9-3.24,5.8-3.24c2.77,0,4.14,0.92,4.09,2.76c0.04,0.7-0.83,3.37-2.6,7.99c-2.38,6.29-3.57,9.93-3.57,10.89  c-0.01,1.45,0.52,2.18,1.59,2.17c2.54,0,9.78-3.92,21.69-11.74c2.63-5.47,5.46-11.05,8.5-16.75c5.59-10.48,11.18-20.69,16.78-30.64  c2.38-4.45,4.71-8.76,6.99-12.94c0.96-1.63,1.87-3.32,2.73-5.08c1.1-2.02,2.24-4.12,3.43-6.27c0.25-0.35,0.78-0.65,1.58-0.89  c0.8-0.24,1.63-0.42,2.49-0.53c0.86-0.11,1.59-0.09,2.22,0.06c0.62,0.15,0.89,0.43,0.8,0.82c-0.56,2.02-1.38,4.01-2.47,5.94  c-0.09,0.26-0.25,0.59-0.48,0.99c-4.1,8.45-8.27,16.84-12.52,25.16c-0.63,1.23-1.22,2.44-1.77,3.63c-1.51,2.82-3.41,6.25-5.7,10.3  c-2.49,4.27-4.67,8.19-6.52,11.75c1.75-1.85,3.91-3.21,6.49-4.07c2.58-0.86,4.55-1.29,5.91-1.3c5.14,0.08,7.98,2.38,8.51,6.91  c0.77,5.15-0.29,10.38-3.2,15.71c-2.9,5.33-6.72,9.69-11.47,13.08c-4.01,2.03-7.81,2.93-11.38,2.69c-3.57-0.24-6.74-1.8-9.49-4.7  c-0.34,0-0.69,0.14-1.03,0.43c-0.35,0.29-0.76,0.63-1.24,1.02c-0.5,0.57-1.08,1.01-1.74,1.32c-0.42,0.18-0.87,0.22-1.37,0.13  c-0.5-0.09-0.9-0.22-1.21-0.39c-1.04-0.79-1.38-1.76-1-2.9C337.92,502.07,338.65,500.41,339.41,498.73z"/>
<path class="st1" d="M926.11,683.02c-4.45,0-8.25-1.44-11.39-4.33l1.73-3.2c3.17,2.6,6.4,3.9,9.7,3.9c0.85,0,1.65-0.08,2.4-0.24  c0.75-0.15,1.4-0.39,1.96-0.71c0.56-0.32,1.01-0.73,1.34-1.23c0.33-0.51,0.49-1.11,0.49-1.82c-0.03-1.42-0.62-2.48-1.79-3.16  c-0.71-0.42-1.49-0.79-2.32-1.1c-0.84-0.31-1.75-0.61-2.75-0.88c-1.08-0.31-1.99-0.59-2.72-0.83c-0.73-0.25-1.36-0.48-1.86-0.71  c-0.51-0.23-0.93-0.46-1.28-0.68s-0.68-0.47-0.98-0.75c-1.51-1.17-2.26-2.86-2.26-5.05c0-1.13,0.24-2.16,0.72-3.06  c0.48-0.9,1.16-1.68,2.05-2.32c0.88-0.64,1.96-1.13,3.23-1.48c1.27-0.34,2.68-0.51,4.24-0.51c3.43,0,6.6,0.91,9.52,2.72l-1.64,3.48  c-2.78-1.7-5.5-2.55-8.16-2.55c-0.75,0-1.47,0.07-2.14,0.2c-0.67,0.14-1.26,0.35-1.77,0.63c-0.51,0.28-0.91,0.64-1.21,1.09  c-0.3,0.45-0.45,0.97-0.45,1.59c0,0.67,0.15,1.25,0.45,1.75c0.29,0.49,0.73,0.94,1.32,1.34c0.59,0.39,1.34,0.75,2.23,1.07  c0.9,0.32,1.95,0.65,3.15,0.97c1.11,0.3,2.22,0.68,3.32,1.14c1.1,0.45,2.08,0.99,2.93,1.61c0.81,0.55,1.42,1.27,1.83,2.16  c0.41,0.89,0.65,1.96,0.72,3.2c0,1.36-0.29,2.53-0.88,3.5c-0.59,0.97-1.37,1.78-2.35,2.4c-0.98,0.63-2.11,1.09-3.38,1.4  S927.48,683.02,926.11,683.02 M890.24,672.77l-6.08-13.65l-6.02,13.65H890.24z M899.09,682.98h-4.34l-3.02-6.79h-15.13l-3,6.79  h-4.21l12.8-28.08h4.15L899.09,682.98z M850.7,682.98h-4.01V654.9h4.01V682.98z M813.75,670.79c1.11,0,2.13-0.12,3.06-0.35  c0.93-0.23,1.73-0.6,2.4-1.1c0.67-0.5,1.2-1.15,1.58-1.95c0.38-0.79,0.56-1.76,0.56-2.88c0-4.07-2.53-6.1-7.6-6.1h-7.28v12.39  H813.75z M825.59,682.98h-4.56l-5.69-8.73h-1.95h-6.91v8.73h-4.01V654.9h11.28c1.73,0,3.3,0.19,4.71,0.57  c1.41,0.38,2.62,0.96,3.61,1.74c0.99,0.78,1.76,1.77,2.31,2.97c0.55,1.19,0.82,2.6,0.82,4.22c0,4.52-2.08,7.54-6.25,9.06  L825.59,682.98z M774.93,672.77l-6.08-13.65l-6.02,13.65H774.93z M783.79,682.98h-4.34l-3.02-6.79H761.3l-3,6.79h-4.21l12.8-28.08  h4.15L783.79,682.98z M735.35,682.98h-3.95l-16.5-21.77v21.77h-3.95V654.9h3.97l16.52,21.8v-21.8h3.9V682.98z M688.27,682.98h-4.01  V654.9h4.01V682.98z M661.56,682.98h-3.7l-0.02-22.37l-10.26,19.42h-2.4l-10.32-19.42v22.37h-3.68V654.9h4.71l10.52,19.74  l10.42-19.74h4.73V682.98z M596.95,683.02c-2.01,0-3.78-0.29-5.31-0.85c-1.53-0.57-2.81-1.38-3.84-2.41  c-1.03-1.03-1.79-2.26-2.31-3.68c-0.51-1.43-0.77-2.99-0.77-4.71V654.9h4.01v16.45c0,1.4,0.21,2.62,0.63,3.64s0.99,1.87,1.73,2.54  c0.73,0.67,1.6,1.16,2.6,1.49c1,0.32,2.09,0.49,3.27,0.49c1.1,0,2.14-0.15,3.12-0.46c0.99-0.3,1.86-0.78,2.6-1.44  c0.75-0.66,1.34-1.5,1.77-2.54c0.44-1.03,0.66-2.28,0.66-3.73V654.9h3.97v16.46c0,1.82-0.27,3.44-0.8,4.89  c-0.53,1.44-1.32,2.66-2.34,3.66c-1.03,1.01-2.29,1.78-3.8,2.31C600.62,682.75,598.89,683.02,596.95,683.02z M565.81,682.98h-16.57  V654.9h4.01v24.53h12.56V682.98z M503.73,682.98h-20.57V654.9h20.06v3.48h-16.05v8.69h14.37v3.44h-14.37v8.97h16.57V682.98z   M448.24,679.47c1.4,0,2.75-0.24,4.04-0.71c1.29-0.47,2.44-1.16,3.43-2.06c0.99-0.89,1.78-2,2.37-3.3c0.59-1.31,0.88-2.78,0.88-4.43  c0-3.14-1.08-5.7-3.25-7.68c-2.16-1.92-4.71-2.89-7.65-2.89h-7.67v21.07H448.24z M448.02,682.98h-11.61V654.9h11.76  c4.23,0,7.77,1.34,10.61,4.03c2.85,2.67,4.27,6.01,4.27,10.01c0,4.01-1.43,7.36-4.27,10.03  C455.9,681.64,452.32,682.98,448.02,682.98z M376.5,679.51c2.92,0,5.45-0.97,7.6-2.9c2.27-2.06,3.41-4.62,3.41-7.71  c0-2.89-1.04-5.34-3.12-7.35c-2.15-2.1-4.78-3.14-7.89-3.14c-3.03,0-5.64,1-7.83,3.02c-2.18,2.03-3.27,4.52-3.27,7.47  c0,3.02,1.1,5.54,3.31,7.55c1.1,1.03,2.3,1.8,3.6,2.31C373.61,679.26,375.01,679.51,376.5,679.51z M376.6,683.02  c-2.21,0-4.21-0.33-6.01-0.99c-1.8-0.67-3.45-1.71-4.95-3.12c-1.48-1.42-2.57-2.95-3.27-4.6c-0.71-1.64-1.06-3.44-1.06-5.4  c0-3.96,1.47-7.28,4.4-9.98c2.93-2.7,6.56-4.06,10.89-4.06c2.14,0,4.09,0.34,5.85,1.03c1.76,0.68,3.37,1.71,4.84,3.07  c1.49,1.41,2.59,2.94,3.29,4.6c0.7,1.66,1.05,3.46,1.05,5.42c0,4-1.47,7.34-4.42,10.01c-1.48,1.35-3.1,2.36-4.87,3.03  C380.57,682.69,378.66,683.02,376.6,683.02z M332.44,652.42c-0.34,0-0.7-0.04-1.07-0.11c-0.37-0.07-0.74-0.19-1.11-0.36  c-0.37-0.17-0.73-0.34-1.08-0.52c-0.35-0.18-0.68-0.33-0.98-0.45c-0.7-0.33-1.23-0.42-1.58-0.26c-0.62,0.12-0.92,0.69-0.92,1.7  h-2.61c0-3.36,1.12-5.05,3.37-5.05c0.51,0,1.05,0.08,1.62,0.23c0.57,0.15,1.14,0.43,1.73,0.85c0.56,0.41,1.08,0.67,1.54,0.76  c0.26,0.08,0.49,0.1,0.7,0.06c0.77-0.11,1.15-0.74,1.15-1.9h2.61C335.81,650.74,334.69,652.42,332.44,652.42z M341.16,682.98h-3.95  l-16.5-21.77v21.77h-3.95V654.9h3.97l16.52,21.8v-21.8h3.9V682.98z M295.9,682.98h-20.57V654.9h20.06v3.48h-16.05v8.69h14.37v3.44  h-14.37v8.97h16.57V682.98z M243.97,683.02c-4.45,0-8.25-1.44-11.39-4.33l1.73-3.2c3.17,2.6,6.4,3.9,9.7,3.9  c0.85,0,1.65-0.08,2.4-0.24c0.75-0.15,1.4-0.39,1.96-0.71c0.56-0.32,1.01-0.73,1.34-1.23c0.33-0.51,0.49-1.11,0.49-1.82  c-0.03-1.42-0.62-2.48-1.79-3.16c-0.71-0.42-1.49-0.79-2.32-1.1c-0.84-0.31-1.75-0.61-2.75-0.88c-1.08-0.31-1.99-0.59-2.72-0.83  c-0.73-0.25-1.36-0.48-1.86-0.71c-0.51-0.23-0.93-0.46-1.28-0.68c-0.35-0.22-0.68-0.47-0.98-0.75c-1.51-1.17-2.26-2.86-2.26-5.05  c0-1.13,0.24-2.16,0.72-3.06c0.48-0.9,1.16-1.68,2.05-2.32c0.88-0.64,1.96-1.13,3.23-1.48c1.27-0.34,2.68-0.51,4.24-0.51  c3.43,0,6.6,0.91,9.52,2.72l-1.64,3.48c-2.78-1.7-5.5-2.55-8.16-2.55c-0.75,0-1.47,0.07-2.14,0.2c-0.67,0.14-1.26,0.35-1.77,0.63  c-0.51,0.28-0.91,0.64-1.21,1.09c-0.3,0.45-0.45,0.97-0.45,1.59c0,0.67,0.15,1.25,0.45,1.75c0.29,0.49,0.73,0.94,1.32,1.34  c0.59,0.39,1.34,0.75,2.23,1.07c0.9,0.32,1.95,0.65,3.15,0.97c1.11,0.3,2.22,0.68,3.32,1.14c1.1,0.45,2.08,0.99,2.93,1.61  c0.81,0.55,1.42,1.27,1.83,2.16c0.41,0.89,0.65,1.96,0.72,3.2c0,1.36-0.29,2.53-0.88,3.5c-0.59,0.97-1.37,1.78-2.35,2.4  c-0.98,0.63-2.11,1.09-3.38,1.4C246.67,682.87,245.34,683.02,243.97,683.02z M212.78,682.98h-4.01V654.9h4.01V682.98z   M173.86,679.47c1.4,0,2.75-0.24,4.04-0.71c1.29-0.47,2.44-1.16,3.43-2.06c0.99-0.89,1.78-2,2.37-3.3c0.59-1.31,0.88-2.78,0.88-4.43  c0-3.14-1.08-5.7-3.25-7.68c-2.16-1.92-4.71-2.89-7.65-2.89h-7.67v21.07H173.86z M173.63,682.98h-11.61V654.9h11.76  c4.23,0,7.77,1.34,10.61,4.03c2.85,2.67,4.27,6.01,4.27,10.01c0,4.01-1.42,7.36-4.27,10.03  C181.52,681.64,177.94,682.98,173.63,682.98z"/>
</svg>