<svg version="1.1" id="Capa_1" xmlns="http://www.w3.org/2000/svg" xmlns:xlink="http://www.w3.org/1999/xlink" x="0px" y="0px" style="enable-background:new 0 0 1080 1080;" xml:space="preserve" viewBox="224.8 224.18 615.2 531.65">
<style type="text/css">
	.st0{fill:#FFFFFF;}
</style>
<g>
	<path class="st0" d="M532.41,542.2c-25.81,0-50.79-4.55-74.23-13.53c-0.61-0.24-1.19-0.5-1.75-0.82c-1.71-0.95-3.49-1.68-5.31-2.19   c-5.45-1.5-11.22-1.19-16.34,0.86c-1.26,0.5-2.51,1.13-3.65,1.84c-0.56,0.35-1.13,0.64-1.74,0.91c-9.33,4.06-19.37,6.12-29.83,6.12   c-36.64,0-66.43-25.8-66.43-57.5c0-12.92,5.11-25.63,14.41-35.75c0.32-0.35,0.66-0.68,1.04-0.99c0.77-0.66,1.51-1.39,2.17-2.15   c2.94-3.4,4.51-7.44,4.51-11.69c0-1.01-0.08-1.99-0.25-2.96c-0.23-1.28-0.6-2.53-1.1-3.71c-0.17-0.42-0.33-0.85-0.44-1.29   c-3.17-11.8-4.78-23.98-4.78-36.15c0-12.28,1.63-24.53,4.84-36.43c0.17-0.57,0.37-1.14,0.63-1.69c0.74-1.56,1.24-3.19,1.49-4.86   c0.11-0.79,0.19-1.65,0.19-2.52c0-4.38-1.65-8.52-4.77-11.96c-0.66-0.74-1.32-1.39-2.03-1.98c-0.34-0.3-0.66-0.6-0.96-0.91   c-9.65-10.22-14.96-23.13-14.96-36.36c0-31.7,29.79-57.49,66.43-57.49c11.54,0,22.93,2.61,32.93,7.55   c0.34,0.18,0.67,0.36,0.99,0.55c0.65,0.39,1.33,0.76,2.03,1.09c6.14,2.87,13.77,3.08,20.19,0.5c0.25-0.11,0.37-0.15,0.62-0.26   c23.97-9.45,49.56-14.24,76.09-14.24c26.52,0,52.11,4.79,76.08,14.24c0.25,0.11,0.5,0.21,0.74,0.32c6.17,2.44,13.92,2.3,20.09-0.57   c0.69-0.33,1.37-0.69,2.02-1.08c0.32-0.19,0.65-0.37,0.98-0.55c10-4.94,21.39-7.55,32.93-7.55c36.63,0,66.43,25.8,66.43,57.49   c0,13.23-5.31,26.14-14.97,36.36c-0.3,0.31-0.62,0.61-0.95,0.91c-0.71,0.59-1.38,1.24-1.98,1.92c-3.17,3.49-4.82,7.64-4.82,12.01   c0,0.87,0.07,1.72,0.19,2.55c0.25,1.64,0.74,3.27,1.49,4.82c0.25,0.55,0.46,1.11,0.63,1.69c3.22,11.9,4.85,24.16,4.85,36.43   c0,12.18-1.61,24.35-4.78,36.15c-0.12,0.43-0.27,0.87-0.44,1.29c-0.49,1.18-0.86,2.43-1.1,3.71c-0.17,0.97-0.25,1.95-0.25,2.96   c0,4.25,1.57,8.3,4.53,11.72c0.64,0.73,1.38,1.46,2.15,2.12c0.37,0.31,0.72,0.64,1.04,0.99c9.29,10.12,14.41,22.83,14.41,35.75   c0,31.7-29.79,57.5-66.43,57.5c-10.47,0-20.5-2.06-29.83-6.12c-0.6-0.27-1.18-0.56-1.74-0.91c-1.14-0.71-2.38-1.34-3.7-1.87   c-5.03-1.99-10.86-2.33-16.27-0.83c-1.84,0.5-3.63,1.24-5.33,2.19c-0.55,0.32-1.13,0.58-1.74,0.82   C583.19,537.64,558.22,542.2,532.41,542.2z M469.37,508.7c19.91,7.51,41.11,11.33,63.04,11.33c21.92,0,43.12-3.81,63.03-11.33   c3.34-1.76,6.86-3.16,10.48-4.16c11.42-3.17,23.87-2.5,34.8,1.82c2.48,0.99,4.8,2.15,6.99,3.43c5.51,2.26,11.4,3.42,17.55,3.42   c22.5,0,40.82-15.84,40.82-35.33c0-7.86-2.92-15.28-8.45-21.5c-1.41-1.26-2.75-2.61-3.98-4.02c-6.35-7.29-9.7-15.96-9.7-25.06   c0-2.16,0.19-4.29,0.55-6.33c0.43-2.47,1.13-4.9,2.06-7.24c2.62-9.98,3.96-20.25,3.96-30.54c0-10.3-1.34-20.59-3.97-30.6   c-1.36-3.07-2.3-6.27-2.79-9.54c-0.26-1.79-0.4-3.55-0.4-5.36c0-9.26,3.63-18.35,10.22-25.63c1.11-1.25,2.37-2.48,3.71-3.66   c5.75-6.26,8.79-13.82,8.79-21.9c0-19.48-18.32-35.33-40.82-35.33c-6.93,0-13.75,1.54-19.78,4.43c-1.27,0.75-2.61,1.45-3.97,2.09   c-13.23,6.17-29.52,6.6-43.19,1.11c-0.09-0.04-0.28-0.12-0.48-0.2c-20.59-8.11-42.61-12.23-65.43-12.23   c-22.79,0-44.78,4.11-65.36,12.21c-0.21,0.08-0.4,0.16-0.52,0.21c-13.73,5.52-30,5.07-43.2-1.1c-1.37-0.64-2.7-1.35-3.98-2.09   c-6.03-2.89-12.86-4.43-19.78-4.43c-22.51,0-40.82,15.86-40.82,35.33c0,8.08,3.04,15.64,8.79,21.9c1.34,1.18,2.61,2.42,3.77,3.72   c6.53,7.22,10.17,16.32,10.17,25.58c0,1.8-0.14,3.56-0.4,5.31c-0.5,3.31-1.43,6.52-2.79,9.59c-2.63,10-3.97,20.29-3.97,30.6   c0,10.29,1.34,20.56,3.96,30.54c0.93,2.34,1.63,4.77,2.06,7.24c0.36,2.05,0.55,4.17,0.55,6.33c0,9.1-3.35,17.77-9.68,25.04   c-1.25,1.43-2.59,2.77-4.01,4.03c-5.53,6.22-8.45,13.64-8.45,21.5c0,19.48,18.31,35.33,40.82,35.33c6.14,0,12.04-1.16,17.55-3.42   c2.18-1.29,4.51-2.44,6.93-3.41c11.01-4.37,23.4-5.03,34.87-1.85C462.51,505.54,466.04,506.94,469.37,508.7z"/>
</g>
<g>
	<path class="st0" d="M430.95,383.23c0,16.1-6.41,31.88-18.05,44.42c-0.89,0.92-2.19,1.49-3.65,1.49c-1.4,0-2.76-0.57-3.65-1.49   c-11.59-12.54-17.99-28.32-17.99-44.42c0-16.1,6.4-31.87,17.99-44.42c1.78-1.89,5.53-1.89,7.29,0   C424.54,351.35,430.95,367.13,430.95,383.23z"/>
</g>
<g>
	<path class="st0" d="M243.4,749.51l0.56-0.41c0.7-0.41,1.2-0.62,1.49-0.62c0.64,0,1.33,0.58,2.08,1.74   c0.45,0.72,0.68,1.3,0.68,1.73c0,0.43-0.14,0.8-0.42,1.09c-0.28,0.29-0.61,0.54-0.98,0.77c-0.37,0.22-0.73,0.44-1.07,0.65   c-0.34,0.2-1.04,0.47-2.09,0.8c-1.06,0.33-2.07,0.5-3.05,0.5s-1.97-0.13-2.97-0.39c-1-0.26-2.03-0.7-3.1-1.3   c-1.06-0.61-2.02-1.35-2.87-2.23c-0.85-0.88-1.54-2.01-2.09-3.38c-0.55-1.37-0.82-2.86-0.82-4.48c0-1.61,0.27-3.06,0.8-4.38   c0.54-1.31,1.22-2.39,2.06-3.25c0.84-0.86,1.79-1.57,2.86-2.16c2.02-1.11,4.06-1.67,6.1-1.67c0.97,0,1.96,0.15,2.96,0.46   c1,0.29,1.76,0.6,2.27,0.91l0.74,0.43c0.37,0.23,0.66,0.41,0.87,0.56c0.54,0.44,0.81,0.93,0.81,1.47c0,0.54-0.22,1.12-0.65,1.72   c-0.8,1.12-1.53,1.67-2.17,1.67c-0.37,0-0.9-0.23-1.58-0.68c-0.87-0.7-2.02-1.05-3.47-1.05c-1.34,0-2.66,0.47-3.96,1.39   c-0.62,0.46-1.14,1.1-1.55,1.92c-0.41,0.82-0.62,1.76-0.62,2.8c0,1.05,0.21,1.98,0.62,2.81c0.41,0.82,0.94,1.47,1.58,1.95   c1.26,0.91,2.57,1.36,3.93,1.36c0.64,0,1.24-0.08,1.81-0.25C242.74,749.84,243.15,749.67,243.4,749.51z"/>
	<path class="st0" d="M271.74,732.47c3.05,0,5.71,1.1,7.96,3.32c2.25,2.21,3.38,4.95,3.38,8.22c0,3.27-1.08,6.06-3.22,8.37   c-2.15,2.3-4.79,3.45-7.93,3.45c-3.14,0-5.81-1.13-8.01-3.4c-2.2-2.27-3.3-4.98-3.3-8.12c0-1.72,0.31-3.32,0.93-4.82   c0.62-1.5,1.44-2.75,2.48-3.77c1.03-1.01,2.22-1.8,3.56-2.39C268.93,732.77,270.31,732.47,271.74,732.47z M266.1,744.15   c0,1.84,0.59,3.33,1.78,4.47c1.19,1.15,2.51,1.72,3.98,1.72c1.46,0,2.79-0.55,3.96-1.67c1.18-1.11,1.76-2.61,1.76-4.49   c0-1.88-0.59-3.39-1.78-4.52c-1.19-1.13-2.51-1.7-3.98-1.7c-1.47,0-2.79,0.57-3.96,1.72C266.69,740.82,266.1,742.31,266.1,744.15z"/>
	<path class="st0" d="M301.41,750.87h8.42c0.68,0,1.18,0.08,1.48,0.23c0.31,0.15,0.52,0.4,0.62,0.72c0.1,0.34,0.16,0.77,0.16,1.32   s-0.05,0.98-0.16,1.32c-0.1,0.33-0.28,0.56-0.53,0.68c-0.39,0.2-0.93,0.3-1.61,0.3h-11.15c-1.44,0-2.29-0.39-2.54-1.18   c-0.12-0.33-0.18-0.86-0.18-1.58v-17.22c0-0.48,0.01-0.83,0.05-1.07c0.03-0.24,0.13-0.51,0.29-0.82c0.29-0.56,1.1-0.84,2.42-0.84   c1.44,0,2.3,0.38,2.57,1.15c0.1,0.35,0.16,0.89,0.16,1.61V750.87z"/>
	<path class="st0" d="M339.13,749.51l0.56-0.41c0.7-0.41,1.2-0.62,1.49-0.62c0.64,0,1.33,0.58,2.08,1.74   c0.45,0.72,0.68,1.3,0.68,1.73c0,0.43-0.14,0.8-0.42,1.09c-0.28,0.29-0.61,0.54-0.98,0.77c-0.37,0.22-0.73,0.44-1.07,0.65   c-0.34,0.2-1.04,0.47-2.09,0.8c-1.05,0.33-2.07,0.5-3.05,0.5c-0.98,0-1.97-0.13-2.97-0.39c-1-0.26-2.03-0.7-3.1-1.3   c-1.06-0.61-2.02-1.35-2.86-2.23c-0.85-0.88-1.54-2.01-2.09-3.38c-0.55-1.37-0.82-2.86-0.82-4.48c0-1.61,0.27-3.06,0.8-4.38   c0.54-1.31,1.22-2.39,2.06-3.25c0.84-0.86,1.79-1.57,2.86-2.16c2.02-1.11,4.06-1.67,6.1-1.67c0.97,0,1.96,0.15,2.96,0.46   c1,0.29,1.76,0.6,2.27,0.91l0.74,0.43c0.37,0.23,0.66,0.41,0.87,0.56c0.54,0.44,0.81,0.93,0.81,1.47c0,0.54-0.22,1.12-0.65,1.72   c-0.8,1.12-1.53,1.67-2.17,1.67c-0.37,0-0.9-0.23-1.58-0.68c-0.87-0.7-2.02-1.05-3.47-1.05c-1.34,0-2.66,0.47-3.96,1.39   c-0.62,0.46-1.14,1.1-1.55,1.92c-0.41,0.82-0.62,1.76-0.62,2.8c0,1.05,0.21,1.98,0.62,2.81c0.41,0.82,0.94,1.47,1.58,1.95   c1.26,0.91,2.57,1.36,3.93,1.36c0.64,0,1.24-0.08,1.81-0.25C338.47,749.84,338.88,749.67,339.13,749.51z"/>
	<path class="st0" d="M370.84,733.59c0.16-0.31,0.44-0.53,0.84-0.65c0.39-0.13,0.89-0.19,1.48-0.19c0.6,0,1.08,0.05,1.43,0.15   c0.35,0.11,0.62,0.23,0.8,0.37c0.19,0.14,0.33,0.35,0.44,0.62c0.1,0.35,0.16,0.89,0.16,1.61v17.19c0,0.47-0.02,0.84-0.05,1.07   c-0.03,0.23-0.13,0.51-0.3,0.82c-0.29,0.56-1.09,0.84-2.41,0.84c-1.45,0-2.29-0.38-2.54-1.15c-0.12-0.35-0.19-0.88-0.19-1.61v-6.29   h-8.21v6.32c0,0.47-0.01,0.84-0.05,1.07c-0.03,0.23-0.13,0.51-0.3,0.82c-0.29,0.56-1.09,0.84-2.42,0.84   c-1.44,0-2.29-0.38-2.54-1.15c-0.12-0.35-0.18-0.88-0.18-1.61v-17.19c0-0.48,0.01-0.83,0.05-1.07c0.03-0.24,0.13-0.51,0.29-0.82   c0.29-0.56,1.1-0.84,2.42-0.84c1.44,0,2.3,0.38,2.57,1.15c0.1,0.35,0.16,0.89,0.16,1.61v6.32h8.21v-6.35   c0-0.48,0.02-0.83,0.05-1.07C370.58,734.17,370.67,733.9,370.84,733.59z"/>
	<path class="st0" d="M399.95,732.47c3.06,0,5.71,1.1,7.96,3.32c2.25,2.21,3.38,4.95,3.38,8.22c0,3.27-1.08,6.06-3.22,8.37   c-2.15,2.3-4.79,3.45-7.93,3.45c-3.14,0-5.81-1.13-8.01-3.4c-2.2-2.27-3.3-4.98-3.3-8.12c0-1.72,0.31-3.32,0.93-4.82   c0.62-1.5,1.44-2.75,2.48-3.77c1.03-1.01,2.22-1.8,3.56-2.39C397.15,732.77,398.53,732.47,399.95,732.47z M394.32,744.15   c0,1.84,0.59,3.33,1.78,4.47c1.19,1.15,2.51,1.72,3.98,1.72c1.46,0,2.79-0.55,3.96-1.67c1.18-1.11,1.76-2.61,1.76-4.49   c0-1.88-0.59-3.39-1.78-4.52c-1.19-1.13-2.51-1.7-3.98-1.7c-1.47,0-2.79,0.57-3.96,1.72C394.9,740.82,394.32,742.31,394.32,744.15z   "/>
	<path class="st0" d="M438.81,733.7c0.2-0.36,0.49-0.61,0.88-0.73c0.39-0.12,0.88-0.19,1.47-0.19c0.59,0,1.06,0.05,1.43,0.16   c0.36,0.1,0.63,0.22,0.8,0.37c0.18,0.15,0.3,0.36,0.39,0.65c0.13,0.33,0.19,0.86,0.19,1.58v17.19c0,0.5-0.01,0.86-0.05,1.09   c-0.03,0.22-0.13,0.49-0.3,0.81c-0.29,0.56-1.09,0.83-2.42,0.83c-0.8,0-1.36-0.06-1.67-0.19c-0.31-0.12-0.57-0.32-0.77-0.58   c-4.65-6.2-7.7-10.24-9.17-12.14v10.19c0,0.5-0.01,0.86-0.05,1.09c-0.03,0.22-0.13,0.49-0.29,0.81c-0.29,0.56-1.1,0.83-2.42,0.83   c-1.28,0-2.06-0.27-2.35-0.83c-0.16-0.32-0.26-0.59-0.29-0.84c-0.03-0.25-0.05-0.61-0.05-1.08v-17.28c0-0.79,0.1-1.36,0.29-1.72   c0.2-0.36,0.49-0.61,0.88-0.73c0.39-0.12,0.9-0.19,1.52-0.19c0.62,0,1.11,0.06,1.47,0.17c0.36,0.12,0.61,0.25,0.76,0.39   c0.08,0.06,0.32,0.33,0.71,0.81c4.36,5.93,7.27,9.84,8.73,11.74v-10.47C438.51,734.63,438.61,734.06,438.81,733.7z"/>
	<path class="st0" d="M462.76,749.97h9.54c0.47,0,0.83,0.02,1.07,0.05c0.24,0.03,0.51,0.13,0.82,0.29c0.56,0.29,0.84,1.09,0.84,2.41   c0,1.45-0.38,2.29-1.15,2.54c-0.35,0.13-0.89,0.19-1.61,0.19H460c-1.44,0-2.29-0.39-2.54-1.18c-0.12-0.33-0.18-0.86-0.18-1.58   v-17.22c0-1.05,0.2-1.77,0.59-2.15c0.39-0.39,1.13-0.57,2.23-0.57h12.2c0.47,0,0.83,0.01,1.07,0.05c0.24,0.03,0.51,0.13,0.82,0.29   c0.56,0.29,0.84,1.09,0.84,2.41c0,1.44-0.38,2.29-1.15,2.54c-0.35,0.12-0.89,0.19-1.61,0.19h-9.51v3.12h6.13   c0.47,0,0.83,0.02,1.07,0.05c0.24,0.04,0.51,0.13,0.82,0.29c0.56,0.29,0.84,1.1,0.84,2.42c0,1.44-0.39,2.29-1.18,2.54   c-0.35,0.13-0.89,0.19-1.61,0.19h-6.07V749.97z"/>
	<path class="st0" d="M488.22,752.26c-0.54-0.66-0.8-1.26-0.8-1.78s0.44-1.22,1.33-2.09c0.52-0.5,1.06-0.74,1.64-0.74   c0.58,0,1.38,0.51,2.41,1.54c0.29,0.35,0.7,0.69,1.24,1.01c0.54,0.33,1.03,0.48,1.49,0.48c1.92,0,2.88-0.78,2.88-2.35   c0-0.47-0.26-0.87-0.79-1.19c-0.53-0.32-1.18-0.55-1.97-0.7c-0.79-0.15-1.63-0.38-2.54-0.7c-0.91-0.32-1.75-0.7-2.54-1.13   c-0.78-0.43-1.44-1.12-1.96-2.06c-0.53-0.94-0.79-2.07-0.79-3.39c0-1.81,0.68-3.4,2.03-4.75c1.35-1.35,3.2-2.03,5.53-2.03   c1.24,0,2.37,0.16,3.39,0.48c1.02,0.32,1.73,0.64,2.12,0.98l0.77,0.59c0.64,0.6,0.96,1.1,0.96,1.52c0,0.41-0.25,0.98-0.75,1.7   c-0.7,1.04-1.42,1.56-2.17,1.56c-0.44,0-0.97-0.21-1.61-0.62c-0.06-0.05-0.18-0.15-0.36-0.32c-0.18-0.16-0.34-0.29-0.48-0.4   c-0.44-0.27-0.99-0.4-1.66-0.4c-0.67,0-1.23,0.16-1.67,0.48c-0.44,0.32-0.67,0.77-0.67,1.33s0.26,1.02,0.79,1.37   c0.53,0.35,1.18,0.59,1.97,0.71c0.78,0.13,1.64,0.32,2.57,0.57c0.93,0.26,1.79,0.57,2.57,0.95c0.78,0.37,1.44,1.02,1.96,1.94   c0.53,0.92,0.79,2.05,0.79,3.39s-0.27,2.52-0.81,3.55c-0.54,1.02-1.24,1.81-2.11,2.36c-1.67,1.1-3.46,1.65-5.36,1.65   c-0.97,0-1.89-0.12-2.76-0.36c-0.87-0.23-1.57-0.53-2.1-0.88c-1.1-0.67-1.86-1.3-2.29-1.92L488.22,752.26z"/>
	<path class="st0" d="M553.47,733.19c1.01,0.7,1.52,1.38,1.52,2.05c0,0.39-0.24,0.94-0.71,1.64l-6.69,10v5.92   c0,0.47-0.02,0.83-0.05,1.07c-0.03,0.23-0.13,0.51-0.3,0.82c-0.16,0.31-0.44,0.53-0.84,0.65c-0.39,0.12-0.92,0.18-1.58,0.18   c-0.66,0-1.19-0.06-1.58-0.18c-0.39-0.13-0.67-0.35-0.84-0.67c-0.16-0.33-0.26-0.6-0.29-0.84c-0.03-0.23-0.05-0.6-0.05-1.1v-5.85   l-6.69-10c-0.48-0.7-0.71-1.25-0.71-1.64c0-0.67,0.45-1.3,1.36-1.91c0.91-0.61,1.56-0.91,1.95-0.91c0.39,0,0.7,0.08,0.93,0.25   c0.35,0.23,0.72,0.65,1.12,1.27l4.8,7.68l4.8-7.68c0.39-0.62,0.73-1.02,1.02-1.22c0.29-0.2,0.63-0.29,1.01-0.29   C552.04,732.41,552.65,732.67,553.47,733.19z"/>
	<path class="st0" d="M586.55,752.26c-0.53-0.66-0.8-1.26-0.8-1.78s0.44-1.22,1.33-2.09c0.52-0.5,1.06-0.74,1.64-0.74   c0.58,0,1.38,0.51,2.42,1.54c0.29,0.35,0.7,0.69,1.24,1.01c0.54,0.33,1.03,0.48,1.49,0.48c1.92,0,2.88-0.78,2.88-2.35   c0-0.47-0.26-0.87-0.79-1.19c-0.53-0.32-1.18-0.55-1.97-0.7c-0.79-0.15-1.63-0.38-2.54-0.7c-0.91-0.32-1.75-0.7-2.54-1.13   c-0.78-0.43-1.44-1.12-1.96-2.06c-0.53-0.94-0.79-2.07-0.79-3.39c0-1.81,0.68-3.4,2.03-4.75c1.35-1.35,3.2-2.03,5.53-2.03   c1.24,0,2.37,0.16,3.39,0.48c1.02,0.32,1.73,0.64,2.12,0.98l0.77,0.59c0.64,0.6,0.96,1.1,0.96,1.52c0,0.41-0.25,0.98-0.75,1.7   c-0.7,1.04-1.42,1.56-2.17,1.56c-0.44,0-0.97-0.21-1.61-0.62c-0.06-0.05-0.18-0.15-0.36-0.32c-0.17-0.16-0.34-0.29-0.48-0.4   c-0.44-0.27-0.99-0.4-1.66-0.4c-0.67,0-1.23,0.16-1.67,0.48c-0.44,0.32-0.67,0.77-0.67,1.33s0.26,1.02,0.79,1.37   s1.18,0.59,1.97,0.71c0.78,0.13,1.64,0.32,2.57,0.57c0.93,0.26,1.79,0.57,2.57,0.95c0.78,0.37,1.44,1.02,1.96,1.94   c0.53,0.92,0.79,2.05,0.79,3.39s-0.27,2.52-0.81,3.55c-0.54,1.02-1.24,1.81-2.11,2.36c-1.67,1.1-3.46,1.65-5.36,1.65   c-0.97,0-1.89-0.12-2.76-0.36c-0.87-0.23-1.57-0.53-2.11-0.88c-1.1-0.67-1.86-1.3-2.29-1.92L586.55,752.26z"/>
	<path class="st0" d="M615.1,735.48c0-0.48,0.01-0.83,0.05-1.07c0.03-0.24,0.13-0.51,0.29-0.82c0.29-0.56,1.1-0.84,2.42-0.84   c1.44,0,2.3,0.38,2.57,1.15c0.1,0.35,0.16,0.89,0.16,1.61v17.22c0,0.5-0.02,0.86-0.05,1.09c-0.03,0.22-0.13,0.49-0.3,0.81   c-0.29,0.56-1.09,0.83-2.41,0.83c-1.44,0-2.29-0.39-2.54-1.18c-0.12-0.33-0.18-0.86-0.18-1.58V735.48z"/>
	<path class="st0" d="M639.38,750.87h8.42c0.68,0,1.18,0.08,1.49,0.23c0.31,0.15,0.52,0.4,0.62,0.72c0.1,0.34,0.16,0.77,0.16,1.32   s-0.05,0.98-0.16,1.32c-0.1,0.33-0.28,0.56-0.53,0.68c-0.39,0.2-0.93,0.3-1.61,0.3h-11.15c-1.44,0-2.29-0.39-2.54-1.18   c-0.12-0.33-0.18-0.86-0.18-1.58v-17.22c0-0.48,0.01-0.83,0.05-1.07c0.03-0.24,0.13-0.51,0.29-0.82c0.29-0.56,1.1-0.84,2.42-0.84   c1.44,0,2.3,0.38,2.57,1.15c0.1,0.35,0.15,0.89,0.15,1.61V750.87z"/>
	<path class="st0" d="M668.4,750.87h8.42c0.68,0,1.18,0.08,1.49,0.23c0.31,0.15,0.52,0.4,0.62,0.72c0.1,0.34,0.16,0.77,0.16,1.32   s-0.05,0.98-0.16,1.32c-0.1,0.33-0.28,0.56-0.53,0.68c-0.39,0.2-0.93,0.3-1.61,0.3h-11.15c-1.44,0-2.29-0.39-2.54-1.18   c-0.12-0.33-0.18-0.86-0.18-1.58v-17.22c0-0.48,0.01-0.83,0.05-1.07c0.03-0.24,0.13-0.51,0.29-0.82c0.29-0.56,1.1-0.84,2.42-0.84   c1.44,0,2.3,0.38,2.57,1.15c0.1,0.35,0.16,0.89,0.16,1.61V750.87z"/>
	<path class="st0" d="M702.59,732.47c3.06,0,5.71,1.1,7.96,3.32c2.25,2.21,3.38,4.95,3.38,8.22c0,3.27-1.08,6.06-3.22,8.37   c-2.15,2.3-4.79,3.45-7.93,3.45c-3.14,0-5.81-1.13-8.01-3.4c-2.2-2.27-3.3-4.98-3.3-8.12c0-1.72,0.31-3.32,0.93-4.82   c0.62-1.5,1.44-2.75,2.48-3.77c1.03-1.01,2.22-1.8,3.56-2.39C699.78,732.77,701.17,732.47,702.59,732.47z M696.95,744.15   c0,1.84,0.59,3.33,1.78,4.47s2.51,1.72,3.98,1.72c1.47,0,2.79-0.55,3.96-1.67c1.18-1.11,1.76-2.61,1.76-4.49   c0-1.88-0.59-3.39-1.78-4.52c-1.19-1.13-2.51-1.7-3.98-1.7c-1.47,0-2.79,0.57-3.96,1.72C697.54,740.82,696.95,742.31,696.95,744.15   z"/>
	<path class="st0" d="M741.45,733.7c0.2-0.36,0.49-0.61,0.88-0.73c0.39-0.12,0.88-0.19,1.47-0.19c0.59,0,1.06,0.05,1.43,0.16   c0.36,0.1,0.63,0.22,0.8,0.37c0.18,0.15,0.3,0.36,0.39,0.65c0.13,0.33,0.19,0.86,0.19,1.58v17.19c0,0.5-0.01,0.86-0.05,1.09   c-0.03,0.22-0.13,0.49-0.3,0.81c-0.29,0.56-1.09,0.83-2.41,0.83c-0.8,0-1.36-0.06-1.67-0.19c-0.31-0.12-0.57-0.32-0.77-0.58   c-4.65-6.2-7.7-10.24-9.17-12.14v10.19c0,0.5-0.01,0.86-0.05,1.09c-0.03,0.22-0.13,0.49-0.29,0.81c-0.29,0.56-1.1,0.83-2.42,0.83   c-1.28,0-2.06-0.27-2.35-0.83c-0.16-0.32-0.26-0.59-0.29-0.84c-0.03-0.25-0.05-0.61-0.05-1.08v-17.28c0-0.79,0.1-1.36,0.29-1.72   c0.2-0.36,0.49-0.61,0.88-0.73c0.39-0.12,0.9-0.19,1.52-0.19c0.62,0,1.11,0.06,1.47,0.17c0.36,0.12,0.61,0.25,0.76,0.39   c0.08,0.06,0.32,0.33,0.71,0.81c4.36,5.93,7.27,9.84,8.73,11.74v-10.47C741.15,734.63,741.25,734.06,741.45,733.7z"/>
	<path class="st0" d="M765.4,749.97h9.54c0.47,0,0.83,0.02,1.07,0.05c0.24,0.03,0.51,0.13,0.82,0.29c0.56,0.29,0.84,1.09,0.84,2.41   c0,1.45-0.38,2.29-1.15,2.54c-0.35,0.13-0.89,0.19-1.61,0.19h-12.26c-1.44,0-2.29-0.39-2.54-1.18c-0.12-0.33-0.18-0.86-0.18-1.58   v-17.22c0-1.05,0.2-1.77,0.59-2.15c0.39-0.39,1.13-0.57,2.23-0.57h12.2c0.47,0,0.83,0.01,1.07,0.05c0.24,0.03,0.51,0.13,0.82,0.29   c0.56,0.29,0.84,1.09,0.84,2.41c0,1.44-0.38,2.29-1.15,2.54c-0.35,0.12-0.89,0.19-1.61,0.19h-9.51v3.12h6.13   c0.47,0,0.83,0.02,1.07,0.05c0.24,0.04,0.51,0.13,0.82,0.29c0.56,0.29,0.84,1.1,0.84,2.42c0,1.44-0.39,2.29-1.18,2.54   c-0.35,0.13-0.89,0.19-1.61,0.19h-6.07V749.97z"/>
	<path class="st0" d="M790.86,752.26c-0.53-0.66-0.8-1.26-0.8-1.78s0.44-1.22,1.33-2.09c0.52-0.5,1.06-0.74,1.64-0.74   c0.58,0,1.38,0.51,2.41,1.54c0.29,0.35,0.7,0.69,1.24,1.01c0.54,0.33,1.03,0.48,1.49,0.48c1.92,0,2.88-0.78,2.88-2.35   c0-0.47-0.26-0.87-0.79-1.19c-0.53-0.32-1.18-0.55-1.97-0.7c-0.79-0.15-1.63-0.38-2.54-0.7c-0.91-0.32-1.75-0.7-2.54-1.13   c-0.78-0.43-1.44-1.12-1.96-2.06c-0.53-0.94-0.79-2.07-0.79-3.39c0-1.81,0.68-3.4,2.03-4.75c1.35-1.35,3.2-2.03,5.53-2.03   c1.24,0,2.37,0.16,3.39,0.48c1.02,0.32,1.73,0.64,2.12,0.98l0.77,0.59c0.64,0.6,0.96,1.1,0.96,1.52c0,0.41-0.25,0.98-0.75,1.7   c-0.7,1.04-1.42,1.56-2.17,1.56c-0.44,0-0.97-0.21-1.61-0.62c-0.06-0.05-0.18-0.15-0.36-0.32c-0.18-0.16-0.34-0.29-0.48-0.4   c-0.44-0.27-0.99-0.4-1.66-0.4c-0.67,0-1.23,0.16-1.67,0.48c-0.44,0.32-0.67,0.77-0.67,1.33s0.26,1.02,0.79,1.37   s1.18,0.59,1.97,0.71c0.78,0.13,1.64,0.32,2.57,0.57c0.93,0.26,1.79,0.57,2.57,0.95c0.78,0.37,1.44,1.02,1.96,1.94   c0.53,0.92,0.79,2.05,0.79,3.39s-0.27,2.52-0.81,3.55c-0.54,1.02-1.24,1.81-2.11,2.36c-1.67,1.1-3.46,1.65-5.36,1.65   c-0.97,0-1.89-0.12-2.76-0.36c-0.87-0.23-1.57-0.53-2.11-0.88c-1.1-0.67-1.86-1.3-2.29-1.92L790.86,752.26z"/>
</g>
<g>
	<g>
		<path class="st0" d="M309.48,601.81c-11.53-10.94-24.93-16.46-40.1-16.46l-26.1-0.12c-3.07,0-12.47,0-16.36,7.16    c-0.7,1.54-1.64,3.42-1.88,5.65c-0.11,1.17-0.23,3.05-0.23,5.52V682c0,5.17,0.82,9.04,2.58,12.11c3.89,6.35,12.82,6.35,15.75,6.35    h25.87c15.87,0,29.65-5.76,40.93-17.18c11.16-11.28,16.82-25.15,16.82-41.03C326.76,626.27,320.88,612.62,309.48,601.81z     M269.38,663.66h-7.76v-41.51h7.64c5.64,0,10.47,2,14.57,6c4.24,4.12,6.24,8.93,6.24,14.93c0,5.88-2,10.58-6.35,14.58    C279.37,661.66,274.78,663.66,269.38,663.66z"/>
	</g>
	<g>
		<path class="st0" d="M542.06,674.84c-3.41-7.65-6.11-13.88-8.11-18.59c6.35-7.52,9.53-16.69,9.53-27.4    c0-7.05-1.42-13.52-4.23-19.28c-2.82-5.76-6.59-10.47-11.06-13.87c-8.82-6.82-18.12-10.34-27.63-10.34h-30.58    c-3.06,0-12.45,0-16.11,6.93c-1.17,2.12-1.75,3.99-1.99,5.76c-0.12,1.29-0.23,3.17-0.23,5.64V682c0,4.12,0.36,7.05,1.06,9.17    c1.41,4.24,5.52,9.3,17.17,9.3c3.17,0,12.59,0,16.23-6.94c1.06-2.11,1.77-4,2-5.76c0.11-1.29,0.24-3.17,0.24-5.64v-9.99    l12.34-0.13h0.12c8.23,19.41,9.29,21.52,9.76,22.46c1.05,1.65,2.35,3.07,4.12,4.36c2.24,1.77,4.95,2.58,8.11,2.58    c2.71,0,5.76-0.82,9.52-2.47c10.23-4.23,12.36-10.11,12.36-14.34C544.66,682.13,543.83,679.19,542.06,674.84z M506.91,628.85    c0,2.83-0.94,4.01-1.77,4.6c-1.65,1.29-3.17,1.88-4.59,1.88h-12.22v-13.18h11.87c1.63,0,3.17,0.59,4.93,1.89    C505.97,624.73,506.91,625.8,506.91,628.85z"/>
	</g>
	<g>
		<path class="st0" d="M672.94,603.93v78.31c0,11.65-5.16,15.76-9.52,17.05c-2.35,0.82-5.18,1.18-8.47,1.18    c-3.41,0-6.12-0.36-8.24-0.94c-2.24-0.71-4.11-1.53-5.52-2.71c-1.76-1.3-3.06-3.17-3.88-5.4c-0.83-2.6-1.18-5.53-1.18-9.41V652.6    c-4.36,6.13-7.05,9.88-8.35,11.54l-2.59,3.29c-0.94,1.3-2.47,2.47-5.06,4c-5.54,3.29-12.34,3.29-17.64,0.23    c-2.35-1.41-4.12-2.82-5.41-4.36l-1.3-1.76c-1.52-1.88-4.81-6.23-9.51-12.82v29.51c0,2.6-0.13,4.35-0.24,5.64    c-0.23,1.88-0.94,3.77-2.12,5.76c-3.77,6.82-13.06,6.82-16.11,6.82c-8,0-13.28-2.35-15.87-6.82c-1.07-1.99-1.76-3.99-2-5.88    c-0.23-1.29-0.23-3.17-0.23-5.76v-78.32c0-2.46,0-4.35,0.23-5.64c0.24-1.77,0.82-3.64,2-5.76c3.87-6.71,13.16-6.71,16.23-6.71    c3.06,0,5.88,0.36,8.35,1.18c3.05,0.95,4.93,2.12,6.22,3.65l0.47,0.47l27.87,36.57c13.53-17.87,22.71-29.74,27.51-35.86    c2.36-3.88,7.76-6,16-6c3.05,0,12.46,0,16.11,6.95c1.05,1.99,1.77,3.87,1.99,5.75C672.83,599.58,672.94,601.45,672.94,603.93z"/>
	</g>
	<g>
		<path class="st0" d="M718.22,603.8v78.44c0,2.7-0.11,4.58-0.24,5.76c-0.23,1.76-0.94,3.65-2,5.64    c-3.64,6.94-13.04,6.94-16.22,6.94c-11.75,0-15.75-5.17-17.16-9.54c-0.7-1.87-1.18-4.81-1.18-8.92v-78.45    c0-2.46,0.12-4.47,0.35-5.64c0.24-1.77,0.83-3.64,2.01-5.76c3.53-6.93,13.04-6.93,16.1-6.93c11.65,0,15.88,5.05,17.29,9.17    C717.86,596.98,718.22,599.92,718.22,603.8z"/>
	</g>
	<g>
		<path class="st0" d="M840,645.43c0,4-0.34,7.17-1.17,9.88c-1.17,4.36-3.76,6.58-5.64,7.65c-3.41,1.76-7.29,2.46-12.23,2.46h-9.54    v8.71c0,5.3-0.82,9.17-2.22,12c-1.78,3.17-4.6,5.53-8,6.7c-2.7,0.82-6,1.3-9.99,1.3c-4.12,0-7.4-0.47-10-1.3    c-4.46-1.4-6.69-4.11-7.76-6.12c-1.65-3.41-2.35-7.52-2.35-12.7v-8.59h-9.76c-5.05,0-8.71-0.7-11.4-2.11    c-3.18-1.65-5.41-4.58-6.47-8.23c-0.82-2.58-1.17-5.76-1.17-9.76c0-3.99,0.46-7.28,1.29-9.99c1.06-3.53,3.29-6.35,6.47-7.89    c3.17-1.52,7.29-2.23,12.58-2.23h8.46v-8.7c0-5.29,0.7-9.05,2.12-11.87c1.64-3.29,4.46-5.65,8.12-6.82    c5.41-1.65,14.46-1.77,19.87,0c4.46,1.4,6.7,4.12,7.87,6.12c1.53,3.4,2.35,7.52,2.35,12.7v8.58h8.71c5.17,0,9.05,0.71,11.87,2.23    c3.29,1.77,5.65,4.48,6.7,8C839.66,638.03,840,641.32,840,645.43z"/>
	</g>
	<g>
		<g>
			<path class="st0" d="M445.04,639.68c0,0.01-0.01,0.02-0.01,0.02c-0.64-15.31-6.3-28.35-17.05-38.82     c-11.26-11.08-24.91-16.7-40.29-16.7c-7.3,0-14.49,1.38-21.31,4.31c-6.71,2.99-12.81,7.06-17.96,12.15     c-5.33,5.15-9.52,11.5-12.63,19.04s-4.67,15.63-4.67,24.25c0,15.75,5.63,29.58,16.7,41.01c2.69,2.81,5.63,5.33,8.68,7.42     c0,0,0.06,0.12,0.12,0.12c3.05,2.22,6.35,4.01,9.7,5.39c0.84,0.36,1.74,0.72,2.57,1.02c0.9,0.36,1.74,0.66,2.63,0.9     c0.42,0.12,0.78,0.24,1.14,0.3c0.84,0.3,1.68,0.48,2.57,0.72c2.87,0.66,5.81,1.08,8.86,1.26c1.44,0.12,2.87,0.18,4.37,0.18     c15.87,0,29.52-5.87,40.47-17.54c10.72-11.61,16.22-25.74,16.22-42.09C445.16,641.6,445.1,640.64,445.04,639.68z M374.16,626.99     c4.19-4.13,8.8-6.11,13.89-6.11c5.15,0,9.76,1.98,14.07,6.11c4.25,4.07,6.35,9.4,6.35,16.34c0,6.89-2.1,12.21-6.23,16.22     c-8.56,8.08-19.52,8.08-28.08-0.24c-4.25-4.13-6.35-9.28-6.35-16.11S369.91,631.06,374.16,626.99z"/>
		</g>
		<path class="st0" d="M356.5,692.37c0,0,0.06,0.12,0.12,0.12c-0.06,0-0.18-0.06-0.24-0.12    C356.44,692.37,356.44,692.37,356.5,692.37z"/>
	</g>
</g>
</svg>