<svg version="1.1" id="Capa_1" xmlns="http://www.w3.org/2000/svg" xmlns:xlink="http://www.w3.org/1999/xlink" x="0px" y="0px" style="enable-background:new 0 0 1080 1080;" xml:space="preserve" viewBox="161.12 263.95 757.88 475.97">
<style type="text/css">
	.st0{fill:#FFFFFF;}
	.st1{opacity:0.46;fill:#CCCCCC;}
</style>
<g>
	<path class="st0" d="M161.15,647.18c0-29.89,0-59.06,0-88.59c1.37-0.12,2.59-0.33,3.82-0.33c10.4,0,20.83-0.44,31.19,0.19   c15.51,0.94,28.75,6.45,36.76,20.94c17.08,30.89-4.33,67.72-39.44,67.78C182.83,647.19,172.18,647.18,161.15,647.18z    M184.01,625.91c1.9,0,3.16-0.01,4.41,0c19.93,0.12,29.03-10.61,25.58-30.21c-1.07-6.09-4.03-11.5-9.82-13.55   c-5.6-1.98-11.82-2.26-17.81-3c-0.67-0.08-2.25,1.7-2.26,2.63C183.97,596.27,184.01,610.76,184.01,625.91z"/>
	<g>
		<path class="st0" d="M451.67,506.57c-1.05-0.94-2.42-1.68-3.1-2.84c-3.54-6.01-7.02-12.06-10.26-18.23    c-1.35-2.58-2.9-4.04-5.93-3.58c-3.42,0.53-4.75-1.19-5.17-4.47c-2.55-20.05-5.19-40.09-7.89-60.12    c-1.75-12.96-3.65-25.9-5.58-39.55c16.94-0.55,33.23-1.08,49.94-1.62c0.51-34.24,1.01-68.1,1.52-102.36    c27.93-3.3,55.58-6.58,83.22-9.85c0.06,0.2,0.11,0.41,0.17,0.61c-3.53,1.22-7.07,2.44-9.8,3.38c10.6,0,21.77,0.07,32.93-0.02    c14.53-0.12,29.06-0.49,43.59-0.51c6.85-0.01,8.69,1.21,9.96,8c1.41,7.52,2.4,15.24,2.43,22.87c0.08,24.08-0.37,48.16-0.62,72.25    c-0.02,1.69,0,3.37,0,5.65c16.42,0.59,32.56,1.17,49.2,1.77c-1.12,8.8-2.22,17.23-3.27,25.67c-2.5,20.2-4.97,40.4-7.47,60.6    c-0.58,4.66-1.32,9.3-1.79,13.97c-0.26,2.59-1.27,4.16-4,3.63c-6.93-1.34-10.13,2.36-12.54,8.23c-2.25,5.48-5.4,10.6-8.63,16.8    c-2-8.44-3.77-15.94-5.62-23.73c-3.14,0-6.23,0-9.52,0c-0.36-1.57-0.66-2.88-1.01-4.38c-51.35,0-102.61,0-154.2,0    c-0.3,1.23-0.62,2.52-1,4.05c-2.24,0-4.4,0.28-6.45-0.06c-3.71-0.62-5.01,1.06-5.57,4.45c-1.07,6.5-2.45,12.95-3.7,19.42    L451.67,506.57z M570.59,279.52c-0.04-0.28-0.08-0.56-0.12-0.83c-3.4,0.26-6.79,0.64-10.2,0.75c-28.2,0.89-56.4,1.79-84.61,2.52    c-3.08,0.08-3.97,1.38-4.08,4.05c-0.15,3.84-0.53,7.68-0.57,11.52c-0.09,9.45-0.03,18.91-0.03,28.36    c-0.23-0.93,0.13-1.96,0.35-3.01c2.05-9.58,4.12-19.16,6.08-28.76c0.62-3.06,2.06-4.44,5.37-4.79    c19.83-2.05,39.63-4.35,59.44-6.58C551.68,281.69,561.13,280.6,570.59,279.52z M616.6,408.55c0.07-4.45-2.82-3.2-4.54-3.2    c-45.29-0.06-90.58-0.05-135.88-0.04c-1,0-2.05-0.15-2.97,0.11c-0.63,0.18-1.09,0.97-1.63,1.49c0.52,0.51,0.97,1.32,1.58,1.46    c1.08,0.25,2.26,0.11,3.4,0.11c42.3,0.03,84.6,0.05,126.9,0.07C607.72,408.55,611.98,408.55,616.6,408.55z M418.49,380.6    c1.4,8.73,2.71,16.94,4.02,25.15c1.57-4.71,2.43-9.3,3.11-13.92c0.34-2.27,1.36-3.48,3.69-3.88c4.33-0.74,8.62-1.68,12.92-2.58    c6.45-1.35,12.9-2.74,19.34-4.11c-0.04-0.22-0.08-0.44-0.12-0.65C447.31,380.6,433.16,380.6,418.49,380.6z M628.69,406.54    c0.28-0.07,0.55-0.13,0.83-0.2c0.22-0.67,0.55-1.33,0.65-2.02c0.42-2.8,0.82-5.61,1.15-8.43c0.87-7.38,0.85-7.41,8.22-9.06    c2.49-0.56,5-0.98,7.5-1.46c7.16-1.37,14.32-2.74,21.48-4.11c-0.05-0.22-0.09-0.43-0.14-0.65c-14.45,0-28.9,0-43.69,0    C626.07,389.51,627.38,398.02,628.69,406.54z"/>
		<path class="st0" d="M484.06,603.31c0.18-21.26,9.75-36.58,26.39-42.35c26.64-9.24,56.82,5.28,57.73,39.3    c0.45,16.81-4.64,31.03-19.2,40.43c-22.92,14.79-61.03,5.15-64.7-32.8C484.1,606.05,484.1,604.19,484.06,603.31z M543.55,613.4    c2.62-6.92,2.74-14.62,0.24-21.58c-0.16-0.44-0.32-0.87-0.5-1.29c-3.09-7.38-9-11.44-16.98-11.51    c-8.98-0.08-15.38,4.94-18.41,13.82c-2.15,6.3-2,13.19,0.22,19.47c3.04,8.6,8.77,13.45,17.36,13.72    c7.43,0.23,13.19-2.98,16.58-9.3C542.63,615.65,543.12,614.54,543.55,613.4z"/>
		<path class="st0" d="M621.88,559.12c13.94,0,27.08-0.8,40.09,0.22c13.1,1.03,20.92,9,22.86,21.08    c1.87,11.65-2.14,23.42-14.1,28.77c-0.24,0.11-0.42,0.37-1,0.92c6.64,11.84,13.35,23.79,20.45,36.44c-1.91,0.28-3,0.44-4.17,0.45    c-5.84,0.05-11,0-17.61,0.23c-2.69,0.1-4.06-0.9-5.21-3.25c-4.65-9.45-9.39-18.86-14.35-28.14c-0.81-1.51-2.9-2.33-4.4-3.46    c-0.38,0.35-0.76,0.69-1.14,1.04c0,9.67-0.17,19.34,0.08,29c0.1,3.74,0.49,4.9-3.36,4.58c-3.96-0.32-11.03-0.31-15,0    c-3.72,0.29-3.35-0.62-3.26-4.48c0.25-11.4,0.08-22.81,0.09-34.21c0.01-14.97,0.03-29.94,0.05-44.9    C621.88,561.88,621.88,560.36,621.88,559.12z M643.38,594.63c5.06-0.46,9.88-0.51,14.52-1.44c3.87-0.78,5.84-3.91,5.91-7.89    c0.07-3.8-1.6-7.02-5.39-7.71c-4.9-0.89-9.96-0.87-15.04-1.25C643.38,582.84,643.38,588.32,643.38,594.63z"/>
		<path class="st0" d="M880.37,579.14c0,4.31,0,8.23,0,12.71c8.69,0,17.19,0,25.69,0c6.24,0,6.23,0,6.27,6.38    c0.02,3.28-0.04,6.56,0.11,9.83c0.13,2.94-1.09,4.02-4.05,3.96c-7.69-0.14-15.38-0.05-23.08-0.05c-1.53,0-3.07,0-4.85,0    c0,4.78,0,9.13,0,13.93c1.55,0.07,3.05,0.2,4.56,0.21c8.69,0.02,17.39,0.21,26.07-0.08c4.23-0.14,5.51,1.35,5.19,5.39    c-0.31,3.96-0.18,7.98-0.03,11.96c0.09,2.66-0.69,3.86-3.6,3.85c-16.67-0.1-33.34-0.09-50,0c-2.8,0.02-3.71-0.99-3.7-3.74    c0.08-27.21,0.09-54.42,0.05-81.63c0-2.48,0.7-3.6,3.39-3.59c16.1,0.08,32.2,0.08,48.29-0.01c2.61-0.01,3.59,0.96,3.55,3.48    c-0.07,4.56-0.13,9.12,0.02,13.67c0.1,2.92-1.26,3.6-3.88,3.57c-8.4-0.1-16.81-0.05-25.21-0.03    C883.63,578.94,882.1,579.07,880.37,579.14z"/>
		<path class="st0" d="M399.49,578.74c0,5.31,0,9.96,0,15.17c5.76,0,11.29,0,16.82,0c3.56,0,7.14,0.17,10.69-0.05    c3.33-0.21,4.6,0.94,4.39,4.37c-0.25,3.97-0.16,7.99,0.06,11.97c0.16,2.98-0.91,3.99-3.9,3.92c-7.69-0.16-15.39-0.05-23.09-0.05    c-1.53,0-3.06,0-5.13,0c0,9.03,0.01,17.54,0,26.05c-0.01,8.3,0.46,6.95-7.13,7.04c-3.85,0.05-7.71-0.21-11.54,0.07    c-3.58,0.27-4.67-1.02-4.64-4.56c0.15-17.25,0.07-34.49,0.08-51.74c0-9.41,0.08-18.82-0.04-28.22c-0.04-3.15,0.71-4.52,4.29-4.48    c16.1,0.19,32.21,0.17,48.32,0.02c3.25-0.03,4.28,1.04,4.11,4.17c-0.21,3.84-0.27,7.71,0.01,11.54c0.28,3.68-0.83,4.99-4.72,4.87    C418.68,578.54,409.3,578.74,399.49,578.74z"/>
		<path class="st0" d="M806.65,558.93c0,5.85,0.12,11.8-0.15,17.73c-0.03,0.73-2.13,1.9-3.3,1.94c-5.81,0.2-11.64,0.09-18.13,0.09    c0,1.96,0,3.6,0,5.24c0.03,19.52-0.04,39.04,0.16,58.56c0.04,3.81-1.14,5.01-4.88,4.75c-4.54-0.3-9.35-0.25-13.67,0    c-3.72,0.21-4.49-1.22-4.46-4.64c0.15-19.8,0.1-39.61,0.11-59.41c0-1.26,0-2.53,0-4.49c-6.04,0-11.82-0.17-17.59,0.07    c-3.2,0.13-4.32-0.91-4.17-4.1c0.21-4.41,0.09-8.83,0.05-13.25c-0.02-2.01,0.49-3.14,2.87-3.14c20.52,0.08,41.03,0.06,61.55,0.1    C805.42,558.37,805.81,558.63,806.65,558.93z"/>
		<path class="st0" d="M686.65,715.42c-3.07,0-5.75,0.21-8.37-0.11c-0.98-0.12-2.48-1.43-2.57-2.31c-0.31-3.2-0.12-6.45-0.12-9.89    c8.51,0,16.45,0,24.75,0c0.11,0.98,0.34,2.06,0.34,3.13c0.04,6.84-0.34,13.71,0.16,20.51c0.34,4.63-1.54,6.45-5.56,7.91    c-13.16,4.76-25.83,5.68-37.5-3.67c-9.71-7.77-13.42-22.31-9.22-35.4c3.85-12,14.69-20.28,27.31-21.04    c6.69-0.4,13.01,0.59,18.99,3.74c2.25,1.18,2.14,0.71,2.14,3.71s0.43,8.63,0,13c-1.64-1.37-3.36-2.32-4.51-3.22    c-8.72-6.84-20.27-6.07-26.85,1.79c-6.5,7.76-5.69,20.28,1.88,27.06c4.98,4.46,10.88,5.24,17.14,3.51    c0.81-0.22,1.78-1.42,1.9-2.28C686.85,719.94,686.65,717.95,686.65,715.42z"/>
		<path class="st0" d="M298.02,647.17c0-29.9,0-59.06,0-88.54c7.53,0,14.86,0,22.7,0c0.1,1.43,0.28,2.93,0.28,4.43    c0.05,26.36-0.02,52.73,0.21,79.09c0.04,4.24-1.31,5.34-5.32,5.11C310.09,646.93,304.27,647.17,298.02,647.17z"/>
		<path class="st0" d="M577,673.53c12.69,12.01,24.6,23.29,37.3,35.31c0-11.25,0-21.63,0-32.23c4.72,0,8.8,0,13.24,0    c0,20.55,0,41.07,0,62.93c-12.86-12.12-24.95-23.51-37.87-35.68c0,11.35,0,21.63,0,32.1c-4.46,0-8.4,0-12.67,0    C577,715.6,577,695.23,577,673.53z"/>
		<path class="st0" d="M451.54,506.61c3.88-1.58,7.77-3.14,11.65-4.73c55.64-22.72,110.92-20.39,165.62,3.02    c11.98,5.13,23.15,12.15,34.64,18.4c2.33,1.27,5.43,2.83,3.34,6.14c-2.07,3.28-4.71,1.15-6.99-0.31    c-25.09-16.07-52.11-27.29-81.49-32.61c-53.94-9.76-103.5,1.19-148.92,31.6c-0.95,0.63-1.84,1.74-2.83,1.82    c-1.84,0.16-3.73-0.27-5.6-0.46c0.53-1.69,0.54-4.1,1.69-4.93c5.07-3.67,10.42-6.95,15.75-10.23c4.36-2.68,8.83-5.17,13.27-7.75    C451.67,506.57,451.54,506.61,451.54,506.61z"/>
		<path class="st0" d="M496.59,739.89c-9.74-21.8-18.96-42.41-28.19-63.06c0.69-0.25,0.82-0.33,0.96-0.34    c13.42-0.88,13.41-0.88,18.66,11.35c2.74,6.39,5.5,12.76,8.27,19.14c0.1,0.23,0.35,0.4,0.92,1.05c1.4-3.11,2.74-5.99,4-8.91    c2.88-6.64,5.79-13.26,8.52-19.96c0.8-1.95,1.71-2.97,3.99-2.84c3.4,0.19,6.82,0.05,11.1,0.05    C515.46,697.46,506.3,718.06,496.59,739.89z"/>
		<path class="st0" d="M336.73,713.6c-58.34,0-116.4,0-174.73,0c0-2.35,0-4.43,0-7.25c1.85,0,3.63,0,5.42,0    c54.71,0,109.43,0.01,164.14,0.01C337.94,706.36,338.15,706.65,336.73,713.6z"/>
		<path class="st0" d="M423.18,736c-12.58,0-24.65,0-36.99,0c0-19.77,0-39.36,0-59.3c4.4,0,8.87,0,13.9,0c0,15.3,0,30.63,0,46.55    c7.97,0,15.42,0,23.09,0C423.18,727.77,423.18,731.68,423.18,736z"/>
		<path class="st0" d="M747.98,712.09c0-1.91,0-3.54,0-5.5c1.62-0.08,3-0.21,4.39-0.21c54.02-0.01,108.04-0.02,162.05-0.02    c4.96,0,5.13,0.25,4.01,5.73C861.7,712.09,804.92,712.09,747.98,712.09z"/>
		<path class="st0" d="M539.42,676.58c4.81,0,9.18,0,13.84,0c0,19.8,0,39.4,0,59.3c-4.5,0-8.99,0-13.84,0    C539.42,716.27,539.42,696.57,539.42,676.58z"/>
		<path class="st0" d="M439.96,676.57c4.62,0,8.85,0,13.61,0c0,19.75,0,39.32,0,59.25c-4.31,0-8.77,0-13.61,0    C439.96,716.25,439.96,696.57,439.96,676.57z"/>
		<path class="st1" d="M570.59,279.52c-9.45,1.08-18.9,2.18-28.35,3.24c-19.81,2.23-39.61,4.52-59.44,6.58    c-3.31,0.34-4.75,1.73-5.37,4.79c-1.96,9.6-4.03,19.18-6.08,28.76c-0.23,1.05-0.59,2.08-0.35,3.01c0-9.45-0.06-18.91,0.03-28.36    c0.03-3.84,0.42-7.68,0.57-11.52c0.11-2.67,1-3.97,4.08-4.05c28.21-0.74,56.41-1.63,84.61-2.52c3.4-0.11,6.8-0.49,10.2-0.75    C570.51,278.96,570.55,279.24,570.59,279.52z"/>
		<path class="st1" d="M616.6,408.55c-4.62,0-8.88,0-13.14,0c-42.3-0.02-84.6-0.05-126.9-0.07c-1.14,0-2.32,0.14-3.4-0.11    c-0.61-0.14-1.06-0.95-1.58-1.46c0.54-0.52,1-1.31,1.63-1.49c0.92-0.27,1.97-0.11,2.97-0.11c45.29-0.01,90.58-0.02,135.88,0.04    C613.78,405.35,616.67,404.11,616.6,408.55z"/>
		<path class="st1" d="M418.49,380.6c14.67,0,28.82,0,42.96,0c0.04,0.22,0.08,0.44,0.12,0.65c-6.45,1.37-12.89,2.76-19.34,4.11    c-4.3,0.9-8.59,1.84-12.92,2.58c-2.33,0.4-3.36,1.61-3.69,3.88c-0.68,4.62-1.54,9.21-3.11,13.92    C421.2,397.54,419.89,389.33,418.49,380.6z"/>
		<path class="st1" d="M628.69,406.54c-1.31-8.52-2.63-17.03-4-25.93c14.79,0,29.24,0,43.69,0c0.05,0.22,0.09,0.43,0.14,0.65    c-7.16,1.37-14.32,2.74-21.48,4.11c-2.5,0.48-5.02,0.91-7.5,1.46c-7.38,1.65-7.36,1.67-8.22,9.06c-0.33,2.82-0.73,5.62-1.15,8.43    c-0.1,0.69-0.43,1.35-0.65,2.02C629.24,406.41,628.97,406.47,628.69,406.54z"/>
	</g>
</g>
</svg>