<svg version="1.1" id="Capa_1" xmlns="http://www.w3.org/2000/svg" xmlns:xlink="http://www.w3.org/1999/xlink" x="0px" y="0px" style="enable-background:new 0 0 595.28 595.28;" xml:space="preserve" viewBox="127.55 225.07 340.38 153.25">
<style type="text/css">
	.st0{fill:#FFFFFF;}
</style>
<g>
	<path class="st0" d="M446.57,225.09v43.19c-3.48-2.51-7.8-5.01-19.22-5.01c-11.63,0-20.06,4.94-25.32,12.12   c-1.72-26.71-23.85-47.78-51.01-47.78c-27.17,0-49.32,21.09-51.01,47.83c-5.68-7.88-15.14-13.42-28.53-13.42   c-18.57,0-29.85,10.66-33.8,23.44l-8.26-56.73H204.2l-18.11,53.78l-17-53.78h-25.63l-15.88,99.47h24.24l8.5-55.59l18.67,55.59   h14.21l18.53-55.59l8.08,55.59h24.1l-1.79-12.31c5.72,8.29,15.52,14.12,29.36,14.12c20.45,0,31.74-12.71,34.37-27.28   c8.58,16.16,25.57,27.14,45.17,27.14c19.47,0,36.37-10.83,45.01-26.81c2.46,14.1,12.87,26.53,31.33,26.53   c10.03,0,16.02-3.2,19.22-5.43v4.04h21.32V225.09H446.57z M271.34,309.38c-7.24,0-13.23-5.99-13.23-13.23s5.99-13.23,13.23-13.23   c7.52,0,13.23,5.99,13.23,13.23S278.86,309.38,271.34,309.38z M351.02,305.76c-15.05,0-27.17-12.12-27.17-27.17   s12.12-27.17,27.17-27.17c15.05,0,27.17,12.12,27.17,27.17S366.06,305.76,351.02,305.76z M433.06,309.1   c-7.24,0-13.24-5.99-13.24-13.23c0-7.24,5.99-13.24,13.24-13.24s13.23,5.99,13.23,13.24C446.29,303.11,440.3,309.1,433.06,309.1z"/>
	<g>
		<path class="st0" d="M243.44,377.86v-22.39h7.42c5.68,0,10.64,3.88,10.64,11.24c0,7.32-5.02,11.15-10.7,11.15H243.44z     M250.8,375.53c4.36,0,8.05-2.94,8.05-8.81c0-5.9-3.63-8.9-7.99-8.9h-4.77v17.71H250.8z"/>
		<path class="st0" d="M274.1,377.86v-22.39h13.42v2.43h-10.77v7.55h9.79v2.43h-9.79v7.55h10.77v2.43H274.1z"/>
		<path class="st0" d="M298.41,366.66c0-7.48,5.49-11.62,11.02-11.62c5.08,0,8.68,2.81,9.79,7.11l-2.46,0.85    c-0.85-3.5-3.51-5.53-7.32-5.53c-4.26,0-8.37,3.13-8.37,9.19c0,6.09,4.1,9.22,8.37,9.22c3.98,0,6.57-2.4,7.48-5.62l2.34,0.85    c-1.14,4.2-4.7,7.2-9.82,7.2C303.75,378.31,298.41,374.14,298.41,366.66z"/>
		<path class="st0" d="M340.94,355.04c5.59,0,11.08,4.14,11.08,11.62c0,7.48-5.49,11.65-11.08,11.65c-5.56,0-11.08-4.17-11.08-11.65    C329.86,359.17,335.38,355.04,340.94,355.04z M340.94,375.87c4.36,0,8.43-3.13,8.43-9.22c0-6.06-4.07-9.19-8.43-9.19    c-4.33,0-8.43,3.13-8.43,9.19C332.51,372.75,336.62,375.87,340.94,375.87z"/>
	</g>
</g>
</svg>