<svg version="1.1" id="Capa_1" xmlns="http://www.w3.org/2000/svg" xmlns:xlink="http://www.w3.org/1999/xlink" x="0px" y="0px" style="enable-background:new 0 0 1080 1080;" xml:space="preserve" viewBox="119 434.22 843 212.47">
<style type="text/css">
	.st0{fill:#FFFFFF;}
</style>
<g>
	<path class="st0" d="M252.14,646.65c-17.25,0-33.94-3.05-49.59-9.04c-0.4-0.15-0.79-0.34-1.16-0.54c-1.14-0.63-2.33-1.12-3.55-1.46   c-3.65-1-7.5-0.8-10.92,0.57c-0.84,0.34-1.68,0.76-2.44,1.24c-0.37,0.23-0.76,0.43-1.16,0.61c-6.23,2.71-12.94,4.08-19.93,4.08   c-24.47,0-44.38-17.23-44.38-38.41c0-8.64,3.42-17.12,9.63-23.88c0.21-0.23,0.44-0.46,0.69-0.67c0.51-0.44,1.01-0.93,1.45-1.44   c1.96-2.26,3.01-4.97,3.01-7.81c0-0.67-0.05-1.32-0.16-1.97c-0.15-0.86-0.4-1.7-0.73-2.48c-0.12-0.28-0.22-0.57-0.3-0.86   c-2.12-7.89-3.19-16.01-3.19-24.15c0-8.2,1.09-16.39,3.24-24.34c0.11-0.39,0.25-0.76,0.42-1.13c0.49-1.04,0.83-2.13,0.99-3.25   c0.08-0.53,0.13-1.1,0.13-1.67c0-2.93-1.1-5.69-3.18-7.99c-0.44-0.49-0.88-0.92-1.36-1.32c-0.22-0.19-0.44-0.39-0.64-0.61   c-6.45-6.82-10-15.45-10-24.29c0-21.18,19.91-38.42,44.38-38.42c7.71,0,15.32,1.75,22,5.05c0.22,0.12,0.45,0.24,0.66,0.37   c0.43,0.26,0.89,0.5,1.36,0.72c4.1,1.92,9.2,2.06,13.49,0.34c0.17-0.08,0.25-0.11,0.42-0.17c16.01-6.31,33.11-9.51,50.83-9.51   c17.72,0,34.82,3.2,50.83,9.51c0.17,0.07,0.33,0.14,0.49,0.22c4.12,1.63,9.3,1.54,13.42-0.39c0.46-0.22,0.92-0.46,1.35-0.72   c0.22-0.13,0.44-0.25,0.66-0.37c6.68-3.3,14.29-5.05,22-5.05c24.47,0,44.38,17.23,44.38,38.42c0,8.84-3.55,17.47-10,24.29   c-0.2,0.21-0.41,0.41-0.63,0.61c-0.48,0.4-0.92,0.83-1.32,1.28c-2.12,2.34-3.22,5.1-3.22,8.03c0,0.58,0.05,1.14,0.13,1.7   c0.16,1.09,0.5,2.18,0.99,3.22c0.17,0.37,0.32,0.74,0.42,1.13c2.15,7.95,3.24,16.14,3.24,24.34c0,8.14-1.07,16.26-3.19,24.15   c-0.08,0.29-0.18,0.58-0.3,0.86c-0.33,0.79-0.57,1.62-0.73,2.48c-0.11,0.65-0.17,1.3-0.17,1.97c0,2.85,1.05,5.55,3.03,7.83   c0.43,0.49,0.92,0.98,1.44,1.42c0.25,0.21,0.48,0.43,0.69,0.67c6.21,6.77,9.63,15.25,9.63,23.88c0,21.18-19.91,38.41-44.38,38.41   c-6.99,0-13.69-1.37-19.93-4.08c-0.4-0.18-0.79-0.38-1.16-0.61c-0.76-0.48-1.59-0.9-2.48-1.25c-3.36-1.33-7.26-1.55-10.88-0.55   c-1.23,0.34-2.42,0.83-3.56,1.46c-0.37,0.21-0.76,0.39-1.17,0.54C286.07,643.61,269.39,646.65,252.14,646.65z M210.02,624.27   c13.3,5.02,27.47,7.56,42.12,7.56c14.64,0,28.81-2.55,42.11-7.56c2.23-1.18,4.58-2.11,7-2.78c7.63-2.11,15.95-1.68,23.25,1.22   c1.66,0.67,3.21,1.43,4.67,2.3c3.68,1.52,7.62,2.28,11.72,2.28c15.04,0,27.27-10.59,27.27-23.6c0-5.26-1.95-10.22-5.65-14.37   c-0.95-0.84-1.84-1.74-2.66-2.68c-4.24-4.87-6.48-10.66-6.48-16.75c0-1.44,0.13-2.86,0.37-4.22c0.29-1.65,0.75-3.27,1.37-4.84   c1.75-6.67,2.64-13.53,2.64-20.4c0-6.88-0.89-13.76-2.65-20.44c-0.91-2.05-1.54-4.19-1.86-6.37c-0.17-1.2-0.27-2.38-0.27-3.58   c0-6.19,2.43-12.27,6.83-17.13c0.74-0.84,1.58-1.67,2.48-2.44c3.84-4.19,5.88-9.24,5.88-14.63c0-13.02-12.24-23.61-27.27-23.61   c-4.62,0-9.18,1.02-13.21,2.96c-0.85,0.5-1.74,0.97-2.65,1.39c-8.84,4.13-19.72,4.42-28.85,0.74c-0.06-0.02-0.18-0.07-0.32-0.13   c-13.76-5.42-28.47-8.17-43.71-8.17c-15.23,0-29.92,2.74-43.67,8.16c-0.14,0.05-0.27,0.11-0.34,0.14   c-9.18,3.69-20.04,3.39-28.87-0.73c-0.92-0.43-1.8-0.9-2.66-1.4c-4.03-1.94-8.59-2.96-13.21-2.96c-15.04,0-27.27,10.59-27.27,23.61   c0,5.39,2.03,10.44,5.88,14.63c0.9,0.78,1.74,1.62,2.52,2.48c4.36,4.82,6.79,10.9,6.79,17.09c0,1.2-0.09,2.38-0.26,3.55   c-0.33,2.21-0.96,4.35-1.87,6.4c-1.75,6.69-2.65,13.56-2.65,20.44c0,6.88,0.89,13.73,2.64,20.4c0.63,1.56,1.09,3.19,1.38,4.84   c0.25,1.36,0.37,2.79,0.37,4.22c0,6.09-2.24,11.87-6.47,16.74c-0.83,0.95-1.73,1.86-2.67,2.69c-3.69,4.16-5.65,9.12-5.65,14.37   c0,13.01,12.23,23.6,27.27,23.6c4.1,0,8.04-0.77,11.72-2.28c1.46-0.87,3.01-1.63,4.63-2.28c7.36-2.92,15.63-3.36,23.3-1.24   C205.44,622.16,207.79,623.1,210.02,624.27z"/>
</g>
<g>
	<path class="st0" d="M184.35,540.44c0,10.76-4.28,21.3-12.06,29.68c-0.59,0.62-1.46,1-2.43,1c-0.93,0-1.84-0.38-2.44-1   c-7.74-8.38-12.02-18.92-12.02-29.68s4.28-21.29,12.02-29.68c1.19-1.27,3.69-1.27,4.87,0   C180.07,519.15,184.35,529.68,184.35,540.44z"/>
</g>
<g>
	<g>
		<path class="st0" d="M489.14,473.24c-10.28-9.75-22.22-14.67-35.74-14.67l-23.26-0.11c-2.73,0-11.12,0-14.58,6.39    c-0.63,1.36-1.46,3.04-1.68,5.03c-0.1,1.05-0.2,2.73-0.2,4.92v69.91c0,4.61,0.74,8.07,2.3,10.8c3.46,5.66,11.43,5.66,14.04,5.66    h23.06c14.14,0,26.42-5.14,36.48-15.31c9.95-10.06,14.99-22.43,14.99-36.58C504.54,495.04,499.3,482.88,489.14,473.24z     M453.39,528.37h-6.92v-36.99h6.81c5.03,0,9.33,1.78,12.99,5.34c3.77,3.67,5.56,7.97,5.56,13.31c0,5.24-1.78,9.43-5.66,12.99    C462.3,526.59,458.21,528.37,453.39,528.37z"/>
	</g>
	<g>
		<path class="st0" d="M696.45,538.33c-3.04-6.81-5.45-12.36-7.23-16.56c5.66-6.71,8.48-14.88,8.48-24.42    c0-6.29-1.25-12.06-3.76-17.19c-2.52-5.13-5.88-9.32-9.86-12.36c-7.86-6.08-16.14-9.23-24.62-9.23H632.2    c-2.72,0-11.11,0-14.36,6.18c-1.04,1.89-1.56,3.56-1.78,5.14c-0.11,1.15-0.2,2.83-0.2,5.03v69.8c0,3.67,0.31,6.29,0.94,8.18    c1.26,3.77,4.92,8.28,15.3,8.28c2.83,0,11.21,0,14.46-6.19c0.94-1.88,1.57-3.56,1.79-5.13c0.09-1.15,0.21-2.83,0.21-5.03v-8.91    l11-0.11h0.1c7.34,17.3,8.28,19.18,8.7,20.02c0.94,1.47,2.09,2.73,3.67,3.88c2,1.57,4.41,2.31,7.23,2.31    c2.42,0,5.14-0.73,8.48-2.2c9.12-3.77,11.02-9.01,11.02-12.79C698.76,544.83,698.02,542.2,696.45,538.33z M665.12,497.35    c0,2.52-0.84,3.57-1.58,4.09c-1.47,1.15-2.83,1.68-4.08,1.68h-10.9v-11.74h10.59c1.46,0,2.82,0.52,4.4,1.68    C664.27,493.68,665.12,494.63,665.12,497.35z"/>
	</g>
	<g>
		<path class="st0" d="M813.09,475.13v69.81c0,10.38-4.6,14.04-8.48,15.2c-2.1,0.73-4.62,1.05-7.55,1.05    c-3.04,0-5.45-0.32-7.34-0.84c-2-0.63-3.66-1.37-4.93-2.41c-1.57-1.15-2.73-2.83-3.46-4.82c-0.73-2.31-1.05-4.93-1.05-8.39v-26.2    c-3.88,5.45-6.28,8.8-7.44,10.27l-2.3,2.93c-0.84,1.15-2.2,2.2-4.51,3.56c-4.93,2.94-11,2.94-15.72,0.22    c-2.1-1.26-3.67-2.52-4.82-3.88l-1.15-1.57c-1.36-1.68-4.3-5.55-8.48-11.42v26.31c0,2.31-0.12,3.87-0.22,5.03    c-0.2,1.68-0.84,3.36-1.88,5.14c-3.36,6.09-11.64,6.09-14.36,6.09c-7.13,0-11.84-2.1-14.15-6.09c-0.95-1.77-1.57-3.56-1.78-5.24    c-0.21-1.15-0.21-2.83-0.21-5.14v-69.8c0-2.2,0-3.88,0.21-5.03c0.21-1.57,0.73-3.24,1.78-5.14c3.45-5.97,11.73-5.97,14.47-5.97    c2.72,0,5.24,0.31,7.44,1.04c2.72,0.84,4.4,1.89,5.55,3.25l0.42,0.42l24.84,32.59c12.06-15.93,20.24-26.52,24.52-31.96    c2.1-3.46,6.92-5.34,14.26-5.34c2.72,0,11.11,0,14.36,6.18c0.94,1.78,1.58,3.46,1.78,5.13    C812.99,471.25,813.09,472.92,813.09,475.13z"/>
	</g>
	<g>
		<path class="st0" d="M853.46,475.02v69.91c0,2.41-0.11,4.08-0.22,5.13c-0.2,1.57-0.84,3.25-1.79,5.03    c-3.24,6.19-11.62,6.19-14.46,6.19c-10.48,0-14.04-4.61-15.3-8.49c-0.62-1.68-1.05-4.3-1.05-7.96v-69.91c0-2.2,0.1-3.98,0.31-5.03    c0.21-1.57,0.74-3.24,1.79-5.14c3.14-6.18,11.63-6.18,14.35-6.18c10.38,0,14.16,4.5,15.41,8.18    C853.14,468.94,853.46,471.56,853.46,475.02z"/>
	</g>
	<g>
		<path class="st0" d="M962,512.13c0,3.56-0.31,6.39-1.05,8.8c-1.05,3.88-3.36,5.87-5.02,6.81c-3.05,1.57-6.5,2.2-10.9,2.2h-8.5    v7.76c0,4.72-0.74,8.17-1.98,10.69c-1.58,2.83-4.1,4.93-7.14,5.97c-2.4,0.74-5.34,1.16-8.9,1.16c-3.68,0-6.6-0.42-8.92-1.16    c-3.98-1.25-5.97-3.66-6.91-5.45c-1.47-3.04-2.09-6.71-2.09-11.31v-7.66h-8.7c-4.5,0-7.76-0.63-10.16-1.88    c-2.83-1.47-4.82-4.08-5.77-7.34c-0.73-2.3-1.04-5.13-1.04-8.7c0-3.56,0.41-6.5,1.15-8.91c0.95-3.15,2.93-5.66,5.77-7.03    c2.82-1.36,6.49-1.99,11.21-1.99h7.55v-7.75c0-4.72,0.62-8.07,1.88-10.59c1.46-2.93,3.98-5.03,7.24-6.08    c4.82-1.46,12.88-1.57,17.7,0c3.99,1.26,5.98,3.67,7.02,5.45c1.36,3.04,2.1,6.71,2.1,11.32v7.65h7.76c4.61,0,8.07,0.63,10.58,1.99    c2.94,1.58,5.03,3.98,5.98,7.13C961.69,505.52,962,508.46,962,512.13z"/>
	</g>
	<g>
		<path class="st0" d="M594.78,472.4c-10.06-9.85-22.22-14.88-35.95-14.88c-6.5,0-12.89,1.26-18.97,3.88    c-5.97,2.62-11.42,6.29-16.04,10.79c-4.72,4.61-8.48,10.27-11.22,16.98c-2.82,6.71-4.19,13.94-4.19,21.59    c0,14.04,5.03,26.41,14.89,36.58c9.85,10.27,22.11,15.41,36.26,15.41c14.14,0,26.3-5.24,36.05-15.62    c9.54-10.37,14.47-22.95,14.47-37.52C610.09,494.83,604.95,482.36,594.78,472.4z M577.39,510.24c0,6.18-1.9,10.9-5.56,14.46    c-7.65,7.24-17.4,7.24-25.04-0.2c-3.78-3.67-5.66-8.28-5.66-14.36c0-6.08,1.88-10.8,5.66-14.46c3.77-3.67,7.86-5.45,12.36-5.45    c4.62,0,8.7,1.78,12.58,5.45C575.49,499.34,577.39,504.06,577.39,510.24z"/>
	</g>
</g>
<g>
	<path class="st0" d="M428.19,600.17l0.53-0.38c0.66-0.39,1.13-0.59,1.4-0.59c0.6,0,1.26,0.55,1.96,1.63   c0.43,0.68,0.64,1.23,0.64,1.63c0,0.41-0.13,0.74-0.39,1.02c-0.26,0.27-0.57,0.52-0.92,0.73c-0.35,0.21-0.69,0.42-1.01,0.61   c-0.32,0.19-0.98,0.45-1.97,0.76c-0.99,0.31-1.95,0.47-2.87,0.47c-0.92,0-1.86-0.12-2.8-0.36c-0.94-0.24-1.92-0.65-2.92-1.23   c-1-0.57-1.9-1.27-2.7-2.1c-0.8-0.83-1.45-1.89-1.97-3.18c-0.51-1.29-0.77-2.7-0.77-4.21c0-1.52,0.25-2.89,0.76-4.12   c0.51-1.24,1.15-2.26,1.94-3.06c0.79-0.81,1.69-1.48,2.7-2.03c1.9-1.05,3.82-1.57,5.74-1.57c0.91,0,1.84,0.14,2.79,0.42   c0.94,0.28,1.65,0.57,2.14,0.86l0.7,0.41c0.35,0.22,0.62,0.39,0.82,0.53c0.5,0.41,0.76,0.87,0.76,1.38c0,0.52-0.2,1.06-0.61,1.62   c-0.76,1.05-1.44,1.57-2.04,1.57c-0.35,0-0.85-0.22-1.49-0.64c-0.82-0.66-1.91-0.99-3.27-0.99c-1.26,0-2.51,0.44-3.73,1.31   c-0.58,0.43-1.07,1.03-1.46,1.81c-0.39,0.78-0.59,1.66-0.59,2.64s0.2,1.86,0.59,2.64c0.39,0.78,0.88,1.39,1.49,1.84   c1.19,0.85,2.42,1.28,3.7,1.28c0.6,0,1.17-0.08,1.71-0.23S427.96,600.33,428.19,600.17z"/>
	<path class="st0" d="M454.87,584.13c2.88,0,5.38,1.04,7.5,3.12c2.12,2.08,3.18,4.66,3.18,7.74c0,3.08-1.01,5.71-3.03,7.87   c-2.02,2.17-4.51,3.25-7.46,3.25c-2.96,0-5.47-1.07-7.54-3.21c-2.07-2.14-3.11-4.68-3.11-7.64c0-1.61,0.29-3.13,0.88-4.54   c0.59-1.41,1.36-2.59,2.33-3.54c0.97-0.95,2.09-1.7,3.35-2.25C452.23,584.4,453.53,584.13,454.87,584.13z M449.56,595.13   c0,1.73,0.56,3.14,1.68,4.21c1.12,1.08,2.36,1.62,3.75,1.62s2.63-0.53,3.73-1.57c1.11-1.05,1.66-2.46,1.66-4.23   c0-1.77-0.56-3.19-1.68-4.26c-1.12-1.07-2.36-1.6-3.75-1.6c-1.38,0-2.63,0.54-3.73,1.62C450.12,591.99,449.56,593.4,449.56,595.13z   "/>
	<path class="st0" d="M482.81,601.45h7.93c0.64,0,1.11,0.07,1.4,0.22c0.29,0.14,0.48,0.38,0.58,0.68c0.1,0.31,0.14,0.73,0.14,1.24   c0,0.52-0.05,0.93-0.14,1.24c-0.1,0.31-0.26,0.53-0.5,0.64c-0.37,0.19-0.87,0.29-1.52,0.29h-10.5c-1.36,0-2.16-0.37-2.39-1.11   c-0.12-0.31-0.17-0.8-0.17-1.48v-16.21c0-0.45,0.01-0.78,0.04-1.01c0.03-0.22,0.12-0.48,0.28-0.77c0.27-0.52,1.03-0.79,2.27-0.79   c1.36,0,2.17,0.36,2.42,1.08c0.1,0.33,0.15,0.84,0.15,1.52V601.45z"/>
	<path class="st0" d="M518.32,600.17l0.52-0.38c0.66-0.39,1.13-0.59,1.4-0.59c0.6,0,1.26,0.55,1.96,1.63   c0.43,0.68,0.64,1.23,0.64,1.63c0,0.41-0.13,0.74-0.39,1.02c-0.26,0.27-0.57,0.52-0.92,0.73c-0.35,0.21-0.69,0.42-1.01,0.61   c-0.32,0.19-0.98,0.45-1.97,0.76c-0.99,0.31-1.95,0.47-2.87,0.47c-0.93,0-1.86-0.12-2.8-0.36c-0.94-0.24-1.91-0.65-2.92-1.23   c-1-0.57-1.9-1.27-2.69-2.1c-0.8-0.83-1.46-1.89-1.97-3.18c-0.52-1.29-0.77-2.7-0.77-4.21c0-1.52,0.25-2.89,0.76-4.12   c0.51-1.24,1.15-2.26,1.94-3.06c0.79-0.81,1.69-1.48,2.7-2.03c1.9-1.05,3.82-1.57,5.74-1.57c0.92,0,1.84,0.14,2.79,0.42   c0.94,0.28,1.66,0.57,2.14,0.86l0.7,0.41c0.35,0.22,0.62,0.39,0.82,0.53c0.5,0.41,0.76,0.87,0.76,1.38c0,0.52-0.2,1.06-0.61,1.62   c-0.76,1.05-1.44,1.57-2.04,1.57c-0.35,0-0.84-0.22-1.48-0.64c-0.82-0.66-1.91-0.99-3.27-0.99c-1.26,0-2.51,0.44-3.73,1.31   c-0.59,0.43-1.07,1.03-1.46,1.81c-0.39,0.78-0.58,1.66-0.58,2.64s0.2,1.86,0.58,2.64c0.39,0.78,0.89,1.39,1.49,1.84   c1.18,0.85,2.42,1.28,3.7,1.28c0.6,0,1.17-0.08,1.71-0.23S518.09,600.33,518.32,600.17z"/>
	<path class="st0" d="M548.18,585.18c0.15-0.29,0.42-0.49,0.79-0.61c0.37-0.11,0.84-0.17,1.4-0.17c0.56,0,1.01,0.05,1.34,0.14   c0.33,0.1,0.58,0.22,0.76,0.35c0.18,0.14,0.31,0.33,0.41,0.58c0.1,0.33,0.14,0.84,0.14,1.52v16.18c0,0.45-0.01,0.78-0.04,1.01   c-0.03,0.22-0.13,0.48-0.28,0.77c-0.27,0.52-1.03,0.78-2.27,0.78c-1.36,0-2.16-0.36-2.39-1.08c-0.11-0.33-0.17-0.84-0.17-1.52   v-5.92h-7.73v5.95c0,0.45-0.01,0.78-0.04,1.01c-0.03,0.22-0.12,0.48-0.28,0.77c-0.27,0.52-1.03,0.78-2.27,0.78   c-1.36,0-2.16-0.36-2.39-1.08c-0.11-0.33-0.17-0.84-0.17-1.52v-16.18c0-0.45,0.01-0.78,0.04-1.01c0.03-0.22,0.12-0.48,0.28-0.77   c0.27-0.52,1.03-0.79,2.27-0.79c1.36,0,2.17,0.36,2.42,1.08c0.1,0.33,0.14,0.84,0.14,1.52v5.95h7.73v-5.98   c0-0.45,0.01-0.78,0.04-1.01C547.93,585.73,548.02,585.47,548.18,585.18z"/>
	<path class="st0" d="M575.59,584.13c2.88,0,5.38,1.04,7.5,3.12c2.12,2.08,3.18,4.66,3.18,7.74c0,3.08-1.01,5.71-3.04,7.87   c-2.02,2.17-4.51,3.25-7.46,3.25s-5.47-1.07-7.54-3.21c-2.07-2.14-3.1-4.68-3.1-7.64c0-1.61,0.29-3.13,0.88-4.54   c0.58-1.41,1.36-2.59,2.33-3.54c0.97-0.95,2.09-1.7,3.35-2.25C572.94,584.4,574.25,584.13,575.59,584.13z M570.28,595.13   c0,1.73,0.56,3.14,1.68,4.21c1.11,1.08,2.36,1.62,3.75,1.62c1.38,0,2.62-0.53,3.73-1.57c1.11-1.05,1.66-2.46,1.66-4.23   c0-1.77-0.56-3.19-1.68-4.26c-1.12-1.07-2.37-1.6-3.75-1.6c-1.38,0-2.63,0.54-3.73,1.62C570.83,591.99,570.28,593.4,570.28,595.13z   "/>
	<path class="st0" d="M612.17,585.29c0.18-0.34,0.46-0.57,0.83-0.69c0.37-0.12,0.83-0.17,1.39-0.17c0.55,0,1,0.05,1.34,0.14   c0.34,0.1,0.59,0.22,0.76,0.35c0.17,0.14,0.28,0.34,0.36,0.61c0.12,0.31,0.18,0.81,0.18,1.49v16.18c0,0.47-0.02,0.81-0.05,1.02   c-0.03,0.21-0.12,0.47-0.28,0.76c-0.27,0.52-1.03,0.78-2.28,0.78c-0.76,0-1.28-0.06-1.57-0.17c-0.29-0.12-0.54-0.3-0.73-0.55   c-4.37-5.83-7.25-9.64-8.63-11.43v9.59c0,0.47-0.02,0.81-0.05,1.02c-0.03,0.21-0.12,0.47-0.28,0.76c-0.27,0.52-1.03,0.78-2.27,0.78   c-1.21,0-1.94-0.26-2.22-0.78c-0.16-0.29-0.25-0.56-0.28-0.79c-0.03-0.23-0.05-0.57-0.05-1.02v-16.27c0-0.74,0.09-1.28,0.28-1.62   c0.18-0.34,0.46-0.57,0.83-0.69c0.37-0.12,0.85-0.17,1.43-0.17s1.04,0.05,1.38,0.16c0.34,0.11,0.58,0.23,0.72,0.36   c0.07,0.06,0.3,0.31,0.67,0.76c4.1,5.58,6.84,9.27,8.22,11.05v-9.85C611.89,586.17,611.98,585.63,612.17,585.29z"/>
	<path class="st0" d="M634.72,600.61h8.98c0.45,0,0.78,0.01,1.01,0.04c0.22,0.03,0.48,0.12,0.77,0.28c0.52,0.27,0.79,1.03,0.79,2.27   c0,1.36-0.36,2.16-1.08,2.39c-0.33,0.12-0.84,0.17-1.52,0.17h-11.55c-1.36,0-2.16-0.37-2.39-1.11c-0.11-0.31-0.17-0.8-0.17-1.48   v-16.21c0-0.99,0.18-1.67,0.55-2.03c0.37-0.36,1.07-0.54,2.1-0.54h11.49c0.45,0,0.78,0.01,1.01,0.04c0.22,0.03,0.48,0.13,0.77,0.28   c0.52,0.27,0.79,1.03,0.79,2.27c0,1.36-0.36,2.16-1.08,2.39c-0.33,0.11-0.84,0.17-1.52,0.17h-8.95v2.94h5.78   c0.45,0,0.78,0.01,1.01,0.04c0.22,0.03,0.48,0.12,0.77,0.28c0.52,0.27,0.78,1.03,0.78,2.27c0,1.36-0.37,2.16-1.11,2.39   c-0.33,0.12-0.84,0.17-1.52,0.17h-5.72V600.61z"/>
	<path class="st0" d="M658.69,602.77c-0.5-0.62-0.76-1.18-0.76-1.68s0.42-1.15,1.25-1.97c0.49-0.47,1-0.7,1.55-0.7   c0.54,0,1.3,0.48,2.27,1.46c0.27,0.33,0.66,0.65,1.17,0.95c0.5,0.3,0.97,0.45,1.4,0.45c1.81,0,2.71-0.74,2.71-2.21   c0-0.45-0.25-0.82-0.74-1.12c-0.49-0.3-1.11-0.52-1.85-0.65c-0.74-0.14-1.53-0.36-2.39-0.66c-0.86-0.3-1.65-0.65-2.39-1.06   c-0.74-0.41-1.35-1.05-1.85-1.94s-0.74-1.95-0.74-3.19c0-1.71,0.63-3.2,1.91-4.47c1.27-1.27,3.01-1.91,5.2-1.91   c1.17,0,2.23,0.15,3.19,0.45c0.96,0.3,1.63,0.61,2,0.92l0.73,0.55c0.6,0.57,0.9,1.04,0.9,1.43c0,0.39-0.23,0.92-0.7,1.6   c-0.66,0.97-1.34,1.46-2.04,1.46c-0.41,0-0.91-0.2-1.51-0.58c-0.06-0.04-0.17-0.14-0.34-0.29c-0.16-0.16-0.32-0.28-0.45-0.38   c-0.41-0.25-0.93-0.38-1.56-0.38c-0.63,0-1.16,0.15-1.57,0.45c-0.42,0.3-0.63,0.72-0.63,1.25c0,0.53,0.25,0.97,0.74,1.3   c0.5,0.33,1.11,0.55,1.85,0.67c0.74,0.12,1.55,0.3,2.42,0.54c0.88,0.24,1.68,0.54,2.42,0.89c0.74,0.35,1.36,0.95,1.85,1.82   c0.49,0.87,0.74,1.93,0.74,3.2c0,1.26-0.26,2.38-0.76,3.34c-0.51,0.96-1.17,1.71-1.98,2.23c-1.57,1.03-3.26,1.54-5.05,1.54   c-0.91,0-1.78-0.11-2.59-0.34c-0.82-0.22-1.48-0.5-1.98-0.83c-1.03-0.62-1.75-1.22-2.16-1.81L658.69,602.77z"/>
	<path class="st0" d="M720.13,584.8c0.95,0.67,1.43,1.3,1.43,1.93c0,0.37-0.22,0.88-0.67,1.55l-6.3,9.42v5.57   c0,0.45-0.01,0.78-0.05,1.01c-0.03,0.22-0.12,0.48-0.27,0.77c-0.16,0.29-0.42,0.49-0.79,0.61c-0.37,0.11-0.86,0.17-1.49,0.17   s-1.12-0.06-1.49-0.17c-0.37-0.12-0.63-0.33-0.79-0.63c-0.16-0.3-0.25-0.57-0.28-0.79c-0.03-0.22-0.05-0.57-0.05-1.03v-5.51   l-6.3-9.42c-0.45-0.66-0.67-1.18-0.67-1.55c0-0.62,0.43-1.22,1.28-1.79c0.85-0.57,1.47-0.86,1.84-0.86c0.37,0,0.66,0.08,0.88,0.23   c0.33,0.22,0.68,0.61,1.05,1.2l4.52,7.23l4.52-7.23c0.37-0.58,0.69-0.97,0.96-1.15c0.27-0.18,0.59-0.28,0.95-0.28   C718.78,584.07,719.35,584.32,720.13,584.8z"/>
	<path class="st0" d="M751.27,602.77c-0.5-0.62-0.76-1.18-0.76-1.68s0.42-1.15,1.25-1.97c0.49-0.47,1-0.7,1.55-0.7   c0.54,0,1.3,0.48,2.27,1.46c0.27,0.33,0.66,0.65,1.17,0.95c0.5,0.3,0.97,0.45,1.4,0.45c1.81,0,2.71-0.74,2.71-2.21   c0-0.45-0.25-0.82-0.74-1.12c-0.49-0.3-1.11-0.52-1.85-0.65c-0.74-0.14-1.53-0.36-2.39-0.66c-0.86-0.3-1.65-0.65-2.39-1.06   c-0.74-0.41-1.35-1.05-1.85-1.94s-0.74-1.95-0.74-3.19c0-1.71,0.63-3.2,1.91-4.47c1.27-1.27,3.01-1.91,5.2-1.91   c1.17,0,2.23,0.15,3.2,0.45c0.96,0.3,1.63,0.61,2,0.92l0.73,0.55c0.6,0.57,0.9,1.04,0.9,1.43c0,0.39-0.23,0.92-0.7,1.6   c-0.66,0.97-1.34,1.46-2.04,1.46c-0.41,0-0.91-0.2-1.52-0.58c-0.06-0.04-0.17-0.14-0.34-0.29c-0.16-0.16-0.32-0.28-0.45-0.38   c-0.41-0.25-0.93-0.38-1.56-0.38c-0.63,0-1.16,0.15-1.57,0.45c-0.42,0.3-0.63,0.72-0.63,1.25c0,0.53,0.25,0.97,0.74,1.3   c0.5,0.33,1.11,0.55,1.85,0.67c0.74,0.12,1.55,0.3,2.42,0.54c0.88,0.24,1.68,0.54,2.42,0.89c0.74,0.35,1.36,0.95,1.85,1.82   c0.49,0.87,0.74,1.93,0.74,3.2c0,1.26-0.26,2.38-0.76,3.34c-0.51,0.96-1.17,1.71-1.98,2.23c-1.57,1.03-3.26,1.54-5.05,1.54   c-0.91,0-1.78-0.11-2.59-0.34c-0.82-0.22-1.48-0.5-1.98-0.83c-1.03-0.62-1.75-1.22-2.16-1.81L751.27,602.77z"/>
	<path class="st0" d="M778.15,586.96c0-0.45,0.01-0.78,0.04-1.01c0.03-0.22,0.12-0.48,0.28-0.77c0.27-0.52,1.03-0.79,2.27-0.79   c1.36,0,2.17,0.36,2.42,1.08c0.1,0.33,0.14,0.84,0.14,1.52v16.21c0,0.47-0.01,0.81-0.04,1.02c-0.03,0.21-0.12,0.47-0.28,0.76   c-0.27,0.52-1.03,0.78-2.27,0.78c-1.36,0-2.16-0.37-2.39-1.11c-0.11-0.31-0.17-0.8-0.17-1.48V586.96z"/>
	<path class="st0" d="M801.02,601.45h7.93c0.64,0,1.11,0.07,1.4,0.22c0.29,0.14,0.49,0.38,0.59,0.68c0.1,0.31,0.14,0.73,0.14,1.24   c0,0.52-0.05,0.93-0.14,1.24c-0.1,0.31-0.26,0.53-0.5,0.64c-0.37,0.19-0.87,0.29-1.52,0.29h-10.5c-1.36,0-2.15-0.37-2.39-1.11   c-0.12-0.31-0.18-0.8-0.18-1.48v-16.21c0-0.45,0.01-0.78,0.04-1.01c0.03-0.22,0.12-0.48,0.28-0.77c0.27-0.52,1.03-0.79,2.28-0.79   c1.36,0,2.17,0.36,2.42,1.08c0.1,0.33,0.15,0.84,0.15,1.52V601.45z"/>
	<path class="st0" d="M828.34,601.45h7.93c0.64,0,1.11,0.07,1.4,0.22c0.29,0.14,0.48,0.38,0.58,0.68c0.1,0.31,0.15,0.73,0.15,1.24   c0,0.52-0.05,0.93-0.15,1.24c-0.1,0.31-0.26,0.53-0.49,0.64c-0.37,0.19-0.88,0.29-1.52,0.29h-10.5c-1.36,0-2.15-0.37-2.39-1.11   c-0.12-0.31-0.18-0.8-0.18-1.48v-16.21c0-0.45,0.01-0.78,0.04-1.01c0.03-0.22,0.12-0.48,0.28-0.77c0.27-0.52,1.03-0.79,2.28-0.79   c1.36,0,2.17,0.36,2.42,1.08c0.1,0.33,0.15,0.84,0.15,1.52V601.45z"/>
	<path class="st0" d="M860.53,584.13c2.88,0,5.37,1.04,7.5,3.12c2.12,2.08,3.18,4.66,3.18,7.74c0,3.08-1.01,5.71-3.03,7.87   c-2.02,2.17-4.51,3.25-7.46,3.25c-2.96,0-5.47-1.07-7.54-3.21c-2.07-2.14-3.11-4.68-3.11-7.64c0-1.61,0.29-3.13,0.88-4.54   c0.58-1.41,1.36-2.59,2.33-3.54c0.97-0.95,2.09-1.7,3.35-2.25C857.88,584.4,859.18,584.13,860.53,584.13z M855.22,595.13   c0,1.73,0.56,3.14,1.68,4.21c1.12,1.08,2.37,1.62,3.75,1.62c1.38,0,2.63-0.53,3.73-1.57c1.11-1.05,1.66-2.46,1.66-4.23   c0-1.77-0.56-3.19-1.68-4.26c-1.12-1.07-2.36-1.6-3.75-1.6c-1.38,0-2.62,0.54-3.73,1.62S855.22,593.4,855.22,595.13z"/>
	<path class="st0" d="M897.11,585.29c0.18-0.34,0.46-0.57,0.83-0.69c0.37-0.12,0.83-0.17,1.38-0.17c0.55,0,1,0.05,1.34,0.14   c0.34,0.1,0.59,0.22,0.76,0.35c0.17,0.14,0.29,0.34,0.36,0.61c0.12,0.31,0.18,0.81,0.18,1.49v16.18c0,0.47-0.01,0.81-0.05,1.02   c-0.03,0.21-0.12,0.47-0.28,0.76c-0.27,0.52-1.03,0.78-2.27,0.78c-0.76,0-1.28-0.06-1.57-0.17c-0.29-0.12-0.53-0.3-0.73-0.55   c-4.37-5.83-7.25-9.64-8.63-11.43v9.59c0,0.47-0.01,0.81-0.05,1.02c-0.03,0.21-0.12,0.47-0.28,0.76c-0.27,0.52-1.03,0.78-2.27,0.78   c-1.21,0-1.94-0.26-2.22-0.78c-0.16-0.29-0.25-0.56-0.28-0.79c-0.03-0.23-0.05-0.57-0.05-1.02v-16.27c0-0.74,0.09-1.28,0.28-1.62   s0.46-0.57,0.83-0.69c0.37-0.12,0.85-0.17,1.43-0.17c0.58,0,1.04,0.05,1.38,0.16c0.34,0.11,0.58,0.23,0.71,0.36   c0.08,0.06,0.3,0.31,0.67,0.76c4.1,5.58,6.84,9.27,8.22,11.05v-9.85C896.83,586.17,896.92,585.63,897.11,585.29z"/>
	<path class="st0" d="M919.66,600.61h8.98c0.45,0,0.78,0.01,1.01,0.04c0.22,0.03,0.48,0.12,0.77,0.28c0.53,0.27,0.79,1.03,0.79,2.27   c0,1.36-0.36,2.16-1.08,2.39c-0.33,0.12-0.84,0.17-1.52,0.17h-11.55c-1.36,0-2.16-0.37-2.39-1.11c-0.12-0.31-0.18-0.8-0.18-1.48   v-16.21c0-0.99,0.18-1.67,0.55-2.03c0.37-0.36,1.07-0.54,2.1-0.54h11.49c0.45,0,0.78,0.01,1.01,0.04c0.22,0.03,0.48,0.13,0.77,0.28   c0.53,0.27,0.79,1.03,0.79,2.27c0,1.36-0.36,2.16-1.08,2.39c-0.33,0.11-0.84,0.17-1.52,0.17h-8.95v2.94h5.77   c0.45,0,0.78,0.01,1.01,0.04c0.22,0.03,0.48,0.12,0.77,0.28c0.53,0.27,0.79,1.03,0.79,2.27c0,1.36-0.37,2.16-1.11,2.39   c-0.33,0.12-0.84,0.17-1.51,0.17h-5.72V600.61z"/>
	<path class="st0" d="M943.63,602.77c-0.51-0.62-0.76-1.18-0.76-1.68s0.42-1.15,1.26-1.97c0.48-0.47,1-0.7,1.54-0.7   c0.55,0,1.3,0.48,2.27,1.46c0.27,0.33,0.66,0.65,1.17,0.95c0.51,0.3,0.97,0.45,1.4,0.45c1.81,0,2.71-0.74,2.71-2.21   c0-0.45-0.25-0.82-0.74-1.12c-0.5-0.3-1.11-0.52-1.85-0.65c-0.74-0.14-1.53-0.36-2.39-0.66c-0.86-0.3-1.65-0.65-2.39-1.06   c-0.74-0.41-1.36-1.05-1.85-1.94c-0.49-0.88-0.74-1.95-0.74-3.19c0-1.71,0.64-3.2,1.91-4.47c1.27-1.27,3.01-1.91,5.2-1.91   c1.17,0,2.23,0.15,3.19,0.45c0.96,0.3,1.63,0.61,2,0.92l0.73,0.55c0.6,0.57,0.9,1.04,0.9,1.43c0,0.39-0.23,0.92-0.7,1.6   c-0.66,0.97-1.34,1.46-2.04,1.46c-0.41,0-0.91-0.2-1.52-0.58c-0.06-0.04-0.17-0.14-0.34-0.29c-0.17-0.16-0.32-0.28-0.45-0.38   c-0.41-0.25-0.93-0.38-1.56-0.38c-0.63,0-1.16,0.15-1.57,0.45c-0.42,0.3-0.63,0.72-0.63,1.25c0,0.53,0.25,0.97,0.74,1.3   c0.49,0.33,1.11,0.55,1.85,0.67c0.74,0.12,1.55,0.3,2.42,0.54c0.87,0.24,1.68,0.54,2.42,0.89c0.74,0.35,1.36,0.95,1.85,1.82   c0.49,0.87,0.74,1.93,0.74,3.2c0,1.26-0.25,2.38-0.76,3.34c-0.5,0.96-1.17,1.71-1.98,2.23c-1.57,1.03-3.26,1.54-5.05,1.54   c-0.91,0-1.78-0.11-2.6-0.34c-0.82-0.22-1.48-0.5-1.98-0.83c-1.03-0.62-1.75-1.22-2.16-1.81L943.63,602.77z"/>
</g>
</svg>